<?xml version="1.0" encoding="UTF-8"?>
<svg xmlns="http://www.w3.org/2000/svg" width="100" height="100">
  <g transform="translate(12,0)" opacity="0.2">
    <path d="M 50.55275,0.00101362 C 43.291904,-0.07755738 37.091298,4.4248071 31.515657,8.5463594 28.731278,11.217271 24.003442,14.582308 26.181331,18.844746 c 0.995084,6.872192 -3.668158,13.634039 -0.902701,20.424616 2.184787,3.761424 -0.577567,6.955591 -4.758108,5.936692 -0.3418,-3.747995 -3.025966,-8.455346 -7.5117,-6.946833 -5.261311,1.194712 -7.103378,7.663547 -4.895906,12.143556 1.300246,3.937808 5.760577,8.950216 10.139977,6.148777 2.692513,-3.335124 4.790853,0.546427 1.476074,2.391797 -1.627463,4.899508 2.062563,10.341315 3.998349,14.879509 2.60243,5.921406 9.680091,6.617676 15.360254,6.901447 0.947671,-2.890796 6.878487,-1.421712 6.884234,-1.711797 -4.860462,-2.677353 -8.582714,-7.109204 -11.685776,-11.610541 -1.175536,-1.602242 -2.287642,-6.787835 -0.03735,-2.736583 4.995328,7.352219 12.292179,14.579809 21.730108,14.948551 6.598942,-0.175571 13.288842,-2.961124 17.928895,-7.632975 C 82.624832,61.394648 85.84521,47.299438 84.809073,33.84537 84.550885,28.582534 84.714246,21.601215 79.016638,19.042845 c -2.577274,-2.707167 -9.289846,2.564098 -5.971261,-2.669396 1.561085,-2.860596 8.409387,0.507857 4.356901,-3.204567 C 74.021237,8.1585457 69.225399,4.1267221 63.374351,2.3586534 59.267614,0.90325472 54.926072,-0.02315858 50.553181,0.00101362 Z M 33.683577,3.1029659 C 26.442616,5.301692 18.840331,9.1629156 15.153049,16.073107 c 4.013996,-2.24244 10.019163,0.28 11.804264,-5.069079 0.326282,-3.5451098 8.525359,-5.715821 6.726264,-7.9010621 z M 45.495656,16.327078 c 3.135819,-0.783714 5.275952,5.012479 1.022237,3.388381 -4.774273,-0.82057 -7.378902,4.758452 -9.544794,6.826163 -1.779513,-3.884095 2.551427,-7.96489 5.843963,-9.582501 0.84121,-0.374715 1.751282,-0.63 2.678579,-0.632 z M 23.259011,16.980077 C 16.871027,17.314934 9.553558,21.689528 9.68581,28.785506 c 0.166662,3.284209 -1.25312,9.191086 3.458941,6.148905 5.209302,-1.496999 9.049222,4.272666 10.208439,7.115476 1.214041,-3.789381 -1.916533,-8.485846 -0.273555,-12.748854 0.564924,-4.051895 1.723695,-8.339161 0.179305,-12.320956 z m 55.755903,10.06773 c 1.189042,2.710354 4.780263,6.786919 3.964585,9.547016 -1.72118,2.842568 -9.719905,2.796753 -7.459819,-0.967998 2.444333,-0.307572 7.218533,0.158856 4.372821,-3.465725 -0.648399,-1.618927 -0.999969,-3.367681 -0.87756,-5.113236 z m -27.12942,0.07286 c 0.267233,4.521366 6.740057,7.120676 5.023863,11.463813 -2.089287,2.929511 -11.343387,2.760182 -9.606288,-2.012826 2.773575,0.822571 9.968344,1.540027 6.072334,-2.797125 -0.962612,-2.021383 -2.141626,-4.367608 -1.489909,-6.653862 z m 14.057639,2.394498 c 1.816939,3.720708 4.019354,7.795174 6.976688,11.040827 2.932363,3.40071 8.764289,7.459576 4.138086,11.807599 -4.631446,3.137067 -10.202303,5.386578 -15.898025,4.688193 -2.952736,-1.328568 -0.642796,-9.432287 0.07327,-3.860408 3.054356,4.452593 9.348465,-0.281 13.166547,-1.691426 3.879229,-3.873239 -3.160172,-7.565305 -4.940043,-11.040673 -2.302441,-3.09451 -4.257896,-6.750362 -4.136822,-10.708298 l 0.456451,-0.217714 0.164362,-0.01857 v 0 z M 13.929842,40.979679 c 3.80936,-0.399713 6.660017,6.226093 4.650627,7.442261 -0.535616,-2.631638 -4.26939,-6.207048 -4.74038,-1.427997 -0.252005,1.821426 0.368092,6.995876 -1.194934,2.61054 -1.238035,-2.304755 1.882426,-8.961189 -2.293648,-4.924209 0.148415,-1.861411 1.52465,-3.818466 3.578307,-3.700581 z m 66.819456,13.750182 c -1.443589,3.990467 -7.989817,10.413986 -11.199512,7.33199 -0.953275,-4.88755 6.557131,-3.27191 9.249215,-6.362877 0.641502,-0.339856 1.288752,-0.66957 1.950297,-0.969141 z m -29.210689,2.539597 c 5.095296,2.285026 10.846535,2.150255 16.321475,2.104255 2.511572,6.388677 -5.764802,3.586752 -9.309874,3.011853 -2.803388,-0.810428 -5.878849,-2.226783 -7.011601,-5.116108 z m -0.74854,3.791281 c 2.287054,5.611436 9.295665,5.925278 14.494825,5.871935 2.488152,-0.200572 7.547387,-0.560428 3.232424,2.145968 -4.830003,1.335142 -11.251666,2.21214 -15.026487,-1.840897 -0.221832,-1.708284 -7.089486,-6.050049 -2.700762,-6.177006 z m 25.961009,13.042697 c -0.858881,1.666684 -6.780788,4.597394 -2.156727,3.577666 4.429786,2.039525 4.103072,8.108846 3.943321,12.255655 -0.627708,2.81544 -1.672259,5.299336 1.152693,7.331549 -0.54524,1.394426 3.125907,0.34657 4.427574,0.671141 C 87.24061,96.022978 86.97782,89.576115 88,85.748692 86.86368,81.584426 81.879722,79.924427 79.415748,76.47749 78.563765,75.647062 77.681394,74.84635 76.751034,74.103393 Z M 21.049945,77.386797 C 13.322749,80.446922 6.551874,85.384501 0,90.392952 c 2.051356,2.693011 1.38099,8.798017 5.970657,7.546276 11.428441,0 22.856884,0 34.285324,0 -1.51577,-4.773422 -1.42208,-10.315743 -7.485363,-11.2434 -4.421856,-1.754441 -7.847925,-4.90038 -10.723737,-8.584661 L 21.421039,77.546311 21.04993,77.386597 v 0 z m 51.848972,3.482882 c -3.05756,1.084569 -9.332906,3.073653 -8.051195,6.584848 1.53363,-0.618142 5.961146,0.692999 2.017796,0.631856 -3.623188,0.782428 -1.567407,5.594493 1.867167,4.722338 3.732654,0.945855 9.021851,1.424568 7.744536,-4.03001 -0.472973,-2.561925 0.01724,-7.734233 -3.578304,-7.909075 z m -6.627173,0.181428 c -3.430494,1.194713 -10.54518,1.432398 -11.981412,1.621998 4.331312,3.441367 8.502558,1.871768 11.981412,-1.621998 z m -36.495111,0.05429 c -0.728281,3.146567 9.077885,7.386805 8.4771,2.234411 -0.917931,-2.094683 -6.544618,-0.266143 -8.4771,-2.234411 z m 13.035273,0.761856 c -4.287377,1.828169 -2.604313,8.170332 -2.035223,11.878313 0.28117,5.257308 4.746588,8.362734 9.07836,4.583309 2.513655,-2.001526 8.786514,-4.461595 6.961399,-7.883819 -1.808735,-0.956284 -6.308289,-0.889427 -2.02048,-1.646441 5.453015,-1.349855 -3.837263,-3.802008 -5.942683,-5.277665 -1.953458,-0.717427 -3.955506,-1.463555 -6.041373,-1.653697 z m 17.928061,4.589437 c -5.34585,0.257714 0.402286,9.175103 2.186985,2.974868 0.248124,-1.346855 -0.675841,-3.040839 -2.186985,-2.974868 z m 2.136037,6.657405 c -2.889246,0.896285 -7.394058,1.38057 -3.59658,4.825251 2.242904,0.396572 3.707469,-0.368142 5.312861,-1.088141 1.147808,2.806354 6.085596,0.09714 2.955236,-1.535341 -1.784554,-0.232143 -2.857493,-2.152696 -4.671517,-2.201754 z m 9.621259,1.904699 c -3.73024,-0.259286 -2.865784,4.258522 0.475415,2.920552 1.293063,-0.321285 5.841868,0.869428 3.619511,-1.11557 -1.069362,-1.084283 -2.545737,-1.827455 -4.094897,-1.804997 z m -17.051739,2.049825 c -2.136527,1.008999 -0.650553,0.911142 0.657306,0.870714 l -0.324845,-0.438859 -0.332461,-0.431858 z" />
  </g>
</svg>
