<svg role="img" viewBox="0 0 24 24" xmlns="http://www.w3.org/2000/svg">
  <path
    d="M19.606 18.952c.09 0 .072-.112.145-.13 1.36-.056 2.63-.316 3.32-1.244.036-.056-.019-.298.017-.372.019-.037.708.037.418-.148-.073-.056-.073-.167-.073-.205.055-.148.544-.538.562-.687.055-.501-.399-.742-.308-1.43.127-.76-.508-2.005-1.632-2.562-.091-.371-.635-.427-1.089-.464-.435-.724-1.56-.446-2.158-1.077-.127-.019-.146.074-.273.055-1.197-.817-1.977.539-3.5-1.467-.128-.594.09-1.448.743-1.355 1.07-.854 2.794-.631 3.882-.446.417.427 1.633.446 1.488 1.374 1.76.056.58-1.56.217-2.265-.308-.019-.453-.223-.671-.334-.453.315-1.56-.929-2.032-.316-.544-.111-1.106-.353-1.541 0-.091 0-.381-.111-.363-.223-.871.669-1.633.557-2.649 1.17-.58 1.04-.834 2.34-.344 3.435.616.557.725 1.374 1.723 1.523.599.39 1.542.483 2.104.743.2.074.49-.223.69-.13.199.111.308.315.544.408.09.037.38.019.526.075.326.13.743.464 1.016.612.743.409 1.632.929 1.505 1.913-.054.371-.526.408-.671.446-.036.018.09.482.09.482-.326.186-.616.632-.834.687-.852.205-1.65-.37-2.521.168-.073-.112-.109-.223-.272-.205-.018.279-.254.075-.345.075-.018.074-.145.185-.218.185-.145-.371-.544-.241-.798-.185-.67-.446-.889-.91-1.687-1.096-.072-.52-.67-.446-.762-1.188-.308-.279-.961.315-1.27.352-.09.688.49.483.2 1.115.327-.112.29.167.272.408.182.037.345.093.472.204 0 .075-.036.167-.127.167.526.818 1.596 1.059 2.503 1.672.345-.242.943.074 1.27.26.798-.205 1.542.074 2.43 0M7.288 18.469c.435-.13.417-.204.69-.353.054-.037.18.019.271 0 1.034-.353 1.687-1.003 2.213-1.653.545-.687 1.633-1.04 1.415-1.522-.254.037-.054-.409-.254-.409-.562-.13-.816.279-1.288.483-.181.074-.344.019-.471.056-.472.185-.78.613-1.089.91-.2.204-.362.037-.526.13-.217.13-.38.427-.616.557-.835.464-2.25.612-3.175.761-1.94.297-2.648-2.711-2.812-4.252-.145-1.356.436-2.934 1.125-4.03.562-.873 1.234-1.782 1.96-2.005 0-.186.036-.297.144-.353.672-.427.69-.594 1.796-.427 0 .13.327.26.617.297.816-.594 1.379 1.318 1.905 1.374.925.111.997-1.931 0-2.08-.146.075-.254.167-.49.149-.544-.557-1.089-1.003-1.941-1.04-.49.501-1.18-.279-1.796 0-.127.037-.018.353-.272.279 0-.112-.218-.112-.363-.075-.308.464-.816.353-.889 1.077C2.59 6.4 2.154 7.44 1.447 7.847v.427c-1.034.65-.69 1.709-.834 2.563-.091-.019-.273.13-.327.241-.726 1.467.109 3.714.526 5.107.744 1.578 2.086 2.432 3.719 2.767.907.185 1.814-.205 2.757-.483"
    fill="#fff"
  />
</svg>
