<?xml version="1.0" encoding="UTF-8"?>
<svg xmlns="http://www.w3.org/2000/svg" width="100" height="100">
  <g transform="translate(0,23)" opacity="0.2">
    <path d="M 74.765813,53.81913 C 74.07268,53.73023 72.802854,53.43154 71.94393,53.15537 l -1.561584,-0.50212 -1.308484,-0.79476 c -0.719646,-0.43712 -1.815563,-1.19141 -2.435338,-1.6762 L 65.511672,49.30086 64.237489,47.8014 62.963285,46.30194 62.296687,45.04691 C 61.930032,44.35665 61.427357,43.14734 61.179649,42.35956 60.931918,41.57178 60.518816,39.789 60.261626,38.39784 L 59.794,35.86844 59.89189,34.87209 c 0.141521,-1.43938 0.76429,-4.63618 1.378013,-7.07342 0.611062,-2.42646 1.917964,-6.27676 2.572041,-7.57734 0.974328,-1.93753 3.42575,-5.82863 4.930369,-7.82605 0.872895,-1.15876 2.267103,-2.8023502 3.098259,-3.6524102 0.831177,-0.85008 2.20499,-2.07011 3.052956,-2.71117 l 1.541715,-1.16558 1.827202,-0.90542 1.827223,-0.90542 2.360374,-0.0148 2.360373,-0.0148 2.093414,0.84472 c 1.151363,0.46461 2.291724,0.86125 2.53413,0.88144 l 0.440716,0.0367 0.110167,-1.22194 0.110169,-1.22194 0.408833,-0.62364 0.40877,-0.62362 1.212399,0.14249 1.212354,0.14248 1.190968,0.56342 1.190968,0.56342 0.768669,0.72496 0.768712,0.72497 v 1.10333 c 0,0.60682 -0.062,1.41335 -0.137804,1.79229 l -0.13776,0.68896 -0.869177,0.98745 -0.869242,0.98744 0.138551,0.22418 0.138575,0.22419 h 0.403288 0.403312 l 0.50897,0.4121302 0.508946,0.41213 -0.261701,3.0585 c -0.301175,3.52018 -0.527188,5.20185 -0.997982,7.42531 -0.184339,0.87059 -0.431211,2.0787 -0.548597,2.68468 -0.117428,0.606 -0.376687,1.83076 -0.576165,2.72171 l -0.362716,1.6199 -0.547034,1.07949 -0.54699,1.07949 h -0.190941 -0.19094 l -0.132898,-0.49581 c -0.07309,-0.2727 -0.134195,-1.01959 -0.135889,-1.65976 l -0.0044,-1.16397 -0.297743,-0.71264 -0.297742,-0.71264 -0.162513,-2.85229 -0.162468,-2.85231 -0.944229,-2.76329 -0.94425,-2.76329 -0.948872,-1.85034 -0.948981,-1.85036 -0.791727,-0.8322802 -0.791749,-0.83228 -0.61049,-0.15323 -0.610535,-0.15322 -0.965153,0.36858 c -0.530817,0.20273 -1.592497,0.78263 -2.359251,1.2886902 l -1.394187,0.9201 -2.05372,2.08177 -2.053786,2.08175 -1.623367,2.44025 -1.623412,2.44024 -1.540328,3.19522 c -1.65415,3.43138 -2.762168,6.26818 -3.6647,9.38258 l -0.565825,1.95269 -0.136462,1.65928 -0.136483,1.65929 -0.515813,0.62062 -0.515789,0.62062 0.324278,0.62705 c 0.178354,0.34488 0.60677,0.85889 0.952061,1.14224 l 0.627761,0.51521 0.590315,1.03376 0.590225,1.03378 1.045002,1.07006 1.044979,1.07009 1.067686,0.51517 1.067665,0.51517 2.458089,-0.11546 2.458065,-0.11548 2.133876,-0.69126 c 1.173652,-0.38019 2.704036,-0.94341 3.400909,-1.2516 l 1.267055,-0.56034 0.391517,0.10239 0.391583,0.10237 0.632846,-0.60478 0.632866,-0.60479 1.553839,-0.59377 1.553905,-0.59378 0.410683,-0.45378 c 0.22588,-0.24958 0.669611,-0.58769 0.986144,-0.75135 l 0.575461,-0.2976 0.261393,-0.61637 0.261416,-0.61638 1.247252,-0.75765 c 0.686002,-0.4167 1.619781,-1.09422 2.075129,-1.50557 l 0.827811,-0.74793 0.87459,-1.38478 0.874589,-1.38479 0.329581,-0.12647 0.329579,-0.12648 0.26967,0.32496 0.269665,0.32495 -0.245745,0.4883 c -0.13516,0.26855 -0.489304,1.49848 -0.787003,2.73316 l -0.541203,2.24486 -1.063571,1.94195 -1.063572,1.94195 -1.472825,1.47389 -1.472802,1.47389 -0.63225,0.32694 -0.632186,0.32693 -0.424828,-0.038 -0.424831,-0.0379 -0.613065,1.21196 -0.61302,1.21198 -2.366689,1.47458 -2.366665,1.47456 -1.983247,0.6586 -1.983223,0.6586 -1.723723,0.23568 c -1.887708,0.25811 -2.912622,0.26157 -4.82515,0.0163 z" />
    <path d="M 3.7622731,53.68025 2.9111039,53.36037 2.2546817,52.73694 1.5982595,52.11352 1.1655448,51.27209 0.73283228,50.43067 0.60911117,49.3861 0.48538788,48.34153 1.011048,47.73045 1.536664,47.11937 2.9174803,46.95656 4.2982945,46.79375 4.6734007,46.41865 5.0485048,46.04353 5.1615544,44.01158 5.2745599,41.97963 5.9356314,41.86704 6.5967468,41.75445 6.6651168,41.1633 6.7335308,40.57215 6.1142167,40.17781 C 5.7736069,39.96092 5.4220593,39.68202 5.3330548,39.55802 l -0.1619361,-0.22545 -0.00442,-6.3423 -0.00442,-6.3423 0.2754719,-0.0848 C 5.5892352,26.51647 5.9749689,26.4213 6.294898,26.35162 l 0.5816756,-0.12668 0.1399726,-0.3647 0.1399286,-0.3647 -0.2809199,-0.37609 C 6.7210603,24.91259 6.2608461,24.30734 5.8528409,23.77445 L 5.1110907,22.80554 5.289232,19.27976 C 5.387181,17.34058 5.4730875,14.79495 5.4800846,13.6228 L 5.4929266,11.49161 4.960846,10.92561 4.4287221,10.35957 3.1979315,9.9006598 1.9671411,9.4417298 1.4891705,8.9952798 1.011158,8.5488198 0.54186757,7.4579598 0.07262115,6.3670898 0.03630948,5.0646298 0,3.7621898 0.51609537,3.2128198 1.0321908,2.6634498 2.9318021,1.9690698 4.8314598,1.2746898 8.2470326,0.63736978 11.662649,5.9775186e-5 15.629122,0.00505978 l 3.966519,0.005 2.11898,0.20622 2.11898,0.20621 1.810829,0.66087002 c 0.995969,0.36348 2.423942,1.00374 3.17331,1.4228 0.74937,0.41908 1.811538,1.15721 2.360358,1.64032 l 0.997873,0.87837 1.397952,1.94924 1.397908,1.94924 1.056058,2.2036102 1.056101,2.20361 0.370102,1.43236 0.370102,1.43234 0.01994,1.65271 0.01994,1.65271 -0.285391,1.21199 -0.285435,1.21199 -0.861489,1.76288 -0.861486,1.76289 -1.266128,1.47114 c -0.696364,0.80913 -1.761942,1.91141 -2.367929,2.44952 -0.606029,0.5381 -1.878488,1.53545 -2.827785,2.21632 l -1.725987,1.23795 -2.681259,1.29728 c -3.380238,1.63547 -7.324748,3.21466 -9.181895,3.676 -0.787804,0.19571 -1.799758,0.45012 -2.248812,0.56538 l -0.816409,0.20955 -0.340477,0.34046 -0.340433,0.34046 v 2.85897 2.85897 l 0.505425,0.50547 0.505468,0.50544 0.898284,0.14364 0.898285,0.14364 0.27596,0.33252 0.275958,0.33252 1.129919,0.003 1.129876,0.003 0.9512,0.3313 0.951158,0.33129 0.204136,-0.12616 c 0.192178,-0.11879 4.830927,-0.36545 6.26727,-0.33325 0.363592,0.008 1.008146,0.0163 1.432314,0.018 0.424213,0.002 0.906389,0.0515 1.071557,0.11077 l 0.300269,0.10763 -0.272151,0.32792 -0.272196,0.32794 h -0.344153 c -0.189301,0 -0.796925,0.21066 -1.35026,0.46815 -0.553379,0.25748 -1.601113,0.74468 -2.328297,1.08265 -0.727183,0.33798 -1.917146,0.78246 -2.644331,0.98773 -0.727181,0.20526 -1.647785,0.51136 -2.045828,0.68023 l -0.723639,0.30702 h -0.824956 -0.824911 l -0.481956,0.33756 c -0.720451,0.50464 -2.129209,0.96074 -4.464059,1.44532 L 9.9000599,53.77978 7.2557301,53.88986 4.6114004,53.99994 3.760185,53.68005 Z m 16.4670549,-24.52608 1.953457,-0.77194 0.953635,0.143 0.953681,0.14302 0.353273,-0.53916 0.353275,-0.53918 -0.132709,-0.52878 -0.132711,-0.52879 0.434839,-0.39356 0.434885,-0.39356 0.473143,0.25322 0.473143,0.25323 0.335471,-0.27841 0.335429,-0.2784 -0.122613,-0.61302 -0.122569,-0.61302 1.100737,-1.25789 c 1.37506,-1.57138 2.484032,-3.23241 3.251203,-4.86977 l 0.592745,-1.26508 1.31e-4,-1.98324 1.35e-4,-1.98326 -0.586236,-1.25058 -0.586237,-1.25058 -0.901739,-0.9782802 -0.901783,-0.97828 -1.284858,-0.57661 -1.284903,-0.57663 -1.690961,-0.25151 -1.690958,-0.25149 -2.147012,0.26053 c -1.180842,0.1433 -2.312401,0.3083 -2.514543,0.36668 l -0.367577,0.10614 -0.763315,-0.6702 -0.763318,-0.6702 h -0.458973 -0.458971 l -0.228137,0.42623 c -0.125448,0.23443 -0.228092,0.66405 -0.228092,0.95471 v 0.52846 l -0.809102,0.53274 c -0.444981,0.293 -1.003364,0.7969 -1.240843,1.11977 l -0.431784,0.5870302 -0.181332,3.48965 -0.181373,3.48965 -0.01019,6.29327 -0.01019,6.29326 0.275472,0.34732 c 0.151485,0.19102 0.424166,0.39195 0.605984,0.4465 l 0.330559,0.0992 2.534114,-0.53513 2.534161,-0.53512 1.953457,-0.77194 z" />
    <path d="M 37.237067,53.57502 C 36.631081,53.35903 35.630513,52.92641 35.013634,52.61364 L 33.891984,52.045 33.196995,51.25345 c -0.382282,-0.43535 -0.91546,-1.21023 -1.18491,-1.72195 l -0.48992,-0.93041 -0.007,-1.6527 -0.007,-1.65271 0.695693,-1.46843 0.695692,-1.46842 1.70997,-1.78978 1.709947,-1.78977 -0.619056,-1.29517 -0.618991,-1.29516 0.132173,-0.661 0.132172,-0.661 -0.31537,-0.26174 -0.315371,-0.26174 0.342038,-0.66142 0.342016,-0.6614 -0.48904,-0.52055 -0.489085,-0.52057 0.139764,-1.01944 0.139741,-1.01946 0.438918,-0.99224 0.438917,-0.99224 0.937112,-1.11931 0.937177,-1.11932 0.967365,-0.61349 0.967343,-0.61349 1.193469,-0.26708 1.193425,-0.26707 1.147284,0.36244 1.147263,0.36244 1.258026,0.78788 1.257982,0.78787 0.802716,1.32147 0.802782,1.32146 0.112743,0.84063 0.112788,0.84063 -0.486487,1.54138 -0.486466,1.54138 -0.846656,1.07808 c -0.465652,0.59295 -1.210676,1.62348 -1.655578,2.29008 -0.444925,0.66659 -1.105874,1.47551 -1.46875,1.7976 l -0.65974,0.58561 0.187621,0.32005 c 0.103172,0.17604 1.090538,1.27865 2.19408,2.45023 l 2.006505,2.13016 0.263156,-0.3171 0.263202,-0.31711 0.0443,-0.6253 0.04427,-0.62529 -0.82527,-0.0683 -0.825203,-0.0683 -0.552014,-0.72375 -0.552056,-0.72373 v -0.45927 -0.45928 l 0.315677,-0.31567 0.315679,-0.31568 1.832834,-0.5698 c 1.008115,-0.31339 2.328696,-0.68247 2.934682,-0.82016 l 1.101804,-0.25035 2.64433,-0.087 c 1.454403,-0.0478 3.164944,-0.14589 3.801252,-0.21794 l 1.156899,-0.13097 -1.31e-4,0.2913 -8.8e-5,0.29131 -1.567192,1.43235 c -0.861882,0.7878 -1.87827,1.74197 -2.258572,2.1204 l -0.691446,0.68804 -1.074872,0.15603 c -0.591201,0.0858 -1.210984,0.20826 -1.377261,0.27207 l -0.302366,0.11603 v 1.06996 1.06996 l -0.470162,1.25661 -0.470184,1.25661 0.633183,0.45946 c 0.34822,0.2527 1.0308,0.76552 1.516892,1.13957 l 0.88371,0.68013 -0.04075,0.3115 c -0.02257,0.17133 -0.178048,0.6826 -0.345646,1.13616 l -0.304654,0.82466 -0.519163,0.5526 -0.519141,0.5526 -0.67776,-8.8e-4 -0.677761,-8.7e-4 -0.721525,-0.4399 c -0.396847,-0.24184 -0.85449,-0.43978 -1.017004,-0.43978 -0.162515,0 -0.547613,-0.19834 -0.855766,-0.44073 -0.308197,-0.2424 -0.693405,-0.43818 -0.856095,-0.43508 -0.162691,0.003 -0.8412,0.35382 -1.507761,0.77938 l -1.212018,0.77376 -2.084659,0.65296 -2.084659,0.65295 -1.110584,-0.0161 -1.110561,-0.0161 -1.101804,-0.39273 z m 5.347034,-5.33272 0.968774,-0.46898 0.107902,-0.28118 0.107882,-0.28117 -2.27415,-2.22339 -2.274194,-2.2234 -0.26604,-0.001 -0.266083,-10e-4 -0.61536,0.81115 c -0.338495,0.44613 -0.93766,1.10894 -1.331581,1.47289 l -0.716157,0.66174 v 0.29802 0.298 l 0.936495,0.95555 c 0.515136,0.52555 1.134875,1.06433 1.377283,1.19727 l 0.440722,0.24174 1.417878,0.007 1.417833,0.007 0.968775,-0.46898 z m -1.178815,-13.54325 1.701279,-1.45163 0.424923,-0.69689 0.424967,-0.69689 V 31.15437 30.4551 l -0.546424,-0.6494 -0.546446,-0.64942 -0.661854,-0.27415 -0.661917,-0.27415 -0.761637,0.14288 -0.761636,0.14289 -0.597627,0.70867 c -0.328637,0.38978 -0.731249,1.02779 -0.894688,1.41779 L 38.22692,31.7293 v 0.8535 0.85351 l 0.312091,1.03688 c 0.309936,1.02987 0.697344,1.67749 1.003451,1.67749 0.08786,0 0.925339,-0.65323 1.861042,-1.45163 z" />
  </g>
</svg>
