<svg role="img" viewBox="0 0 24 24" xmlns="http://www.w3.org/2000/svg">
  <path
    d="m9.93 12.418-.524.117-.424.269-.41.49-.192.435-.031.223-.03.223.214.228-.15.29.138.115-.058.29.136.283.135.284-.749.784-.305.644.004.724.107.204c.059.112.176.282.26.377l.152.174.245.124c.136.069.355.163.488.21v.001l.242.086.486.007.914-.286.265-.17c.146-.093.295-.17.33-.17s.12.042.188.095a.45.45 0 0 0 .187.097.7.7 0 0 1 .223.096l.158.096h.297l.228-.241.067-.181c.036-.1.07-.211.075-.249l.01-.068-.194-.15a18 18 0 0 0-.333-.249l-.138-.1.206-.551V16.5l.066-.025a2 2 0 0 1 .302-.06l.235-.034.151-.15c.084-.084.306-.293.495-.465l.344-.314v-.128l-.254.029c-.14.016-.514.037-.833.048l-.58.019-.24.055c-.134.03-.423.11-.644.18l-.401.124-.139.138v.202l.242.317.362.03-.01.137-.01.137-.115.138-.44-.466a9 9 0 0 1-.48-.537l-.041-.07.144-.129c.08-.07.225-.247.322-.394.098-.146.26-.371.363-.501l.185-.237.213-.675-.024-.184-.025-.184-.352-.58-.55-.344zm-.052 1.019.29.12.24.284v.307l-.186.305-.373.318c-.206.175-.39.318-.408.318-.067 0-.152-.142-.22-.367l-.068-.227v-.375l.065-.155a1.5 1.5 0 0 1 .196-.31l.13-.156Zm-.624 3.1.116.001.997.974-.024.062-.024.061-.212.103-.212.103-.621-.003-.097-.053a2 2 0 0 1-.302-.262l-.205-.21v-.13l.157-.145c.086-.08.218-.225.292-.323zM2.556 5l-1.497.28-.833.304-.226.24.016.57.206.479.21.196.539.2.233.249-.003.467c-.002.257-.02.814-.042 1.239l-.039.772.163.212.224.295.061.082-.03.08-.031.08-.128.028c-.07.015-.154.036-.187.046l-.06.019.001 2.779.036.049a.8.8 0 0 0 .17.136l.136.086-.015.13-.014.13-.29.048-.025.446-.025.445-.164.164-.605.072-.23.267.054.458.19.369.287.273.187.07H.824l.186.07 1.159-.048.459-.095c.511-.107.82-.207.978-.317l.105-.074h.362l.158-.067a5 5 0 0 1 .448-.15c.16-.044.42-.142.58-.216l.51-.237c.121-.056.254-.102.296-.102h.075l.12-.144-.066-.024a1 1 0 0 0-.235-.024c-.093 0-.234-.002-.314-.004-.314-.007-1.33.047-1.373.073l-.045.028-.416-.145-.495-.002-.121-.146-.394-.062-.221-.222V13.6l.149-.15.179-.045c.098-.026.32-.081.492-.124.407-.102 1.271-.447 2.012-.806L6 12.191l.378-.271a9 9 0 0 0 .619-.485c.133-.118.366-.36.519-.537l.277-.322.378-.773.125-.53-.01-.725-.161-.628-.463-.965L7.05 6.1l-.218-.193a3.6 3.6 0 0 0-.517-.36 6 6 0 0 0-.696-.31l-.396-.146-.929-.09Zm.8 1.397h.2l.335.294.08-.023c.045-.013.293-.049.552-.08l.47-.058.741.11.563.253.395.429.257.548v.869l-.13.277a4.6 4.6 0 0 1-.712 1.067l-.241.276.026.134.028.134-.148.122-.207-.11-.19.172.058.231-.155.237-.418-.063-.428.17v-.001l-.428.169-1.11.235-.073-.022a.33.33 0 0 1-.132-.098l-.06-.076.004-2.758.04-.764.04-.765.094-.128c.052-.071.174-.181.272-.246l.177-.116V6.7c0-.064.022-.158.05-.21zM18.41 17.6a4 4 0 0 1-.619-.146l-.342-.11-.286-.174a7 7 0 0 1-.534-.367l-.247-.193-.558-.657-.146-.275a4 4 0 0 1-.245-.589 9 9 0 0 1-.2-.868l-.103-.554.021-.219c.031-.315.168-1.015.302-1.55.134-.531.42-1.375.564-1.66.213-.424.75-1.277 1.08-1.714.191-.254.496-.614.679-.8.182-.187.483-.454.669-.594l.337-.256.801-.396 1.035-.007.458.185c.252.102.502.189.555.193l.097.008.048-.535.18-.274.53.063.523.247.336.317v.242c0 .133-.013.31-.03.393l-.03.15-.19.217-.19.216.06.099h.177l.223.18-.058.67c-.066.772-.115 1.14-.218 1.627-.04.191-.095.456-.12.588-.026.133-.083.401-.127.597l-.08.355-.239.473h-.084l-.029-.11a2 2 0 0 1-.03-.363v-.255l-.13-.312-.036-.625-.036-.624-.414-1.211-.416-.811-.346-.365-.268-.067-.211.08a3.4 3.4 0 0 0-.517.283l-.306.202-.9.912-.711 1.069-.338.7a12.7 12.7 0 0 0-.803 2.055l-.124.428-.03.364-.03.363-.225.272.07.138a1 1 0 0 0 .21.25l.137.113.13.226.128.227.458.468.468.226 1.077-.05.468-.152c.257-.083.592-.207.745-.274l.277-.123.172.045.277-.265.68-.26.09-.1a1 1 0 0 1 .217-.164l.126-.065.114-.27.274-.166c.15-.092.355-.24.454-.33l.182-.164.383-.607.144-.055.118.142-.053.107c-.03.059-.108.328-.173.599l-.118.491-.466.851-.646.646-.277.143-.186-.016-.269.531-1.037.646-.869.289-.377.051a3.4 3.4 0 0 1-1.057.004z"
    fill="#0003"
  />
</svg>
