<?xml version="1.0" encoding="UTF-8"?>
<svg xmlns="http://www.w3.org/2000/svg" width="100" height="100">
  <g transform="translate(26,0)" opacity="0.2">
    <path d="m 48.704122,68.745532 v -0.103534 c 0.155789,-0.183959 0.331177,-0.317074 0.517745,-0.41044 l -0.0308,0.09429 c -0.0728,0.255139 -0.237878,0.388254 -0.486956,0.419684 M 22.656641,15.255186 c 0.258398,-0.195052 0.496276,-0.286569 0.723894,-0.256988 0.0308,0 0.0625,-0.01017 0.103549,-0.04992 0.186568,-0.154377 0.351697,-0.195052 0.506545,-0.103534 -0.207088,0.30783 -0.486016,0.533387 -0.837712,0.68684 -0.713644,0.297661 -1.354529,0.65541 -1.933833,1.076019 -0.547596,0.389179 -1.116641,0.737683 -1.706205,1.045513 -0.0103,0.01017 -0.0411,0 -0.0719,-0.04067 0.775213,-0.728439 1.581196,-1.435617 2.439439,-2.100271 0.145528,-0.123871 0.373146,-0.184883 0.662334,-0.206144 0.0411,0 0.0728,-0.01017 0.113819,-0.05084 M 51.889794,2.0776561 c 0.330237,-0.13404 0.682854,-0.235726 1.054141,-0.328168 0.611024,-0.133115 1.190329,-0.255138 1.768714,-0.367917 0.341427,-0.06101 0.610085,-0.122947 0.816253,-0.184883 0.310647,-0.101685 0.590505,-0.09152 0.827463,0.02126 0.0523,0.09244 -0.0719,0.183034 -0.381547,0.286568 -1.520577,0.481621 -2.999164,1.014084 -4.467501,1.598314 -0.444976,0.174714 -0.889952,0.379934 -1.292948,0.604567 -0.433796,0.235726 -0.795743,0.533388 -1.096121,0.892061 -0.785483,0.153453 -1.417027,0.429853 -1.903053,0.870799 -0.0411,0.0416 -0.082,0.06194 -0.133399,0.09244 -0.248138,0.122947 -0.475756,0.256063 -0.703384,0.37901 -0.0932,0.06194 -0.176308,0.13404 -0.237867,0.20522 -0.114759,0.164546 -0.269608,0.266232 -0.455246,0.337412 -0.0205,0.01202 -0.0513,0 -0.0923,-0.01941 -0.0317,-0.02034 -0.0523,-0.02034 -0.0943,-0.02034 -0.0205,0.215389 -0.112869,0.368841 -0.289187,0.451114 -0.0103,0.0092 -0.0205,0.01941 -0.0205,0.06009 -0.351687,0.03143 -0.579315,0.195976 -0.693124,0.481621 -0.0523,0.13404 -0.154849,0.215388 -0.331157,0.267155 -0.0411,0.01941 -0.0821,0.01941 -0.123149,0.04068 -0.103549,0.03051 -0.134329,-0.02034 -0.0932,-0.17379 1.043871,-0.974334 2.130671,-1.916313 3.246371,-2.818541 0.207098,-0.163622 0.434716,-0.338336 0.652075,-0.501958 0.589564,-0.440021 1.220189,-0.840293 1.891853,-1.198966 0.661404,-0.360522 1.386238,-0.687765 2.151191,-0.974333 m 17.651695,0.605492 c -0.0308,-0.06194 -0.0728,-0.112779 -0.124069,-0.165471 -0.332097,-0.317074 -0.652084,-0.644317 -0.961782,-0.992821 -0.413266,-0.0416 -0.703383,-0.205221 -0.868502,-0.491789 -0.0103,-0.02034 -0.0215,-0.02034 -0.0625,-0.02034 -0.350757,-0.09244 -0.681924,-0.235726 -1.002822,-0.451115 -0.0205,-0.01017 -0.0308,-0.02958 -0.0308,-0.06009 -0.424457,-0.08227 -0.878763,-0.17379 -1.333999,-0.2764 -0.0728,-0.02126 -0.186578,-0.02126 -0.320907,0 -0.331167,0.05084 -0.620354,0.02958 -0.858232,-0.06194 -0.124069,-0.05084 -0.236958,-0.08135 -0.381547,-0.112778 -0.517735,-0.09152 -1.13903,-0.06101 -1.851734,0.112778 -0.155788,0.03051 -0.372216,0.04068 -0.641814,0 -0.247208,-0.0305 -0.486026,-0.01017 -0.702454,0.0721 -0.310647,0.112778 -0.693124,0.183958 -1.14836,0.225557 -0.527065,0.04067 -0.950591,0.01017 -1.261229,-0.103534 -0.125009,-0.04068 -0.248137,-0.06009 -0.392736,-0.07118 -1.086791,-0.03051 -1.964623,0.05269 -2.678257,0.246818 l -0.0625,0.01941 c -0.112869,-0.183959 -0.309707,-0.204296 -0.578375,-0.0721 -0.186568,0.09337 -0.393667,0.16547 -0.611025,0.195051 -0.899282,0.153453 -1.726734,0.368842 -2.470228,0.667428 -0.042,0.01941 -0.0728,0.05084 -0.0943,0.09152 -0.082,0.195051 -0.299447,0.277324 -0.640884,0.246819 -0.042,0 -0.0718,0.01109 -0.113809,0.0305 -0.557856,0.246819 -1.16794,0.595324 -1.850814,1.044589 -1.230439,0.789451 -2.389059,1.671342 -3.46373,2.613321 -1.07559,0.953072 -2.069092,1.978248 -2.988893,3.07368 -0.465506,0.563893 -0.951532,1.117618 -1.458068,1.6399119 -0.102619,0.101686 -0.196848,0.214464 -0.289197,0.327243 -0.868492,1.158292 -1.633446,2.397008 -2.265,3.76052 -0.102619,0.20522 -0.216428,0.367917 -0.351687,0.512126 -0.144599,0.134964 -0.247218,0.297662 -0.309707,0.48162 -0.258418,0.697009 -0.548536,1.321913 -0.899293,1.885807 -0.186568,0.305981 -0.361946,0.624904 -0.507475,0.96324 -0.144589,0.30783 -0.299457,0.573137 -0.496286,0.8292 -0.382476,-0.646166 -0.764953,-1.290483 -1.14743,-1.937574 -0.0317,-0.04067 -0.0523,-0.07118 -0.0932,-0.111854 -0.269607,-0.246819 -0.475766,-0.553724 -0.631554,-0.922566 -0.123129,-0.2764 -0.289188,-0.522294 -0.474826,-0.747852 -0.486026,-0.51305 -1.085861,-0.880967 -1.820024,-1.09728 -0.165119,-0.05084 -0.258398,-0.154377 -0.278928,-0.30783 -0.662334,0 -1.303218,0.03143 -1.954352,0.10261 h -0.124079 c -0.537326,0.0416 -0.962712,0.154377 -1.272419,0.317998 -0.196838,0.112779 -0.423526,0.163622 -0.682864,0.153453 -0.267728,0 -0.474826,0.04068 -0.620355,0.143285 -0.248138,-0.194127 -0.557855,-0.34758 -0.919802,-0.460359 0,0 -0.0112,-0.01109 -0.0112,-0.05269 -0.216428,0.0416 -0.526135,0.05269 -0.930061,0.05269 -0.319978,0 -0.692194,0.05084 -1.12691,0.163621 -1.592396,0.440946 -2.864835,1.209135 -3.794897,2.295323 -0.0205,0.04067 -0.0625,0.06009 -0.104479,0.101685 -1.095191,0.922567 -2.077492,1.967155 -2.935734,3.124523 -0.547596,0.748776 -1.107311,1.496628 -1.654906,2.254648 -0.433776,0.594399 -0.796663,1.240565 -1.10637,1.956986 -0.154869,0.368842 -0.361957,0.686841 -0.599835,0.964165 -0.0299,0.02866 -0.0616,0.08135 -0.0821,0.14236 -0.268658,0.738608 -0.620355,1.405111 -1.034551,2.008754 -0.042,0.06101 -0.0932,0.14236 -0.134329,0.224633 -0.217358,0.513974 -0.444976,1.015932 -0.681924,1.50772 -0.134339,0.265308 -0.279867,0.521371 -0.434716,0.746928 -0.155789,0.246819 -0.227628,0.430777 -0.186568,0.543556 0.0103,0.0721 0.0205,0.143284 0.0205,0.20522 -0.319977,0.164546 -0.505615,0.472376 -0.598904,0.912397 -0.0103,0.07118 -0.042,0.152529 -0.0625,0.234802 C 9.885696,31.618249 9.751357,31.854899 9.617018,32.060119 9.4519,31.649679 9.38941,31.239239 9.44071,30.819554 c 0.0523,-0.501957 0.0523,-1.015007 0,-1.527133 -0.0719,-0.901305 -0.102619,-1.895051 -0.0821,-2.97107 0.0205,-0.819956 0.0103,-1.496628 -0.0205,-2.050352 C 9.28581,23.350281 9.214051,22.396285 9.130082,21.402539 8.975233,19.599006 8.769065,17.785303 8.541447,15.971601 8.376328,14.761542 8.252249,13.50064 8.16923,12.179651 7.992922,11.770135 7.734514,11.441968 7.423867,11.174812 c -0.0196,-0.01017 -0.0513,-0.01941 -0.082,-0.01941 -0.248147,0.256063 -0.372226,0.635074 -0.350756,1.126862 0.0103,0.462208 -0.0112,0.840293 -0.0831,1.137031 -0.0523,0.296737 -0.103549,0.604567 -0.166038,0.902229 -0.0514,0.30783 -0.0616,0.674823 -0.0205,1.13703 0.0411,0.45019 -0.0205,0.716422 -0.206168,0.820881 -0.435646,-0.184883 -0.723894,-0.07211 -0.879693,0.327242 -0.154848,0.389179 -0.413256,0.646166 -0.775203,0.799619 -0.176308,0.37901 -0.331177,0.778358 -0.486955,1.198967 -0.0196,0.05084 -0.0607,0.09152 -0.133399,0.133115 -0.0728,0.04068 -0.134339,0.06194 -0.207098,0.10261 -0.154859,0.122948 -0.207099,-0.08227 -0.154859,-0.614736 0.0308,-0.297661 0.0513,-0.543556 0.0728,-0.716421 0.0205,-0.278249 -0.125009,-0.409516 -0.434726,-0.409516 -0.237878,0 -0.413256,0.04067 -0.516805,0.101686 l -0.0112,-0.101686 c -0.0299,-0.33926 -0.144589,-0.605492 -0.330237,-0.78945 -0.124069,-0.113703 -0.216428,-0.08227 -0.278928,0.07118 -0.434716,0.112778 -0.630624,0.491788 -0.569045,1.12871 0,0.04067 0,0.07026 -0.0103,0.111854 -0.0308,0.134041 -0.0411,0.255139 -0.0411,0.400272 -0.403937,0.214464 -0.723904,0.512126 -0.972052,0.901305 -0.0103,0.02126 -0.0215,0.02126 -0.0625,0.02126 -0.113819,0.922566 -0.227628,1.751767 -0.320908,2.469113 -0.0411,0.338335 -0.102629,0.768188 -0.195908,1.321913 -0.0625,0.451114 -0.0625,0.880967 0,1.332082 0,0.45019 0.0103,0.880967 0.0411,1.331157 0.0205,0.461283 -0.0308,0.830125 -0.144589,1.128711 v 0.100761 c 0,0.0416 0,0.06194 -0.0215,0.09337 C 0.0626,26.763223 0.0421,26.794663 0,26.835332 v 2.151113 0.10261 c 0.113809,0.358673 0.165119,0.808864 0.134339,1.332082 -0.0308,0.471452 -0.0719,0.921642 -0.134339,1.331158 0.113809,0.256063 0.185638,0.603643 0.185638,1.025176 0,1.238716 -0.0308,2.263892 -0.0821,3.072755 0,0.0416 0,0.06101 0.0103,0.10261 0.0411,0.143285 0,0.214465 -0.113809,0.205221 0.113809,0.707177 0.185638,1.44486 0.185638,2.253723 0.0112,0.603643 0.0215,1.015008 0.0625,1.240565 0.0934,0.490864 0.144599,0.902229 0.166058,1.218379 0.0205,0.37901 0.0718,0.717346 0.154849,1.014083 0.0513,0.154378 0.0625,0.369766 0.0308,0.635998 -0.0411,0.245894 -0.0411,0.491788 -0.0103,0.706253 0.113809,0.89206 0.196828,1.785045 0.258398,2.665088 0.0625,0.870799 0.134338,1.689831 0.217358,2.458944 0.0317,0.318923 0.0923,0.727514 0.165118,1.219303 0.0625,0.399347 0.0728,0.880968 0.0625,1.444861 -0.0112,0.287493 0.0205,0.533387 0.0923,0.738607 0.0112,0.02126 0.0112,0.04252 0.0112,0.07303 0.0308,0.297662 0.0513,0.707177 0.102609,1.229472 0.145529,1.844208 0.279867,3.688416 0.414206,5.554809 0.0616,0.983578 0.154849,1.945894 0.247208,2.859216 0.042,0.34758 0.0625,0.788526 0.0625,1.330233 0.0215,0.841217 0.0523,1.732353 0.10355,2.676181 0.0523,1.003915 0.114739,1.956987 0.207088,2.869384 v 0.08135 c 0.0728,0.840293 0.134339,1.702772 0.207098,2.582815 v 0.08227 c 0.0308,0.769113 0.0923,1.619575 0.175378,2.582815 0.0103,0.306906 0.0616,0.543556 0.124079,0.727515 0.0103,0.01941 0.0103,0.04067 0.0103,0.07118 0.0205,0.224633 0.0308,0.471451 0.0625,0.72659 0.0923,0.9845 0.185638,1.84513 0.247207,2.57265 0.0523,0.48162 0.084,0.89113 0.084,1.2193 0.0103,0.29581 0.0616,0.68684 0.154858,1.13703 0.123139,0.57314 0.216428,1.18787 0.299448,1.82387 0.0308,0.27733 0.083,0.54356 0.165118,0.81996 0.0625,0.18488 0.084,0.30783 0.0625,0.35867 -0.0411,0.0823 -0.0103,0.14328 0.113819,0.16455 -0.0831,0.27732 -0.0728,0.63599 0.0411,1.04551 0.0112,0.0194 0,0.0518 -0.0205,0.0924 -0.0205,0.0203 -0.0205,0.061 -0.0205,0.0915 0.083,0.14421 0.175378,0.31892 0.248138,0.49271 0.0103,0.0102 0.0308,0.0203 0.0616,0.0203 -0.0719,0.42985 -0.0719,0.83937 0.0205,1.24981 0.103549,0.46128 0.207098,0.8708 0.310647,1.23039 0.0616,0.19413 0.103549,0.37901 0.144589,0.57314 0.176318,0.81996 0.331167,1.68059 0.455246,2.58282 0.0728,0.44002 0.186568,0.83012 0.373137,1.1472 0.123148,0.20522 0.195908,0.47145 0.225758,0.78945 0.196828,1.7721 0.559715,3.41201 1.08679,4.91881 0.227618,0.61381 0.413256,1.30065 0.568115,2.0485 0.0523,0.21631 0.196838,0.35867 0.434716,0.42061 0.372207,-0.0508 0.528006,-0.32724 0.475756,-0.81996 -0.0103,-0.0407 -0.0103,-0.061 -0.0103,-0.10168 0.0308,-1.49663 0.0728,-3.00343 0.103549,-4.5093 0,-0.10261 0.0513,-0.0601 0.154859,0.10261 0.299447,0.61474 0.858242,0.73769 1.633455,0.36792 0.0103,-0.0111 0.0215,-0.0296 0.0215,-0.061 0.237888,-0.10261 0.340497,-0.33834 0.340497,-0.71642 0,-0.3596 0.0523,-0.73861 0.176319,-1.12779 0.289177,0.17379 0.434706,0.10261 0.423516,-0.2043 -0.0923,-1.9274 -0.216428,-3.81228 -0.361027,-5.64725 -0.166038,-1.88488 -0.279847,-3.80119 -0.351687,-5.72767 -0.042,-0.9013 -0.083,-1.78319 -0.124999,-2.66416 0.269598,0.75802 0.444976,1.61865 0.538256,2.56155 0.0933,0.93274 0.217358,1.8137 0.372216,2.67433 0.309718,1.71202 0.579315,3.48412 0.785474,5.30799 0.0103,0.0416 0.0103,0.0823 0.0205,0.12387 0.0215,0.50196 0.0831,0.95215 0.176299,1.34133 0.0514,0.21446 0.103549,0.44095 0.165118,0.6665 0.0103,0.0203 0.042,0.0416 0.0934,0.0619 0.113799,0.0508 0.227608,0.10168 0.331158,0.17379 0.630624,0.13404 1.10638,-0.0407 1.426357,-0.53339 0.0103,-0.0194 0.0215,-0.0508 0.0215,-0.0814 0.0728,-0.46128 0.103549,-1.04551 0.103549,-1.74252 v -0.10169 c 0.144589,-0.0823 0.236948,-0.25513 0.257458,-0.50288 0,-0.0102 0.0215,-0.0102 0.0523,-0.0102 0,-0.54263 -0.0308,-1.09635 -0.0831,-1.62881 -0.0103,-0.10262 -0.0411,-0.22556 -0.0616,-0.33834 v -0.0915 c 0.0513,-0.31892 0.0205,-0.63599 -0.0933,-0.94382 -0.124069,-0.29766 -0.165128,-0.56297 -0.134338,-0.79962 0.0103,-0.0194 -0.0103,-0.061 -0.0523,-0.0814 -0.102609,-0.0823 -0.112869,-0.23665 -0.0513,-0.44095 0,-0.0213 0.0103,-0.0518 0,-0.0934 -0.0103,-0.40951 -0.0719,-0.75709 -0.175378,-1.04551 -0.0411,-0.11278 -0.0411,-0.2043 0.0308,-0.27733 -0.0719,-0.17379 -0.144599,-0.33741 -0.237878,-0.49086 -0.0103,-0.0102 -0.042,-0.0203 -0.0728,-0.0203 0.0103,-0.57314 -0.0205,-0.98265 -0.0513,-1.23964 -0.0728,-0.50196 -0.227608,-0.91147 -0.465496,-1.2193 0.103549,-0.44003 0.114739,-0.81996 0.0103,-1.13703 -0.0718,-0.22464 -0.124069,-0.5944 -0.144599,-1.11762 -0.0317,-0.44002 -0.0923,-0.98265 -0.186568,-1.63806 -0.0513,-0.41969 -0.0709,-0.860635 -0.0709,-1.332086 0,-0.183035 -0.084,-0.286569 -0.228568,-0.307831 0.0523,-0.194127 0.113819,-0.366992 0.186589,-0.52137 0.0103,-0.0305 0.0205,-0.05269 0.0205,-0.09336 -0.083,-0.194128 -0.134329,-0.399348 -0.144589,-0.624905 -0.0103,-0.03051 -0.0103,-0.06009 0,-0.101686 0.0103,-0.17379 -0.083,-0.277324 -0.269598,-0.296737 0.176319,-0.13404 0.207088,-0.401196 0.0932,-0.809787 -0.0308,-0.143285 -0.0616,-0.37901 -0.0932,-0.717346 0,-0.01017 -0.0103,-0.01941 -0.0205,-0.05084 -0.0308,-0.09337 -0.0103,-0.163622 0.0728,-0.225557 0.0308,-0.03051 0.0411,-0.08227 0.0308,-0.143285 -0.0308,-0.266231 -0.0728,-0.656334 -0.124078,-1.136106 -0.0103,-0.09337 -0.0411,-0.328167 -0.10354,-0.697933 0,-0.04067 -0.0308,-0.07118 -0.0728,-0.10261 -0.0719,-0.07118 -0.0616,-0.183959 0.0523,-0.357749 0,0 0.0103,-0.03143 0,-0.0721 -0.0308,-0.491789 -0.0718,-0.902229 -0.113809,-1.229472 -0.042,-0.288417 -0.0513,-0.625829 -0.042,-1.015932 0,-0.07026 0,-0.17379 -0.009,-0.305981 -0.0103,-0.174715 -0.0523,-0.318923 -0.124069,-0.441871 0,-0.01017 0.0103,-0.04067 0.0308,-0.08135 0.0513,-0.08227 0.0411,-0.256063 -0.0308,-0.523219 -0.0317,-0.111854 -0.042,-0.295813 -0.042,-0.594399 0.0103,-0.358673 -0.0103,-0.768189 -0.0513,-1.229472 -0.0103,-0.195051 -0.0205,-0.368841 -0.0103,-0.512126 0.0103,-0.420608 -0.0308,-0.870798 -0.103549,-1.322837 -0.0728,-0.378086 -0.0728,-0.768189 -0.0205,-1.147199 0.0103,-0.02958 0,-0.06101 0,-0.10261 -0.0625,-0.367917 -0.103549,-0.808863 -0.124079,-1.310821 -0.0103,-0.288417 -0.042,-0.697009 -0.0933,-1.229472 -0.0205,-0.287493 -0.0513,-0.697008 -0.0616,-1.240564 -0.0103,-0.173791 -0.042,-0.317075 -0.113819,-0.440946 0,-0.01017 -0.0112,-0.04067 0,-0.08227 0.0299,-0.409516 0.0299,-0.819956 0,-1.229472 -0.0112,-0.03143 0,-0.06009 0,-0.101686 0.0616,-0.328167 0.0196,-0.585155 -0.103539,-0.748776 -0.0112,-0.01109 -0.0112,-0.02034 -0.0112,-0.06101 0,-0.368842 -0.0299,-0.758021 -0.0923,-1.137031 -0.0103,-0.03051 -0.0205,-0.05177 -0.0205,-0.05177 -0.113809,-0.17379 -0.134339,-0.306906 -0.0728,-0.37901 0.0728,-0.101686 0.103549,-0.296737 0.0932,-0.595323 -0.0103,-0.02958 0,-0.06009 0.0103,-0.101686 0.320898,-1.454105 0.703374,-2.97107 1.14743,-4.580476 0.0317,-0.101686 0.0523,-0.234801 0.0625,-0.429853 0.0103,-0.06194 0.0103,-0.143284 0.0103,-0.206145 0,-0.04067 -0.0205,-0.06101 -0.0513,-0.101685 0.185638,-0.194127 0.278928,-0.460359 0.258398,-0.820881 h -0.0513 c 0.278928,-0.34758 0.474826,-0.778357 0.588635,-1.320989 0.0523,-0.245894 0.113809,-0.502881 0.165119,-0.737683 0.0103,-0.06194 0.0317,-0.123871 0.042,-0.183958 0.0205,-0.07303 0.0513,-0.154378 0.0719,-0.236651 0,-0.01941 -0.0103,-0.0416 -0.0411,-0.08227 0.361957,-0.665578 0.652084,-1.41343 0.858243,-2.243555 0.0103,-0.0416 0.0317,-0.08227 0.0513,-0.123871 0.196848,-0.337412 0.331167,-0.707178 0.424456,-1.117618 0.0923,-0.41876 0.217358,-0.808863 0.361957,-1.157367 0,-0.01017 0.0103,-0.02958 0.0215,-0.07026 0.009,-0.225557 0.0709,-0.41044 0.195888,-0.554649 0.0308,-0.0416 0.0616,-0.09244 0.0719,-0.164546 0.0523,-0.214464 0.113809,-0.409516 0.207088,-0.562968 0.0513,-0.101686 0.0625,-0.195052 0.0411,-0.276401 0,-0.02034 0,-0.05177 0.0215,-0.09244 0.382477,-0.656335 0.712704,-1.364436 0.981382,-2.132625 0.135268,-0.367917 0.310647,-0.685916 0.538255,-0.973409 0.0308,-0.0416 0.0616,-0.09244 0.0831,-0.153453 0.309707,-0.697009 0.651144,-1.394018 1.002831,-2.059597 0.444976,-0.851386 0.900212,-1.700923 1.322799,-2.572646 0.084,-0.17379 0.186578,-0.306906 0.310647,-0.419685 0.103549,-0.08227 0.103549,-0.215389 0.0205,-0.389179 0.300377,-0.20522 0.548525,-0.471451 0.745363,-0.809787 0.207088,-0.368842 0.423517,-0.727515 0.681914,-1.045513 0.506546,-0.666504 1.002831,-1.332082 1.499117,-1.987492 0.0523,-0.07211 0.0728,-0.153453 0.0728,-0.256063 0.455246,-0.367918 0.941272,-0.707178 1.458078,-1.015008 0.278927,-0.163621 0.589564,-0.317999 0.910472,-0.440946 0.236948,-0.08135 0.486025,-0.122947 0.733233,-0.08135 0.196838,0.213539 0.301318,0.430777 0.279868,0.61566 -0.0103,0.141435 -0.0103,0.264383 0.0317,0.408591 0.206159,0.30783 0.371267,0.675748 0.474816,1.116694 0.0308,0.111854 0.0625,0.214464 0.103549,0.328167 0.113809,0.389179 0.207099,0.757096 0.289188,1.1056 0.0411,0.215389 0.0831,0.419685 0.125019,0.635998 0.133399,0.707177 0.278927,1.546546 0.412326,2.551385 0.0943,0.717346 0.186568,1.537302 0.290118,2.458944 0.0103,0.04067 0.0103,0.06193 0.0205,0.10261 0.0831,0.902229 0.155789,1.833115 0.207099,2.765849 0.0205,0.287493 0.0308,0.727515 0.0625,1.333007 0.0103,0.317074 0.0308,0.768188 0.0616,1.331157 0.0205,0.368842 0.0103,0.747852 -0.0103,1.127786 -0.0308,0.389179 -0.0411,0.727515 -0.0513,1.024252 -0.0317,0.942903 -0.0317,1.843284 -0.0112,2.664164 0,0.255139 -0.0103,0.666503 -0.0513,1.229472 -0.0205,0.400272 -0.0513,0.809787 -0.0821,1.230396 -0.0625,0.72659 -0.125009,1.588145 -0.196838,2.561554 -0.0103,0.256063 -0.0625,0.430777 -0.154859,0.542632 -0.135268,0.144208 -0.208028,0.37901 -0.238818,0.68684 0,0.0721 -0.0205,0.174714 -0.0308,0.30783 -0.134339,1.280315 -0.258408,2.581891 -0.392737,3.892711 0.186569,0.574062 0.599835,0.912398 1.240709,1.015008 0.0411,0 0.0625,0.01109 0.103549,0.01109 0.506556,-0.01109 0.847973,-0.195052 1.024291,-0.574062 0,-0.02958 0.0411,-0.05177 0.0923,-0.08135 0.0103,0 0.0205,-0.02126 0.0205,-0.06194 0.113819,-0.215389 0.166059,-0.522294 0.154869,-0.921642 0,-0.0416 0,-0.0721 0.0112,-0.10261 0.0205,-0.287493 0.0728,-0.522294 0.144589,-0.716421 0.217358,0.01941 0.290127,0.164546 0.195908,0.440021 -0.0616,0.184883 -0.102619,0.379935 -0.102619,0.58423 -0.0103,0.451115 -0.0317,0.831049 -0.042,1.137955 0,0.03051 -0.0103,0.05084 -0.0103,0.05084 -0.0821,0.16547 -0.134339,0.41044 -0.134339,0.75802 -0.0103,0.348505 0.154859,0.523219 0.506556,0.513051 0.290117,-0.09244 0.434716,-0.113703 0.444966,-0.09244 0.0513,0.306906 0.0616,0.604567 0.0205,0.901305 -0.0411,0.30783 -0.0103,0.51305 0.0625,0.614736 0.0923,0.153453 0.134329,0.329091 0.0923,0.523219 l 0.0317,0.04067 c 0.112879,0.17379 0.278938,0.306906 0.485096,0.367917 0.455246,0.174714 0.848913,0.112779 1.16888,-0.183034 0.0103,-0.01202 0.0308,-0.02126 0.0728,-0.02126 0.268658,-0.65541 0.423516,-1.31082 0.464566,-1.936649 0,-0.0092 0.0112,-0.0092 0.0523,-0.0092 0.392736,0.112778 0.548525,-0.195052 0.475755,-0.934584 -0.0103,-0.02958 -0.0103,-0.06009 0,-0.100761 0.124069,-0.922566 0.258408,-1.834039 0.434717,-2.747361 0.0616,-0.389179 0.134338,-0.809788 0.185638,-1.240565 0.237888,-1.802609 0.465506,-3.616311 0.692194,-5.430014 0.114739,-0.902229 0.218288,-1.82387 0.320907,-2.766773 0.125009,-1.137031 0.361947,-2.202881 0.682854,-3.17629 0.134329,0.409516 0.165119,0.86063 0.0728,1.34225 -0.042,0.266232 -0.083,0.542632 -0.103539,0.808863 -0.135269,1.86547 -0.279857,3.709678 -0.444976,5.532624 -0.0616,0.717346 -0.134339,1.394942 -0.186578,2.050352 -0.0513,0.666503 -0.134329,1.281239 -0.226688,1.844208 -0.0932,0.656335 -0.207098,1.271071 -0.310637,1.833115 -0.0616,0.33926 -0.0513,0.646166 0.0308,0.943828 0.113819,0.357748 0.290138,0.613811 0.548535,0.808863 0.351697,0.04067 0.630625,0.01017 0.836783,-0.08135 0.0317,-0.01202 0.0523,-0.02034 0.0932,-0.02034 0.300388,-0.451115 0.476706,-1.066775 0.507476,-1.845132 0.0103,-0.06194 0.0205,-0.143285 0.0411,-0.214465 0.195899,-0.870798 0.340487,-1.783196 0.424457,-2.755681 0.0103,-0.03143 0.0205,-0.0721 0.0205,-0.113703 0.144598,-0.460358 0.236957,-0.941978 0.299457,-1.423599 0.0103,-0.112778 -0.0205,-0.20522 -0.103549,-0.256063 l 0.0215,-0.06101 c 0.175378,-0.48162 0.216438,-1.06585 0.134338,-1.731429 0.216419,-0.03051 0.299458,-0.195052 0.257478,-0.512126 h 0.0523 c 0.0103,-0.749701 0.0934,-1.394942 0.268677,-1.957911 0.124999,-0.409516 0.227608,-0.849537 0.331157,-1.311745 0.0308,-0.164546 0.0523,-0.338336 0.0616,-0.522294 0.0317,-0.460359 0.0728,-0.768189 0.113809,-0.932735 0.165129,-0.65541 0.341437,-1.27107 0.506546,-1.844208 0,-0.0305 0.0103,-0.05177 0.0103,-0.09244 0.0112,-0.255139 0.0942,-0.460359 0.259338,-0.614736 0.0411,-0.338336 0.0616,-0.532463 0.0821,-0.604567 0.0103,-0.112779 0.0317,-0.214465 0.0317,-0.317999 0.0308,-0.306906 0.082,-0.553725 0.175379,-0.72659 0.042,-0.08227 0.0831,-0.247744 0.134328,-0.501958 0.166059,-0.912397 0.310648,-1.661173 0.444977,-2.244479 0.0411,-0.174715 0.0719,-0.359598 0.0932,-0.522295 0.112869,-0.738607 0.268667,-1.528057 0.464566,-2.357258 0.104479,-0.491788 0.238818,-0.96324 0.403936,-1.414355 0.0615,-0.153452 0.124069,-0.30783 0.196828,-0.451114 0.112869,-0.24497 0.134339,-0.440022 0.0411,-0.593474 0.372227,-0.410441 0.599835,-0.994671 0.661404,-1.742523 0.0103,-0.03143 0.0205,-0.07118 0.042,-0.111854 0.299457,-0.635997 0.568115,-1.283088 0.795743,-1.947742 0.134339,-0.37901 0.290117,-0.716422 0.465496,-1.015008 0.196828,-0.317074 0.268667,-0.62398 0.207098,-0.921641 0.371277,-0.205221 0.557855,-0.470528 0.568115,-0.819032 0,-0.0416 0.0103,-0.07303 0.0411,-0.113703 0.403926,-0.635998 0.776143,-1.301576 1.12783,-1.998585 0.165118,-0.327243 0.319977,-0.675748 0.465506,-1.055682 0.0103,-0.04067 0.0308,-0.08227 0.0616,-0.122947 0.817193,-1.209135 1.695945,-2.34709 2.647477,-3.432353 0.248138,-0.297662 0.496285,-0.605492 0.734153,-0.912398 0.0308,-0.0416 0.0831,-0.05177 0.145529,-0.05177 h 0.102619 c -0.0103,-0.255138 0.042,-0.440021 0.186578,-0.542631 0.0103,-0.01941 0.0205,-0.03051 0.0205,-0.07118 1.17914,-0.861555 2.450639,-1.588145 3.835947,-2.2139739 0.0625,-0.03143 0.124068,-0.05177 0.175378,-0.08135 0.672594,-0.348504 1.469257,-0.585154 2.399339,-0.717346 0.0317,-0.01017 0.0728,-0.01017 0.113799,-0.02126 0.444976,-0.132192 0.817193,-0.195052 1.12784,-0.195052 0.547585,0 0.930062,-0.05916 1.17914,-0.17379 0.0401,-0.02034 0.102619,-0.03051 0.165118,-0.03051 0.826523,0.01017 1.446877,0.10261 1.829344,0.235725 0.124079,0.0416 0.248148,0.0416 0.373157,-0.01017 0.113809,-0.05084 0.216418,-0.05084 0.299447,-0.02126 0.207098,0.09429 0.403937,0.144209 0.610095,0.16547 0.145529,0.01941 0.206168,0.09244 0.195898,0.195052 0.238818,0.153453 0.383407,0.37901 0.445916,0.7164219 0.0411,0.256063 0.143659,0.595323 0.299448,1.025176 0.506545,1.393093 0.805992,3.033005 0.909542,4.917887 0.0317,0.757096 0,1.638988 -0.0932,2.653071 0,0.07118 0,0.184883 0.0317,0.318923 0.0718,0.470528 0.0513,0.891136 -0.0523,1.249809 -0.0616,0.194128 -0.0923,0.389179 -0.113809,0.595324 -0.0728,0.932734 -0.133399,1.79244 -0.206159,2.561553 -0.186578,1.895051 -0.486025,3.637573 -0.900222,5.225718 -0.216428,0.819956 -0.392736,1.638063 -0.537325,2.469113 -0.0411,0.225557 -0.103549,0.389178 -0.195908,0.501957 -0.113809,0.153453 -0.186569,0.389179 -0.196829,0.717346 -0.0103,0.101685 -0.0317,0.20522 -0.0625,0.317999 -0.134329,0.399347 -0.248138,0.768188 -0.341417,1.085263 -0.0411,0.163621 -0.0923,0.338336 -0.134339,0.543556 -0.0616,0.235726 -0.0513,0.41044 0.0103,0.512126 -0.309717,0.585154 -0.548525,1.230396 -0.723904,1.946817 -0.195908,0.830125 -0.433786,1.588145 -0.734163,2.295323 -0.0933,0.214464 -0.175379,0.419684 -0.248148,0.595323 -0.278927,0.75802 -0.568115,1.516041 -0.836783,2.243555 -0.559725,1.476291 -1.11664,2.950733 -1.665165,4.407611 -0.237878,0.62398 -0.496286,1.218378 -0.796663,1.772103 -0.0411,0.0721 -0.0719,0.164546 -0.113819,0.255139 -0.0513,0.123871 -0.134319,0.235725 -0.257468,0.318923 0.0616,0.100761 0.0616,0.2764 0.009,0.512126 -0.009,0.04067 -0.009,0.06101 -0.009,0.101685 -0.228548,0.07211 -0.383406,0.245895 -0.466426,0.502882 0,0.01017 -0.0103,0.01017 -0.0513,0.01017 -0.0103,0.225557 -0.103539,0.408591 -0.259328,0.553724 -0.0821,0.06101 -0.123139,0.153453 -0.133399,0.266232 -0.0215,0.337411 -0.103549,0.604567 -0.268667,0.778357 -0.114739,0.13404 -0.207098,0.278249 -0.290118,0.44187 -0.0205,0.0416 -0.0513,0.07118 -0.0822,0.101686 -0.166039,0.10261 -0.166039,0.214464 0,0.317999 -0.466436,0.574061 -0.847973,1.218379 -1.1894,1.927405 -0.144598,0.317074 -0.300387,0.624904 -0.455236,0.952147 -0.207098,0.409516 -0.392736,0.820881 -0.579314,1.240565 -0.0308,0.09152 -0.0719,0.17379 -0.113809,0.255139 -0.0308,0.05269 -0.0616,0.10261 -0.10355,0.164546 -0.0923,0.111854 -0.195898,0.23665 -0.289187,0.337411 -0.185638,0.235726 -0.248138,0.451115 -0.165119,0.65541 -0.465495,0.563893 -0.879682,1.198966 -1.231379,1.907068 -0.0719,0.164546 -0.154858,0.327243 -0.236948,0.491789 -0.185648,0.358673 -0.403006,0.666503 -0.662344,0.922566 -0.082,0.06009 -0.113799,0.17379 -0.134329,0.357749 -0.0103,0.0721 -0.0308,0.154377 -0.082,0.23665 -0.765883,1.270146 -1.551356,2.510711 -2.358289,3.730014 -0.796663,1.218379 -1.582136,2.438607 -2.34802,3.678247 -0.0923,0.143285 -0.195908,0.246819 -0.309717,0.328168 -0.0718,0.04067 -0.0616,0.153453 0.0205,0.337411 -0.319977,0.195976 -0.578385,0.45019 -0.775213,0.78945 -0.361947,0.656335 -0.776143,1.270147 -1.230449,1.83404 -0.175379,0.20522 -0.320908,0.440946 -0.454306,0.717346 -0.166059,0.317998 -0.383417,0.603643 -0.652075,0.839369 -0.176308,0.143284 -0.372216,0.246818 -0.620364,0.317998 -0.165119,0.03051 -0.237878,0.174715 -0.196828,0.419685 0.351696,0.215388 0.475755,0.492713 0.372206,0.809787 -0.0103,0 -0.0205,0.01109 -0.0616,0.01109 -0.175379,0.295816 -0.341417,0.603646 -0.476686,0.932736 -0.0299,0.061 -0.0513,0.11278 -0.0821,0.17379 0,0.012 -0.0205,0.0203 -0.0625,0.0203 -0.527065,0.15438 -0.940332,0.43078 -1.209919,0.83012 -0.0196,0.0305 -0.0308,0.0518 -0.0308,0.0924 -0.0923,0.318 -0.0411,0.62491 0.186568,0.94291 0.0103,0.0203 0.0205,0.0518 0.0205,0.0814 0.0932,0.22648 0.258398,0.36976 0.506546,0.44187 0.042,0.0102 0.0728,0.0416 0.103549,0.0823 0.207098,0.21539 0.548515,0.2764 1.044801,0.19412 0.423526,-0.13311 0.744433,-0.34758 0.982311,-0.64431 0.0411,-0.0518 0.0616,-0.10261 0.0923,-0.14329 0.176309,-0.26623 0.352627,-0.52229 0.507476,-0.78945 0.175378,-0.29766 0.340497,-0.52137 0.485096,-0.67575 0.176308,-0.16454 0.383406,-0.29766 0.631554,-0.40119 0.0308,0 0.0513,-0.0102 0.0932,-0.0102 0.785463,-1.239641 1.592396,-2.447851 2.440379,-3.62648 0.0308,-0.0416 0.0513,-0.07211 0.0923,-0.102611 0.237888,-0.215388 0.373147,-0.400271 0.444976,-0.543556 0.155799,-0.399347 0.361957,-0.75802 0.620365,-1.075094 0.207098,-0.277325 0.413256,-0.554649 0.589574,-0.851386 l 0.0513,0.05177 c 0.0103,0.358673 -0.112879,0.675747 -0.361947,0.96324 -0.0411,0.04068 -0.0616,0.09337 -0.0923,0.153453 -0.0728,0.183959 -0.154849,0.359598 -0.269598,0.522295 -0.371276,0.553724 -0.713643,1.136106 -1.04388,1.731429 -0.124069,0.225557 -0.268668,0.420609 -0.444967,0.585155 -0.268677,0.286568 -0.464575,0.635073 -0.578384,1.064926 -0.414197,0.101685 -0.673535,0.367919 -0.765884,0.809789 -0.0923,0.39934 -0.258407,0.73768 -0.506545,0.99282 -0.341427,0.39103 -0.630625,0.83012 -0.858233,1.34317 -0.0317,0.0518 -0.0616,0.11186 -0.103559,0.16455 -0.268667,0.34758 -0.671654,0.50196 -1.179139,0.4807 -0.195899,0.53338 -0.009,0.88189 0.528005,1.01408 0.0308,0 0.0513,0.012 0.0932,0.012 0.423526,0.0823 0.754703,-0.0721 0.992571,-0.48162 0.124079,-0.20522 0.247208,-0.40859 0.392737,-0.62491 0.0513,-0.10261 0.176318,-0.0619 0.372217,0.0814 0.320907,0.0416 0.341437,0.23665 0.0514,0.57406 -0.185638,0.21539 -0.372217,0.43078 -0.569055,0.65634 -0.247208,-0.13312 -0.485076,-0.11278 -0.743493,0.0712 -0.196829,0.15438 -0.331157,0.36884 -0.393667,0.64524 0.0625,0.37901 0.186569,0.69701 0.393667,0.94383 0.0103,0.0203 0.0205,0.0508 0.0205,0.0814 0.319977,0.19505 0.703383,0.33833 1.13716,0.40027 0.042,0.0102 0.0625,0.0102 0.103549,0.0102 0.465506,-0.0518 0.817192,-0.21446 1.06533,-0.49086 0.0103,-0.0111 0.0308,-0.0194 0.0728,-0.0194 0.0616,-0.39103 0.216418,-0.67668 0.485085,-0.86248 0.0625,-0.0407 0.103549,-0.0924 0.144599,-0.15346 0.166049,-0.31707 0.414196,-0.53246 0.745364,-0.65541 0.0923,-0.0416 0.154848,-0.12294 0.165118,-0.25514 0.0103,-0.0527 0.0205,-0.10261 0.0523,-0.15437 0.185628,-0.40952 0.486025,-0.71735 0.888082,-0.89206 0.300387,0.22463 0.631554,0.16454 0.962711,-0.17379 0.103549,-0.10169 0.185649,-0.21447 0.247218,-0.35868 0.134329,-0.27732 0.300388,-0.53246 0.497216,-0.74877 0.237878,-0.26623 0.444046,-0.5944 0.599835,-0.96324 0.0103,-0.0407 0.0308,-0.0823 0.0719,-0.12295 0.475756,-0.54263 0.920732,-1.126861 1.323728,-1.742521 0.372207,-0.562969 0.744424,-1.127787 1.106381,-1.690755 0.144588,-0.224633 0.290117,-0.45019 0.414196,-0.685916 0.0411,-0.05084 0.0616,-0.09244 0.103549,-0.133116 0.102609,-0.13404 0.196828,-0.277325 0.277988,-0.44187 0.0215,-0.04067 0.0523,-0.0721 0.0942,-0.10261 0.134329,-0.07026 0.124079,-0.17379 -0.0103,-0.317075 0.309717,-0.214464 0.557855,-0.48162 0.733233,-0.809787 0.352627,-0.666503 0.755624,-1.301577 1.17914,-1.895975 0.444986,-0.593475 0.858232,-1.219304 1.240709,-1.864545 0.196838,-0.317999 0.382477,-0.635998 0.569055,-0.963241 0.320897,-0.543556 0.620355,-1.088036 0.931002,-1.639912 0.0932,-0.153453 0.175378,-0.317074 0.258408,-0.48162 0.216418,-0.37901 0.474815,-0.738608 0.775203,-1.056606 0.042,-0.317075 0.0625,-0.522295 0.0932,-0.624905 0.0103,-0.03051 0.0103,-0.05177 0.0103,-0.09244 0.507485,-0.522295 0.889022,-1.168461 1.17914,-1.93665 0.0616,-0.184883 0.154858,-0.358673 0.248147,-0.533387 0.744424,-1.290483 1.447808,-2.613321 2.119472,-3.974984 0.661404,-1.343175 1.344258,-2.685426 2.037382,-4.017508 0.651134,-1.259977 1.240709,-2.552309 1.788304,-3.873298 0.290118,-0.727515 0.569045,-1.444861 0.837713,-2.18162 0.279857,-0.779281 0.569045,-1.527133 0.847972,-2.245403 0.589575,-1.454105 1.14836,-2.920227 1.685696,-4.395594 0.134328,-0.389178 0.269597,-0.769113 0.392736,-1.13703 0.113809,-0.348504 0.176309,-0.68684 0.186568,-1.015008 0,-0.04067 0.0103,-0.07118 0.042,-0.112778 0.319977,-0.542632 0.557855,-1.177705 0.703384,-1.926481 0.0718,-0.30783 0.144589,-0.614736 0.247208,-0.932735 0.124079,-0.367917 0.154848,-0.674823 0.0932,-0.921641 0.258398,-0.225558 0.351697,-0.471452 0.278927,-0.737683 -0.0205,-0.102611 0,-0.183959 0.0831,-0.245895 0.0411,-0.03051 0.0513,-0.08227 0.0513,-0.143284 -0.0205,-0.297662 0.0625,-0.656335 0.249078,-1.055682 0.009,-0.02034 0.009,-0.03143 0.009,-0.06101 0.0719,-0.348505 0.145529,-0.697934 0.207098,-1.046438 0.124079,-0.553725 0.258408,-1.097281 0.403007,-1.618651 0.0625,-0.256063 0.113809,-0.522294 0.113809,-0.830124 0,-0.06009 0.0103,-0.112779 0.042,-0.153453 0.0625,-0.112779 0.134329,-0.235726 0.217348,-0.358673 -0.103549,-0.34758 -0.0932,-0.717346 0.0411,-1.148124 0.0103,-0.01941 0.0103,-0.04067 0.0205,-0.07118 0.124059,-0.420608 0.145519,-0.757095 0.083,-1.023327 -0.0317,-0.113703 0,-0.266231 0.0923,-0.461283 0.0112,-0.0416 0.0205,-0.10261 0,-0.16547 -0.0196,-0.101686 -0.0299,-0.204296 -0.0299,-0.306906 0.236957,-0.01941 0.299447,-0.13404 0.164188,-0.348504 -0.009,-0.01017 0,-0.02958 0.0317,-0.06009 0.103549,-0.144209 0.0923,-0.288418 -0.0411,-0.461283 0,0 0.009,-0.01109 0.0513,-0.05084 0.154848,-0.154378 0.165108,-0.339261 0.0616,-0.545405 -0.0103,-0.01941 0,-0.04067 0.0317,-0.07026 0.165118,-0.23665 0.195908,-0.472376 0.0719,-0.748776 -0.0103,-0.01017 0.0103,-0.03143 0.0513,-0.06009 0.134339,-0.0721 0.144599,-0.195976 0.0728,-0.360522 -0.0205,-0.04067 -0.0205,-0.101685 0,-0.163621 0.0719,-0.368842 0.103549,-0.675747 0.0719,-0.921642 -0.0103,-0.113703 0.042,-0.184883 0.155788,-0.20522 -0.195898,-0.256063 -0.207088,-0.451114 -0.0513,-0.563893 v -0.05084 c -0.0523,-0.41044 0,-0.7497 0.154858,-1.025176 0.0103,-0.122947 -0.0411,-0.266231 -0.144598,-0.45019 -0.0103,-0.01017 0,-0.03051 0.0205,-0.07118 0.134329,-0.246819 0.195899,-0.595323 0.186569,-1.015932 0,-0.255139 0,-0.419684 -0.0112,-0.512126 -0.0205,-0.533387 -0.0308,-0.973409 -0.0308,-1.332082 0,-0.153453 -0.0205,-0.317999 -0.0718,-0.501957 -0.0625,-0.2764 -0.0728,-0.501957 -0.042,-0.65541 0.042,-0.122948 0.0308,-0.236651 -0.0616,-0.327243 v -0.05269 c -0.0317,-0.96324 -0.155779,-1.843283 -0.351687,-2.663239 -0.217358,-0.8513869 -0.434716,-1.5678079 -0.681934,-2.1732999 -0.155789,-0.37901 -0.320907,-0.748776 -0.486946,-1.09728 -0.175378,-0.327213 -0.350757,-0.674793 -0.547605,-1.003885 -0.186569,-0.317999 -0.361947,-0.656335 -0.527986,-1.024252 -0.165128,-0.367917 -0.372226,-0.697009 -0.610104,-0.99467 -0.361017,-0.429853 -0.712704,-0.880968 -1.033611,-1.361663" />
  </g>
</svg>
