<svg role="img" viewBox="0 0 24 24" xmlns="http://www.w3.org/2000/svg">
  <path
    d="M13.846 16.499v-.025a.4.4 0 0 1 .126-.098l-.007.022a.13.13 0 0 1-.119.101M7.51 3.661q.094-.07.176-.061.011 0 .025-.012.068-.057.124-.025a.46.46 0 0 1-.204.165q-.26.107-.47.258a4 4 0 0 1-.415.25q-.005.005-.018-.009.282-.264.593-.504c.036-.03.091-.044.162-.05q.014.002.027-.012M14.621.5c.08-.033.166-.057.256-.08.15-.031.29-.06.43-.087q.125-.023.2-.045a.27.27 0 0 1 .2.005q.02.033-.092.07-.553.172-1.087.383a3 3 0 0 0-.314.145.9.9 0 0 0-.267.214.94.94 0 0 0-.463.209q-.015.013-.032.022-.09.046-.171.091a.3.3 0 0 0-.058.05.23.23 0 0 1-.111.08q-.008.003-.023-.004c-.008-.005-.012-.005-.022-.005q-.007.077-.07.108-.005.002-.006.014-.127.012-.168.116-.018.047-.081.064c-.01.005-.02.005-.03.01q-.038.012-.023-.042.382-.351.79-.676c.05-.04.106-.081.159-.12q.214-.159.46-.289c.16-.086.337-.165.523-.233m4.294.145a.2.2 0 0 0-.03-.04 4 4 0 0 1-.234-.238q-.15-.015-.212-.118-.002-.006-.015-.005a.8.8 0 0 1-.244-.108Q18.173.13 18.173.12C18.07.1 17.96.08 17.85.054a.2.2 0 0 0-.078 0 .4.4 0 0 1-.209-.015.5.5 0 0 0-.093-.027 1.1 1.1 0 0 0-.45.027.5.5 0 0 1-.156 0 .36.36 0 0 0-.171.017 1.2 1.2 0 0 1-.28.055.8.8 0 0 1-.306-.025.4.4 0 0 0-.096-.017 2.3 2.3 0 0 0-.651.059l-.016.005q-.041-.067-.14-.018a.5.5 0 0 1-.149.047q-.33.055-.6.16a.05.05 0 0 0-.024.022q-.03.07-.156.06a.1.1 0 0 0-.027.007 3 3 0 0 0-.45.25c-.3.19-.582.402-.843.628a7 7 0 0 0-.727.737 7 7 0 0 1-.355.394 1 1 0 0 0-.07.078 5 5 0 0 0-.551.903.5.5 0 0 1-.085.123.3.3 0 0 0-.076.116 2.5 2.5 0 0 1-.219.452q-.069.11-.123.231a1 1 0 0 1-.12.2l-.28-.466q-.01-.013-.023-.027a.6.6 0 0 1-.153-.221.8.8 0 0 0-.116-.18 1 1 0 0 0-.442-.263q-.06-.018-.068-.074-.24 0-.476.025h-.03a.8.8 0 0 0-.31.076.3.3 0 0 1-.165.037.26.26 0 0 0-.151.034.7.7 0 0 0-.224-.11q-.002.001-.003-.013-.08.014-.226.013-.117-.001-.274.04-.583.159-.924.55c-.005.01-.015.015-.025.025a4.5 4.5 0 0 0-.714.75c-.133.18-.27.359-.403.54a2.4 2.4 0 0 0-.269.47.9.9 0 0 1-.146.232.1.1 0 0 0-.02.034q-.099.265-.251.482a1 1 0 0 0-.033.054 8 8 0 0 1-.166.362 2 2 0 0 1-.105.179c-.038.06-.056.103-.046.13q.004.027.005.05c-.078.04-.123.113-.146.219-.002.017-.01.036-.015.056a1 1 0 0 1-.09.167.6.6 0 0 1-.043-.297q.02-.181 0-.367a7 7 0 0 1-.02-.713q.006-.294-.005-.492a25 25 0 0 0-.05-.688 33 33 0 0 0-.144-1.304q-.06-.435-.09-.91a.66.66 0 0 0-.182-.241.1.1 0 0 0-.02-.005q-.091.094-.085.27.004.167-.02.274c-.013.07-.025.145-.04.216a1 1 0 0 0-.005.273q.016.16-.05.197-.159-.066-.215.079a.33.33 0 0 1-.188.191c-.043.091-.08.187-.119.288q-.006.018-.032.032c-.018.01-.033.015-.05.025q-.056.045-.038-.148l.018-.172q.008-.098-.106-.098-.087.002-.126.024l-.003-.024a.3.3 0 0 0-.08-.19q-.045-.04-.068.018-.16.041-.138.27 0 .014-.002.027a.4.4 0 0 0-.01.096.6.6 0 0 0-.237.217q-.001.006-.015.005-.043.333-.078.592c-.01.082-.025.185-.048.318a1.1 1.1 0 0 0 0 .32c0 .107.002.21.01.319q.007.165-.035.27v.025q.001.013-.005.022A.1.1 0 0 1 2 6.44v.541q.043.13.033.32a4 4 0 0 1-.033.32.6.6 0 0 1 .046.246q0 .446-.02.737c0 .01 0 .015.002.025q.014.052-.028.049c.028.17.045.347.045.54.003.146.005.244.015.299q.034.177.04.292.008.136.038.243a.4.4 0 0 1 .007.153.5.5 0 0 0-.002.17q.041.322.063.64.023.312.053.59.013.114.04.292.021.143.015.347a.5.5 0 0 0 .023.177q.004.007.003.017c.007.072.012.17.025.296q.052.662.1 1.333.025.356.06.686.015.125.016.32a21 21 0 0 0 .075 1.33v.02q.026.302.05.62v.02q.013.274.043.62c.002.073.015.13.03.174q.004.006.003.017c.005.054.007.113.015.174.022.236.045.443.06.618q.02.173.02.292c.002.071.015.165.038.273q.044.208.073.438.01.098.04.197.022.067.015.086-.016.03.028.04a.45.45 0 0 0 .01.25q.004.008-.005.022c-.005.005-.005.015-.005.022.02.035.043.077.06.119q.003.003.015.004a.8.8 0 0 0 .005.3q.037.167.076.296.021.068.035.137.065.296.11.62.025.16.091.275.045.075.055.19.073.638.265 1.18.082.223.138.492.02.078.106.101.135-.019.115-.197c-.002-.01-.002-.014-.002-.024q.012-.54.025-1.082 0-.036.038.024c.073.148.209.177.397.089a.02.02 0 0 0 .005-.015q.085-.036.083-.172-.001-.13.043-.27.106.061.103-.05a44 44 0 0 0-.088-1.355q-.06-.68-.085-1.375l-.03-.64q.097.276.13.616.034.333.09.641.115.618.192 1.274.002.015.005.03.008.181.043.322.018.079.04.16.003.008.023.015a.5.5 0 0 1 .08.042q.231.049.347-.128a2.755 2.755 0 0 0 .03-.438v-.025q.054-.03.063-.12 0-.004.013-.003c0-.13-.007-.263-.02-.39-.003-.025-.01-.055-.016-.082v-.022a.44.44 0 0 0-.022-.226.37.37 0 0 1-.033-.192c.002-.005-.002-.015-.013-.02q-.036-.03-.012-.106.002-.007 0-.022a.8.8 0 0 0-.043-.25q-.017-.042.007-.067a1 1 0 0 0-.058-.118q-.005-.005-.017-.005a2 2 0 0 0-.013-.298.6.6 0 0 0-.113-.292.5.5 0 0 0 .002-.273 1 1 0 0 1-.035-.268 6 6 0 0 0-.046-.394 3 3 0 0 1-.017-.32q-.001-.065-.055-.073a1 1 0 0 1 .045-.125q.004-.01.005-.023a.4.4 0 0 1-.035-.174q.003-.064-.066-.071.064-.048.023-.195a2 2 0 0 1-.023-.172l-.005-.012q-.011-.033.018-.054.011-.012.007-.034l-.03-.273a3 3 0 0 0-.025-.168q0-.014-.018-.024-.028-.024.013-.086.001-.002 0-.017a4 4 0 0 0-.028-.296q-.015-.104-.01-.243 0-.026-.002-.074a.2.2 0 0 0-.03-.106q0-.004.007-.02.018-.029-.007-.125a.6.6 0 0 1-.01-.143 3 3 0 0 0-.013-.295q-.005-.07-.002-.123c.002-.1-.007-.209-.025-.317a.8.8 0 0 1-.005-.275q.002-.01 0-.025a3 3 0 0 1-.03-.315 5 5 0 0 0-.023-.295c-.005-.069-.013-.167-.015-.297a.2.2 0 0 0-.028-.106c0-.003-.003-.01 0-.02a2 2 0 0 0 0-.295c-.003-.008 0-.014 0-.024q.021-.12-.025-.18c-.003-.003-.003-.005-.003-.015 0-.088-.007-.182-.022-.273l-.005-.012q-.041-.064-.018-.091.027-.036.023-.143-.002-.01.002-.024c.078-.35.17-.713.279-1.1a.4.4 0 0 0 .015-.103q.002-.024.002-.05c0-.01-.005-.014-.013-.024q.07-.068.063-.197h-.012a.7.7 0 0 0 .143-.317l.04-.177c.002-.015.008-.03.01-.044q.009-.026.018-.057.001-.005-.01-.02.133-.24.208-.538.004-.015.013-.03a1 1 0 0 0 .103-.268q.035-.151.088-.278l.005-.017a.2.2 0 0 1 .048-.133.1.1 0 0 0 .017-.04.5.5 0 0 1 .05-.134.1.1 0 0 0 .01-.067q-.002-.007.006-.022.14-.235.239-.512a.8.8 0 0 1 .13-.233.2.2 0 0 0 .02-.037c.076-.167.16-.335.245-.494.108-.205.219-.409.321-.618a.3.3 0 0 1 .076-.1q.036-.03.005-.094a.6.6 0 0 0 .181-.194q.073-.135.166-.251l.365-.477a.1.1 0 0 0 .018-.062q.166-.133.354-.243a1.5 1.5 0 0 1 .222-.106c.057-.02.118-.03.178-.02.048.052.073.104.068.148a.3.3 0 0 0 .008.098q.076.11.116.268a5.081 5.081 0 0 1 .096.344l.03.153c.032.17.067.371.1.612q.034.259.07.59l.006.025q.03.327.05.664c.005.069.007.174.015.32q.003.115.015.32.006.133-.002.27-.01.14-.012.246-.011.341-.003.64.002.091-.013.294-.008.144-.02.296-.022.262-.048.614-.004.092-.037.13-.048.054-.058.165c0 .018-.005.042-.007.074q-.048.462-.096.935.069.205.302.243c.01 0 .015.003.025.003q.185-.003.25-.138c0-.007.01-.012.022-.02q.004 0 .005-.014a.45.45 0 0 0 .038-.222q0-.014.003-.024a.6.6 0 0 1 .035-.172q.08.008.047.105a.4.4 0 0 0-.025.14q-.005.163-.01.274-.001.011-.002.012a.4.4 0 0 0-.032.182q-.004.127.123.123.104-.031.108-.022a.7.7 0 0 1 .005.216c-.01.074-.002.123.015.148a.17.17 0 0 1 .023.125l.008.01a.2.2 0 0 0 .118.088q.166.063.284-.044.002-.004.018-.005.098-.237.113-.464 0-.004.012-.003.143.042.116-.224a.1.1 0 0 1 0-.024q.043-.331.106-.66c.015-.093.033-.194.045-.297q.086-.65.168-1.303.042-.325.078-.664.047-.411.167-.763a.63.63 0 0 1 .017.322q-.016.097-.025.195-.049.671-.108 1.327-.024.258-.046.492-.02.24-.055.443c-.022.158-.05.305-.075.44a.5.5 0 0 0 .007.227c.027.085.07.147.133.194a.4.4 0 0 0 .204-.02c.008-.003.012-.005.022-.005a.85.85 0 0 0 .124-.443l.01-.051q.072-.313.103-.661.004-.012.005-.028.051-.167.073-.341.004-.042-.025-.062l.005-.014a.9.9 0 0 0 .032-.416q.079-.01.063-.123h.013a1.6 1.6 0 0 1 .065-.47q.044-.148.08-.315a1 1 0 0 0 .016-.125 1.5 1.5 0 0 1 .027-.224q.061-.236.123-.442l.002-.023a.2.2 0 0 1 .064-.147c.01-.081.014-.128.02-.145.001-.027.007-.052.007-.077a.5.5 0 0 1 .043-.174q.014-.03.033-.12.06-.33.108-.54.014-.064.023-.124.04-.267.113-.566.038-.177.098-.34.022-.056.048-.108.042-.088.01-.142a.7.7 0 0 0 .16-.419l.011-.026q.11-.229.194-.468.048-.136.113-.243a.3.3 0 0 0 .05-.222q.135-.073.138-.196-.001-.014.01-.028a6 6 0 0 0 .275-.48 3 3 0 0 0 .113-.253.1.1 0 0 1 .015-.03q.297-.433.644-.823.09-.107.179-.219.011-.014.035-.012h.025c-.002-.061.01-.106.045-.13.002-.005.005-.008.005-.018.287-.206.596-.38.933-.53l.043-.02q.244-.125.584-.173.012-.002.027-.005a1 1 0 0 1 .275-.047.7.7 0 0 0 .286-.041.1.1 0 0 1 .04-.008c.202.003.353.025.446.057q.045.015.09-.002a.1.1 0 0 1 .073-.005.5.5 0 0 0 .148.04q.053.007.048.046a.24.24 0 0 1 .109.172q.016.091.072.246.184.502.222 1.18.012.273-.023.637-.002.027.008.077a.7.7 0 0 1-.013.3.7.7 0 0 0-.027.142q-.026.337-.05.615a8 8 0 0 1-.22 1.254 7 7 0 0 0-.13.593.26.26 0 0 1-.048.12.3.3 0 0 0-.048.173.4.4 0 0 1-.015.076q-.049.145-.083.26-.017.059-.033.13-.02.087.002.124-.112.21-.176.467-.07.298-.178.55-.035.08-.06.144l-.204.538-.405 1.058c-.058.15-.12.292-.194.425q-.013.028-.028.062a.17.17 0 0 1-.062.076q.022.037.002.123c-.002.01-.002.015-.002.024q-.084.028-.114.121.002.004-.012.003a.18.18 0 0 1-.063.132.08.08 0 0 0-.033.064q-.006.123-.065.187a.5.5 0 0 0-.07.106q-.01.014-.02.025-.06.037 0 .076a2.3 2.3 0 0 0-.29.462c-.035.077-.073.15-.11.229a7 7 0 0 0-.141.298q-.012.032-.028.06l-.025.04-.07.081q-.07.085-.04.158a2.4 2.4 0 0 0-.3.457q-.028.06-.058.118a.9.9 0 0 1-.161.222c-.02.014-.028.042-.033.086a.13.13 0 0 1-.02.057q-.279.456-.573.895-.292.437-.571.882a.3.3 0 0 1-.076.08q-.025.015.005.08a.53.53 0 0 0-.188.19 3 3 0 0 1-.3.44.8.8 0 0 0-.11.172.7.7 0 0 1-.159.201.4.4 0 0 1-.15.077c-.04.007-.059.042-.049.1q.129.08.091.195-.002.002-.015.003a2 2 0 0 0-.116.223q-.01.022-.02.042 0 .005-.015.005a.52.52 0 0 0-.294.2.03.03 0 0 0-.007.021.25.25 0 0 0 .045.227l.005.02a.18.18 0 0 0 .123.105q.014.005.026.02.074.077.254.047a.5.5 0 0 0 .239-.155q.013-.02.022-.034.066-.095.124-.19a1 1 0 0 1 .118-.162.5.5 0 0 1 .153-.096q.01-.002.023-.003.285-.445.593-.87a.1.1 0 0 1 .023-.025.5.5 0 0 0 .108-.13 1 1 0 0 1 .151-.258q.077-.099.144-.204l.012.012a.33.33 0 0 1-.088.231q-.013.016-.022.037a.6.6 0 0 1-.066.125 6 6 0 0 0-.254.416.6.6 0 0 1-.108.14.6.6 0 0 0-.14.256.235.235 0 0 0-.187.194.5.5 0 0 1-.123.238q-.125.14-.21.323-.01.02-.024.04-.1.123-.287.115c-.048.128-.002.211.128.243q.01.001.023.003.155.031.241-.116.043-.073.096-.15c.012-.024.043-.014.09.02q.117.016.013.138l-.138.157q-.088-.049-.181.017a.26.26 0 0 0-.096.155.46.46 0 0 0 .096.227q.004.008.005.02a.7.7 0 0 0 .302.098.4.4 0 0 0 .259-.118q.002-.005.017-.005a.3.3 0 0 1 .118-.207.1.1 0 0 0 .036-.037q.06-.113.18-.157.035-.015.041-.061a.415.415 0 0 1 .229-.251q.111.081.234-.042a.3.3 0 0 0 .06-.086.8.8 0 0 1 .121-.18.8.8 0 0 0 .146-.231.05.05 0 0 1 .017-.03q.175-.195.322-.418.136-.202.27-.406.054-.08.1-.164c.01-.012.015-.022.025-.032a.6.6 0 0 0 .068-.106.1.1 0 0 1 .023-.025q.047-.025-.002-.076a.55.55 0 0 0 .178-.194q.13-.241.287-.455a5 5 0 0 0 .302-.448q.071-.113.138-.23.115-.196.227-.394.032-.057.063-.116.078-.138.188-.254c.01-.076.015-.125.023-.15q.002-.009.002-.022.183-.187.287-.465.024-.066.06-.128.27-.464.516-.954.242-.483.495-.964a12 12 0 0 0 .639-1.453q.103-.28.206-.539.215-.523.41-1.055.05-.14.096-.273a.9.9 0 0 0 .045-.243q-.001-.014.01-.027a1.4 1.4 0 0 0 .171-.463 3 3 0 0 1 .06-.224.4.4 0 0 0 .023-.22q.095-.082.068-.178-.009-.036.02-.059.014-.012.013-.034a.5.5 0 0 1 .06-.254q.002-.005.002-.014.028-.126.05-.251a8 8 0 0 1 .099-.389.8.8 0 0 0 .027-.2q-.001-.021.01-.036.023-.042.053-.086a.45.45 0 0 1 .01-.276q.003-.006.006-.017a.5.5 0 0 0 .02-.245q-.011-.041.022-.111a.07.07 0 0 0 0-.04.4.4 0 0 1-.007-.073q.088-.008.04-.084-.003-.003.008-.014.038-.051-.01-.111l.012-.012c.038-.037.04-.082.015-.131q-.003-.007.008-.017a.17.17 0 0 0 .018-.18q-.003-.003.012-.014c.033-.017.036-.047.018-.087q-.007-.016 0-.039.028-.133.018-.221-.003-.042.037-.05c-.047-.06-.05-.108-.012-.135v-.012a.4.4 0 0 1 .037-.246q.003-.044-.035-.108-.003-.002.005-.017A.5.5 0 0 0 20 3.932q0-.09-.003-.123a8 8 0 0 1-.007-.32.4.4 0 0 0-.018-.12.4.4 0 0 1-.01-.157q.017-.045-.015-.079V3.12a3 3 0 0 0-.086-.639 4 4 0 0 0-.165-.521 5 5 0 0 0-.119-.264c-.042-.078-.085-.162-.133-.24a3 3 0 0 1-.128-.246 1 1 0 0 0-.149-.24 4 4 0 0 1-.251-.326"
    fill="#fff"
  />
</svg>
