<svg role="img" viewBox="0 0 24 24" xmlns="http://www.w3.org/2000/svg">
  <path
    d="M7.659 2.007c-.02.014-.327.075-.414.08-.034 0-.064.023-.064.047 0 .028-.014.033-.029.019-.02-.02-.097.014-.17.065-.078.052-.141.085-.141.066 0-.014-.03-.004-.059.024-.034.023-.185.136-.33.25-.312.23-.58.503-.585.583 0 .033-.03.076-.068.094-.04.02-.161.222-.268.448-.268.55-.492 1.257-.56 1.78-.015.089-.039.216-.054.282-.073.273-.112 1.78-.053 2.165.02.118.039.264.049.33s.034.245.053.4c.02.155.054.301.073.33.025.023.049.108.063.188.015.075.059.254.098.386.039.136.049.25.029.25-.024 0-.044-.015-.044-.038 0-.123-.842-.382-1.241-.377-.477.005-1.208.23-1.5.461-.034.024-.165.127-.302.226a1.86 1.86 0 0 0-.633.782c-.092.202-.112.315-.102.621.005.226.044.443.093.556.043.099.082.193.087.212.01.108.37.49.633.673.17.122.35.254.4.292a.4.4 0 0 0 .194.094c.122.014.146.132.034.146a11 11 0 0 0-.935.343c-.102.043-.185.095-.185.123 0 .023-.014.028-.029.014-.02-.019-.092.01-.165.061a.7.7 0 0 1-.17.094c-.02 0-.142.085-.269.189-.126.103-.258.188-.287.188-.03 0-.053.019-.053.038 0 .018-.073.108-.161.197-.17.18-.438.542-.458.631-.005.028-.044.137-.083.245a.85.85 0 0 0-.048.377c.014.099.029.23.034.287.005.061.03.108.049.108.024 0 .024.019.01.047-.05.08.447.5.773.65.17.08.405.155.521.174.366.052.989.057 1.091.01.058-.029.03.028-.083.136-.409.419-.58.617-.647.748-.044.076-.117.203-.166.283a1.3 1.3 0 0 0-.126.282c-.054.198-.073.636-.03.636.02 0 .034.066.03.146-.01.184.258.715.472.937.229.235.52.414.725.442.098.014.239.052.317.08s.195.066.263.076c.17.033 1.037.051 1.085.023a2 2 0 0 1 .317-.037c.15-.01.39-.029.52-.048.322-.037 1.379-.042 1.778-.009.482.042 1.013.16 1.89.419.437.127.812.221.841.207.025-.019.044-.01.044.01 0 .042.546.188.843.226a1 1 0 0 1 .233.047c.025.018.141.037.253.051.112.01.258.029.327.043.628.127 1.806.108 2.449-.043.15-.033.277-.051.277-.037 0 .01.034-.005.073-.038.04-.033.073-.047.073-.033s.102-.005.234-.042c.127-.043.297-.08.375-.094.083-.01.19-.038.243-.062.054-.018.185-.066.292-.094.21-.061.327-.103.925-.334.215-.085.414-.155.444-.16.034-.005.131-.042.224-.085a6 6 0 0 1 .38-.16c.121-.047.248-.113.282-.146.053-.052.16-.075.282-.056.02 0 .049-.014.063-.038.044-.056.667-.282.955-.344.131-.028.263-.07.292-.094a.7.7 0 0 1 .195-.061c.082-.01.233-.057.335-.099.108-.042.307-.075.439-.07.282.004.75-.038.813-.08a.5.5 0 0 1 .131-.043c.2-.038.521-.132.546-.16.038-.042.233-.146.292-.146.024 0 .107-.056.185-.127.073-.075.224-.207.33-.297.312-.268.634-.706.57-.772-.014-.014-.005-.028.03-.028q.052-.001.039-.038c-.015-.018 0-.084.029-.15.048-.123.078-.565.034-.565-.015 0-.024-.061-.03-.141a.55.55 0 0 0-.145-.292c-.078-.09-.205-.236-.283-.335-.078-.094-.156-.16-.175-.15-.02.014-.073-.019-.122-.07-.048-.053-.117-.095-.146-.095-.034 0-.088-.033-.122-.07-.048-.057-.048-.071 0-.071.21 0 1.364-.9 1.364-1.064 0-.033.02-.066.043-.066.069 0 .351-.589.322-.669-.015-.037.005-.14.039-.23.141-.325 0-.909-.292-1.21-.064-.066-.112-.132-.112-.155 0-.02-.049-.052-.107-.071a.5.5 0 0 1-.176-.094.24.24 0 0 0-.156-.066c-.048 0-.097-.024-.107-.052s-.15-.061-.306-.075c-.161-.01-.35-.024-.424-.029-.073-.009-.15-.028-.17-.051q-.029-.032.01-.02c.029.01.121-.056.204-.14.087-.08.146-.151.131-.151s.015-.042.064-.09c.121-.127.336-.54.443-.852.107-.3.112-.95.01-1.247-.137-.41-.716-.942-1.072-.989a.4.4 0 0 1-.097-.047c-.117-.07-.872-.042-1.213.047-.36.09-.959.377-1.163.556a.4.4 0 0 1-.112.08c-.01 0-.024-.1-.03-.226-.024-.702-.087-1.318-.136-1.37-.01-.01 0-.057.025-.104.029-.047.029-.094.005-.108-.02-.014-.054-.132-.073-.264-.04-.296-.04-.277-.088-.47a5 5 0 0 1-.068-.306c-.015-.08-.059-.24-.093-.368-.039-.122-.058-.22-.044-.22s0-.039-.024-.086a1 1 0 0 1-.073-.202 3 3 0 0 0-.092-.325 4 4 0 0 1-.103-.343 3 3 0 0 0-.15-.377 1.3 1.3 0 0 1-.122-.301.4.4 0 0 0-.044-.146 15 15 0 0 1-.205-.41c-.267-.546-.852-1.295-1.012-1.295-.03 0-.054-.018-.054-.037 0-.033-.277-.212-.302-.193a1 1 0 0 1-.214-.09 1.1 1.1 0 0 0-.292-.103c-.244-.014-.691-.01-.828.014-.19.028-.75.221-.847.292-.039.028-.136.08-.22.117-.077.038-.199.113-.267.165-.2.156-.633.584-.633.626a.4.4 0 0 1-.102.146.4.4 0 0 0-.112.174c-.005.043-.034.09-.063.104-.073.047-.302.466-.273.5.015.013.005.05-.024.084-.107.127-.268.598-.385 1.12-.097.433-.122.706-.136 1.375-.01.461.005.918.024 1.012.02.099.054.306.068.461.04.368.063.5.141.871.04.17.05.32.025.335-.04.023-.21.018-.502-.024-.078-.014-.156-.028-.17-.033a8 8 0 0 0-.643-.038c-.18-.004-.185-.009-.16-.16.014-.08.038-.268.063-.41.058-.39.024-2.612-.04-2.612-.004 0-.014-.085-.024-.188-.024-.26-.063-.452-.2-.942a16 16 0 0 1-.145-.536 1.1 1.1 0 0 0-.093-.24c-.039-.071-.053-.142-.039-.16.02-.015.005-.029-.024-.029-.034 0-.058-.033-.058-.075 0-.123-.395-.88-.56-1.078-.536-.631-.979-.928-1.47-.994-.244-.033-.74-.056-.755-.037"
    fill="#0003"
  />
</svg>
