<?xml version="1.0" encoding="UTF-8" ?>
<svg xmlns="http://www.w3.org/2000/svg" width="100" height="100">
  <g transform="translate(0,7)" fill="white" opacity="1">
    <path
      d="m 31.910766,0.02862067 c -0.08115,0.0608 -1.359213,0.32389 -1.724375,0.34414 -0.142007,0 -0.263727,0.10121 -0.263727,0.20244 0,0.12145 -0.06086,0.14169 -0.121721,0.0809 -0.08115,-0.0809 -0.405735,0.0608 -0.710037,0.28341 C 28.766318,1.1621907 28.50259,1.3038907 28.50259,1.2229207 c 0,-0.0608 -0.12172,-0.0203 -0.243441,0.10122 -0.142007,0.10121 -0.770897,0.58705 -1.379499,1.07289 -1.298353,0.99193 -2.414125,2.16604 -2.434411,2.51017 0,0.14171 -0.121721,0.3239 -0.284015,0.40487 -0.162294,0.0809 -0.669463,0.95143 -1.115772,1.92312 -1.115772,2.36847 -2.048962,5.4049703 -2.332977,7.6519803 -0.06086,0.38462 -0.162294,0.9312 -0.223154,1.2146 -0.304302,1.17411 -0.466596,7.65198 -0.223155,9.31194 0.08115,0.50608 0.162294,1.13363 0.202868,1.41703 0.04057,0.28341 0.142007,1.05265 0.223154,1.72069 0.08115,0.66802 0.223155,1.29557 0.304302,1.41703 0.101433,0.10121 0.202867,0.4656 0.263727,0.80973 0.06086,0.3239 0.243442,1.09315 0.405736,1.65995 0.162294,0.58706 0.202867,1.0729 0.12172,1.0729 -0.101434,0 -0.182581,-0.0608 -0.182581,-0.16194 0,-0.52634 -3.509609,-1.63972 -5.173123,-1.61947 -1.988103,0.0203 -5.031116,0.99192 -6.248322,1.98384 -0.142007,0.10122 -0.6897496,0.54657 -1.2577786,0.97168 -1.237492,0.95144 -2.008389,1.92312 -2.637279,3.3604 -0.385448,0.87046 -0.466595,1.3563 -0.426022,2.67212 0.02029,0.97168 0.182581,1.90287 0.385449,2.38872 0.182581,0.4251 0.344875,0.82997 0.365161,0.91094 0.04057,0.4656 1.541794,2.10531 2.637279,2.8948 0.710037,0.52632 1.4606466,1.09314 1.6635136,1.25509 0.182581,0.18219 0.547743,0.36438 0.811471,0.40486 0.507169,0.0608 0.608602,0.56682 0.142007,0.62755 -0.304301,0.0608 -2.3735506,0.82998 -3.8950576,1.47776 -0.426022,0.1822 -0.770897,0.40487 -0.770897,0.52633 0,0.10121 -0.06086,0.12146 -0.12172,0.0608 -0.08115,-0.0809 -0.385449,0.0405 -0.68975,0.26316 -0.324588,0.22267 -0.628889,0.40486 -0.710037,0.40486 -0.08115,0 -0.588316,0.36438 -1.115771,0.80974 -0.527456,0.44535 -1.075198,0.80973 -1.196919,0.80973 -0.121721,0 -0.223154,0.0809 -0.223154,0.16195 0,0.0809 -0.304302,0.46559 -0.669463,0.85022 -0.710037,0.76925 -1.82580901,2.32799 -1.90695601,2.71261 -0.02029,0.12146 -0.182581,0.58705 -0.344875,1.05265 -0.182581,0.48584 -0.263728,1.15387 -0.202867,1.61947 0.06086,0.42511 0.12172,0.99192 0.142007,1.23484 0.02029,0.26317 0.121721,0.4656 0.202868,0.4656 0.101433,0 0.101433,0.0809 0.04057,0.20244 -0.202867,0.34413 1.86638201,2.14578 3.22559501,2.79358 0.710036,0.34413 1.683801,0.66802 2.170683,0.749 1.521507,0.22267 4.118212,0.24292 4.5442336,0.0405 0.243441,-0.12146 0.121721,0.12146 -0.344875,0.58706 -1.7040876,1.80166 -2.4141236,2.65187 -2.6981386,3.21869 -0.182581,0.32389 -0.486882,0.87046 -0.68975,1.2146 -0.202867,0.3239 -0.426022,0.87047 -0.527455,1.2146 -0.223155,0.85022 -0.304302,2.73286 -0.121721,2.73286 0.08115,0 0.142007,0.2834 0.121721,0.62754 -0.04057,0.78949 1.075198,3.076979 1.967815,4.028419 0.953478,1.01217 2.1706836,1.78142 3.0227266,1.90288 0.405736,0.0608 0.994052,0.22267 1.31864,0.34413 0.324588,0.12146 0.81147,0.28341 1.095485,0.32389 0.710036,0.14171 4.321079,0.22268 4.523947,0.10122 0.101434,-0.0405 0.68975,-0.12146 1.318639,-0.16195 0.62889,-0.0405 1.622941,-0.12145 2.170684,-0.20243 1.338926,-0.16194 5.741152,-0.18219 7.404667,-0.0405 2.008389,0.18219 4.219645,0.68827 7.871265,1.80165 1.82581,0.54657 3.38789,0.95144 3.50961,0.89071 0.10143,-0.0809 0.18258,-0.0405 0.18258,0.0405 0,0.18219 2.27212,0.80974 3.50961,0.97168 0.42602,0.0405 0.85204,0.14171 0.97376,0.20244 0.10144,0.0809 0.58832,0.16195 1.05492,0.22268 0.46659,0.0405 1.07519,0.12146 1.35921,0.18219 2.61699,0.54656 7.52639,0.46559 10.20424,-0.18219 0.62889,-0.14171 1.15634,-0.22268 1.15634,-0.16195 0,0.0405 0.14201,-0.0203 0.3043,-0.16195 0.1623,-0.1417 0.30431,-0.20243 0.30431,-0.1417 0,0.0608 0.42602,-0.0203 0.97376,-0.18219 0.52746,-0.18219 1.23749,-0.34413 1.56208,-0.40487 0.34488,-0.0405 0.79118,-0.16195 1.01434,-0.26316 0.22315,-0.0809 0.7709,-0.28341 1.2172,-0.40487 0.87234,-0.26317 1.35922,-0.44536 3.85449,-1.43728 0.89262,-0.36438 1.72437,-0.66803 1.84609,-0.68827 0.14201,-0.0203 0.54775,-0.18219 0.93319,-0.36438 0.36517,-0.18219 1.0752,-0.48584 1.58237,-0.68827 0.50717,-0.20244 1.03463,-0.48584 1.17663,-0.62755 0.22316,-0.22267 0.66947,-0.32389 1.17664,-0.24292 0.0811,0 0.20286,-0.0608 0.26372,-0.16194 0.18258,-0.24293 2.77929,-1.2146 3.97621,-1.47777 0.54774,-0.12146 1.09548,-0.30365 1.2172,-0.40486 0.10144,-0.081 0.48689,-0.20244 0.81147,-0.26317 0.34488,-0.0405 0.97377,-0.24292 1.39979,-0.42511 0.44631,-0.18218 1.27807,-0.32389 1.82581,-0.30364 1.17663,0.0203 3.12416,-0.16196 3.38789,-0.34415 0.10143,-0.0608 0.34487,-0.1417 0.54774,-0.18218 0.83176,-0.161949 2.17068,-0.566819 2.27212,-0.688279 0.16229,-0.18219 0.97376,-0.62754 1.2172,-0.62754 0.10144,0 0.44631,-0.24292 0.7709,-0.54657 0.3043,-0.3239 0.93319,-0.89071 1.3795,-1.27533 1.29835,-1.15387 2.63728,-3.0365 2.37355,-3.31991 -0.0609,-0.0608 -0.0203,-0.12146 0.12172,-0.12146 0.14201,0 0.20287,-0.0608 0.16229,-0.16195 -0.0609,-0.0809 0,-0.36437 0.12173,-0.64779 0.20286,-0.52632 0.32458,-2.4292 0.142,-2.4292 -0.0609,0 -0.10143,-0.26316 -0.12172,-0.60729 -0.0203,-0.34414 -0.26373,-0.87047 -0.6086,-1.25509 -0.32459,-0.38463 -0.85204,-1.01217 -1.17663,-1.43728 -0.32459,-0.40486 -0.64918,-0.68827 -0.73033,-0.64779 -0.0811,0.0608 -0.3043,-0.0809 -0.50716,-0.30365 -0.20287,-0.22267 -0.48689,-0.40486 -0.60861,-0.40486 -0.142,0 -0.36516,-0.1417 -0.50717,-0.30365 -0.20286,-0.24292 -0.20286,-0.30366 0,-0.30366 0.87233,0 5.6803,-3.86647 5.6803,-4.57498 0,-0.14171 0.0811,-0.28341 0.18258,-0.28341 0.28401,0 1.46064,-2.53042 1.33892,-2.87456 -0.0609,-0.16194 0.0203,-0.6073 0.1623,-0.99192 0.588312,-1.39678 0,-3.90696 -1.21721,-5.20254 -0.26373,-0.2834 -0.46659,-0.56681 -0.46659,-0.66803 0,-0.0809 -0.20287,-0.22267 -0.44631,-0.30365 -0.24344,-0.0608 -0.56803,-0.26316 -0.73033,-0.40487 -0.142,-0.16194 -0.4463,-0.2834 -0.64917,-0.2834 -0.20287,0 -0.40574,-0.10121 -0.44631,-0.22267 -0.0406,-0.12146 -0.62889,-0.26317 -1.27807,-0.3239 -0.66946,-0.0405 -1.46064,-0.10122 -1.76494,-0.12146 -0.30431,-0.0405 -0.62889,-0.12146 -0.71004,-0.22268 -0.0811,-0.0809 -0.0609,-0.12146 0.0406,-0.0809 0.12172,0.0405 0.50717,-0.24293 0.85205,-0.6073 0.36516,-0.34414 0.6086,-0.64778 0.54774,-0.64778 -0.0609,0 0.0609,-0.18219 0.26373,-0.38463 0.50717,-0.54657 1.39978,-2.32799 1.84609,-3.66404 0.44631,-1.29558 0.4666,-4.08916 0.0406,-5.36449 -0.56802,-1.76117 -2.98215,-4.04867 -4.46308,-4.2511 -0.0609,0 -0.24344,-0.10122 -0.40574,-0.20243 -0.48688,-0.30365 -3.63133,-0.18219 -5.0514,0.20243 -1.50122,0.38462 -3.99649,1.61947 -4.84854,2.38871 -0.20286,0.20244 -0.42602,0.34414 -0.46659,0.34414 -0.0406,0 -0.10144,-0.42511 -0.12172,-0.97168 -0.10144,-3.01625 -0.36516,-5.66813 -0.56803,-5.89081 -0.0406,-0.0405 0,-0.24293 0.10143,-0.44535 0.12172,-0.20244 0.12172,-0.40487 0.0203,-0.4656 -0.0812,-0.0608 -0.22315,-0.56682 -0.3043,-1.13363 -0.1623,-1.27533 -0.1623,-1.19436 -0.36516,-2.02433 -0.10144,-0.38462 -0.22316,-0.99192 -0.28402,-1.31582 -0.0609,-0.34414 -0.24344,-1.03241 -0.38545,-1.57898 -0.16229,-0.52633 -0.24344,-0.95144 -0.18258,-0.95144 0.0609,0 0,-0.16194 -0.10143,-0.36438 -0.12172,-0.22267 -0.24344,-0.60729 -0.3043,-0.87046 -0.0406,-0.26317 -0.22316,-0.89071 -0.38545,-1.39679 -0.1623,-0.50608 -0.36516,-1.17412 -0.42602,-1.47776 -0.0812,-0.3239 -0.36516,-1.05266 -0.62889,-1.61947 -0.28402,-0.56681 -0.50717,-1.15388 -0.50717,-1.29557 0,-0.14171 -0.0811,-0.42511 -0.18258,-0.6275503 -0.10144,-0.18218 -0.48688,-0.99192 -0.85205,-1.76117 -1.11577,-2.34822 -3.55018,-5.56692 -4.21964,-5.56692 -0.12172,0 -0.22316,-0.0809 -0.22316,-0.16194 0,-0.14171 -1.15634,-0.91096 -1.25778,-0.82998 -0.0406,0.0203 -0.42602,-0.14171 -0.89261,-0.38462 -0.4666,-0.24292003 -1.01434,-0.42511003 -1.21721,-0.44536003 -1.01434,-0.0608 -2.88072,-0.0405 -3.44875,0.0608 -0.79118,0.12146 -3.12416,0.95144003 -3.52989,1.25509003 -0.1623,0.12146 -0.56803,0.34414 -0.91291,0.50608 -0.32459,0.16196 -0.83175,0.48584 -1.11577,0.70852 -0.83176,0.66803 -2.63728,2.51018 -2.63728,2.69237 0,0.0809 -0.18258,0.36438 -0.42602,0.62754 -0.24344,0.24292 -0.44631,0.58705 -0.4666,0.74901 -0.0203,0.18218 -0.142,0.38461 -0.26372,0.44535 -0.3043,0.20243 -1.25778,2.00408 -1.13606,2.14579 0.0609,0.0608 0.0203,0.2226803 -0.10144,0.3643803 -0.4463,0.54657 -1.11577,2.5709 -1.60265,4.81791 -0.40573,1.86239 -0.50717,3.03651 -0.56803,5.91106 -0.0406,1.98385 0.0203,3.94745 0.10143,4.35232 0.0811,0.4251 0.22316,1.31581 0.28402,1.98384 0.16229,1.57898 0.26373,2.1458 0.58832,3.74502 0.16229,0.72876 0.20286,1.37655 0.10143,1.43728 -0.16229,0.10122 -0.87233,0.0809 -2.08954,-0.10122 -0.32458,-0.0608 -0.64917,-0.12146 -0.71003,-0.1417 -0.10144,-0.0405 -1.42008,-0.12146 -2.67786,-0.16195 -0.75061,-0.0203 -0.77089,-0.0405 -0.66946,-0.68827 0.0609,-0.34414 0.1623,-1.15387 0.26373,-1.76117 0.24344,-1.6802 0.10143,-11.23505 -0.16229,-11.23505 -0.0203,0 -0.0609,-0.36438 -0.10144,-0.80974 -0.10143,-1.11339 -0.26373,-1.94336 -0.83176,-4.04867 -0.28401,-1.01216 -0.54774,-2.04458 -0.6086,-2.30774 -0.0609,-0.26316 -0.22315,-0.72876 -0.38545,-1.03241 -0.16229,-0.3036503 -0.22315,-0.6072903 -0.16229,-0.6882703 0.0811,-0.0608 0.0203,-0.12146 -0.10143,-0.12146 -0.14201,0 -0.24345,-0.14171 -0.24345,-0.3239 0,-0.52632 -1.64322,-3.7855 -2.33297,-4.63572 -2.23155,-2.7126 -4.07764,-3.98794003 -6.1266,-4.27134003 -1.014345,-0.14171 -3.083595,-0.24292 -3.144455,-0.16195 z"
    />
  </g>
</svg>
