<?xml version="1.0" encoding="UTF-8"?>
<svg xmlns="http://www.w3.org/2000/svg" width="100" height="100">
  <g transform="translate(0,15)" opacity="0.2">
    <path d="M 49.036225,2.2393573e-7 C 37.912591,0.19376522 26.628276,0.22749522 16.069985,0.98432822 13.180876,1.3392022 10.312781,1.7150052 8.2222774,2.8652732 5.7992236,4.0936522 3.9838799,5.9272982 2.9089299,8.4983622 1.6369249,11.350707 0.91008608,14.746028 0.64855608,18.604786 c -0.65887875,6.549164 -0.6890575,13.724502 -0.62625125,20.99245 0.094285,5.669149 0.42510375,11.10271 1.13507997,16.158648 0.8472051,4.058349 2.0604288,7.752162 4.7849488,9.940749 2.1467488,1.916137 5.0531734,3.075662 8.8947194,3.303825 13.783608,0.91 28.517351,1.101937 43.172173,0.9551 9.539968,-0.153263 19.080128,-0.306325 28.024729,-1.05255 4.560289,-0.389438 7.601039,-2.2923 9.775387,-5.058087 1.67128,-2.441688 2.618951,-5.604063 3.19975,-9.131837 0.788626,-6.784521 1.097198,-14.047163 0.958947,-21.754839 0.03763,-6.54698 -0.327177,-12.693131 -1.09594,-18.436961 C 98.160825,10.899305 97.130847,7.5947432 95.075453,5.3114762 92.815409,2.9396612 89.794413,1.3257412 85.397919,1.0817862 73.773876,0.23315822 61.438094,0.06911522 49.036225,2.2393573e-7 Z M 39.681601,22.113284 c 9.658379,5.096333 18.14787,9.200784 26.958145,13.926788 -9.711161,5.033019 -18.387775,9.594463 -26.958145,14.014499 z" />
  </g>
</svg>
