<?xml version="1.0" encoding="UTF-8"?>
<svg xmlns="http://www.w3.org/2000/svg" width="30" height="10">
  <path d="m 7.5684203,0.42859985 c 0.6734518,-0.0287 1.349109,7.4e-4 2.0225607,-0.0206 -0.00882,0.0368 -0.024997,0.10881 -0.033819,0.14558 C 9.1667659,1.2608299 8.777105,1.9695499 8.3830328,2.6753299 c 0.7704993,-0.0294 1.5593788,0.16394 2.1806302,0.63299 0.486709,0.3698 0.897691,0.86754 1.090316,1.45495 0.04705,-0.29334 0.02573,-0.59035 0.02941,-0.88591 0.0015,-1.12777 -0.0029,-2.25482 0.0022,-3.38260005 0.611694,0.001 1.223388,0 1.835082,7.4e-4 0.0022,0.58815005 -7.35e-4,1.17556005 7.35e-4,1.76372005 0.416129,0.002 0.831523,0 1.24765,0 0.0081,0.50359 -0.0059,1.0072 0.0074,1.51081 0.17204,-0.15881 0.277174,-0.37421 0.44186,-0.53963 0.556554,-0.58889 1.310879,-1.01236 2.120344,-1.10794 0.56023,-0.0155 1.142515,-0.0574 1.675542,0.14999 1.151337,0.35509 2.02109,1.39245 2.260768,2.5614 0.124251,-0.69034 0.353636,-1.39318 0.866812,-1.89606 0.335256,-0.33157 0.752854,-0.57418 1.205743,-0.70431 0.530086,-0.17865 1.096197,-0.10661 1.644663,-0.12058 0.0029,0.5639 0.0096,1.12778 0.0074,1.69095 -0.413922,0 -0.860194,-0.0456 -1.227799,0.18526 -0.487444,0.25584 -0.699184,0.83444 -0.694037,1.35936 0.0022,1.32776 0.0036,2.65624 -7.36e-4,3.98399 -0.585961,0.003 -1.171188,0.004 -1.757149,0 -0.0125,-0.93589 -0.0015,-1.87178 -0.0052,-2.80769 -1.751268,-7.3e-4 -3.501802,-0.003 -5.25307,0.001 0.136749,0.50875 0.486708,0.96604 0.964594,1.19763 0.762412,0.36098 1.810821,0.15659 2.254152,-0.60138 0.630809,-0.0235 1.263089,-0.005 1.894634,-0.009 0.0125,0.31687 -0.17498,0.58741 -0.325697,0.84988 -0.521264,0.86384 -1.488799,1.38656 -2.476186,1.49904 -1.063847,0.15881 -2.186512,-0.18526 -2.971715,-0.92192 -0.205124,-0.15734 -0.322022,-0.40288 -0.530087,-0.5536 -0.0052,0.422 0.0081,0.84474 -0.0015,1.26674 -0.05441,0.1235 -0.214681,0.0736 -0.319081,0.0897 -0.61537,0.0198 -1.257943,-0.10365 -1.766708,-0.46757 -0.580815,-0.40657 -0.919011,-1.08808 -1.022676,-1.77696 -0.290407,0.8462 -0.883721,1.5983 -1.690246,2.00339 -1.0094421,0.53375 -2.2857654,0.52493 -3.2878556,-0.0213 -1.3498442,-0.70357 -2.0703493,-2.382 -1.6755419,-3.84871 0.1146926,-0.49478 0.3433427,-0.95207 0.5756688,-1.3998 0.5572886,-1.01162 1.1123717,-2.02471 1.6637785,-3.04001005 0.072786,-0.12057 0.1161631,-0.26687 0.2212981,-0.36391 M 16.082151,5.0515799 c 1.163102,0.002 2.325468,0.003 3.488568,-7.3e-4 -0.155864,-0.87414 -1.067523,-1.47185 -1.932129,-1.36083 -0.742562,0.0595 -1.382193,0.64549 -1.556439,1.36156 m -2.560733,-1.17409 c -7.35e-4,0.88223 7.36e-4,1.76445 -7.35e-4,2.64741 0.0029,0.34481 0.106605,0.72638 0.402159,0.93591 0.211005,0.17056 0.492591,0.19776 0.753589,0.21099 -0.08014,-0.2654 -0.233796,-0.50214 -0.299964,-0.77268 -0.316141,-0.99986 -0.160277,-2.1122 0.349224,-3.02089 -0.401424,-0.003 -0.802849,-0.002 -1.204273,-7.4e-4 m -5.4015822,0.49037 c -0.8550484,0.17131 -1.4571847,1.08073 -1.2969091,1.93502 0.099253,0.68005 0.653601,1.26158 1.3292583,1.3895 0.4992071,0.0956 1.0447323,-0.0662 1.4079258,-0.42273 0.5168522,-0.46243 0.6771282,-1.26525 0.4036298,-1.89826 -0.275719,-0.71471 -1.091066,-1.16758 -1.8439203,-1.00364 z"
     fill="white" />
</svg>
