<?xml version="1.0" encoding="UTF-8"?>
<svg xmlns="http://www.w3.org/2000/svg" width="30" height="10">
  <path d="m 16.391436,1.5000046 h 2.771327 c 0.0025,0.4218765 0.0033,0.8437529 -0.0016,1.2664764 0.549324,0.00932 1.099472,0.00169 1.649618,0.00424 8.24e-4,0.598929 8.24e-4,1.197858 0,1.7967869 -0.549324,0.00339 -1.098646,-8.472e-4 -1.647148,0.00339 -0.0049,1.2918906 0.0057,2.5837813 0.01565,3.8756719 -0.641564,0.036427 -1.294657,0.1126705 -1.929633,-0.028803 -0.44473,-0.085561 -0.804632,-0.5074378 -0.810396,-0.9767541 -0.06095,-0.9547283 -0.04695,-1.9128454 -0.04529,-2.8701151 -0.378844,-0.00255 -0.757688,-0.00255 -1.136532,-0.00255 -0.0025,-0.5989289 -0.0016,-1.1978579 -8.22e-4,-1.7976341 0.38049,0 0.760981,0.00593 1.141473,-0.00932 C 16.388183,2.3412114 16.392383,1.9201821 16.391583,1.5 Z"
        fill="white" />
  <path d="m 4.2313692,2.6766841 c 1.0937061,-0.1270713 2.264828,-0.073701 3.2531166,0.4701634 0.5394409,0.2761681 0.987465,0.8361286 0.9553457,1.4833446 -0.016471,1.2783364 0.027178,2.5558257 0.017295,3.834162 -0.9240498,0.00254 -1.847276,8.471e-4 -2.7705022,8.471e-4 -0.00165,-0.5362404 -0.00329,-1.0733281 0.00165,-1.6104158 C 5.2608395,6.9725381 4.8301105,7.0928321 4.4282064,7.2842861 4.1910172,7.4147459 3.9258264,7.6324612 3.96124,7.942515 c 0.04612,0.2050082 0.1935399,0.359188 0.3146053,0.5201449 -0.863929,0.00763 -1.7270343,0 -2.5901397,0.00424 C 1.3645088,8.505864 1.1372025,8.1966574 1.0400208,7.9196421 0.96178126,7.49353 0.98072345,7.0055765 1.2566207,6.6531657 1.683232,6.0601668 2.432684,5.8924327 3.0948375,5.7526544 3.5774517,5.7111445 4.0493594,5.594239 4.529503,5.5340919 4.8457553,5.4951235 5.1603605,5.4315879 5.4626121,5.3256952 5.6825063,5.2358983 5.7376858,4.9385517 5.6248562,4.7420148 5.5350866,4.5590322 5.3242517,4.491261 5.1422419,4.4531396 4.8062237,4.401464 4.4298506,4.4150181 4.1424233,4.6225678 3.9834735,4.7437092 3.9480599,4.9554945 3.9101755,5.1410184 3.0248336,5.1435599 2.1394918,5.1427127 1.2549735,5.1418655 1.3398016,4.5022738 1.6214638,3.8703063 2.1197261,3.4619841 2.7061106,2.9486165 3.4885057,2.7774939 4.2313692,2.6766841 Z"
        fill="white" />
  <path d="m 12.489344,3.4441941 c 0.415081,-0.74972 1.393487,-0.9572697 2.142115,-0.6709359 0.0065,0.598929 0.0025,1.1970108 0.0025,1.7950926 -0.461201,0.012707 -0.942168,-0.050828 -1.383603,0.1219878 -0.362373,0.1558741 -0.569913,0.5582661 -0.57156,0.9513399 -0.01071,0.941174 0.0025,1.8831953 -0.0066,2.8243693 -0.936404,-0.00932 -1.873631,0.017789 -2.8100339,-0.013555 0.010707,-1.8848896 0.00412,-3.7706263 0.00329,-5.655516 0.8614589,0.00339 1.7229169,0.00169 2.5843749,8.471e-4 -0.0058,0.2160211 -0.02224,0.4371249 0.03953,0.6463689 z"
        fill="white" />
  <path d="m 23.461817,2.9113423 c 1.084648,-0.3490223 2.287889,-0.3803665 3.365124,0.015248 0.627563,0.2083967 1.187593,0.623496 1.564789,1.1817622 0.573208,0.83867 0.678625,1.9204695 0.570737,2.9158607 -1.624087,0.00255 -3.248998,0.00255 -4.873086,0 -0.0049,0.473552 -0.0016,0.9479513 -0.0025,1.4223504 -0.688508,-0.00763 -1.377839,0.015248 -2.0647,-0.01016 C 21.844319,8.2991616 21.752903,8.0822933 21.649132,7.8882979 21.183812,7.0216722 21.122868,5.9551213 21.396295,5.0147944 21.663132,4.0033074 22.49906,3.2103832 23.461817,2.9113423 m 1.169476,1.5985557 c -0.420023,0.1414726 -0.652271,0.6014704 -0.632505,1.0394426 0.760982,0.00932 1.520317,-0.019484 2.280476,-0.019484 C 26.21832,5.2748667 26.180434,4.9970044 25.998425,4.7970789 25.678878,4.3802854 25.086729,4.3743554 24.631293,4.509898 Z"
        fill="white" />
</svg>
