<?xml version="1.0" encoding="UTF-8" ?>
<svg xmlns="http://www.w3.org/2000/svg" width="30" height="10">
  <path
    d="m 14.761437,6.6997051 c -0.304712,0 -0.501861,-0.1941315 -0.501861,-0.3824801 V 3.7486649 c 0,-0.8434005 0.823984,-1.3843298 1.739803,-1.3843298 0.856,0 1.321072,0.4292675 1.560347,0.7279552 l 2.075688,2.485875 c 0.195184,0.2270457 0.316787,0.3640851 0.699572,0.3640851 0.487819,0 0.750404,-0.2841992 0.750404,-0.5943607 V 2.7344802 c 0,-0.197546 0.224392,-0.3713447 0.487819,-0.3713447 0.288142,0 0.506354,0.1640783 0.506354,0.3874635 v 2.5372764 c 0,1.0843808 -1.132346,1.4161056 -1.730815,1.4161056 -0.745631,0 -1.141335,-0.2448256 -1.555573,-0.7309697 L 16.758771,3.5466277 C 16.539996,3.2711645 16.368122,3.1205594 15.971857,3.1205594 c -0.161483,0 -0.718108,0.1085546 -0.718108,0.6220763 v 2.5771424 c 0,0.2111732 -0.230008,0.379927 -0.492312,0.379927 z"
    fill="white"
  />
  <path
    d="m 11.544416,8.3924736 c -2.81e-4,-0.032115 0.0065,-0.067305 0.0065,-0.067305 0.01292,-0.083639 0.09183,-0.1103085 0.148003,-0.1103085 0.08903,0 0.148283,0.056385 0.148283,0.1139689 0,0.015166 -0.0065,0.036298 -0.0065,0.061644 0,0.155496 0.195464,0.3701451 0.644247,0.3701451 0.418732,0 0.625992,-0.1998224 0.625992,-0.3927235 0,-0.2429491 -0.33785,-0.3110843 -0.662783,-0.3205894 C 11.812899,8.0267269 11.5461,7.8066638 11.5461,7.5376295 c 0,-0.3095154 0.2873,-0.628659 0.925087,-0.628659 0.552132,0 0.888297,0.3089617 0.888297,0.6296434 l -0.0028,0.038359 c -0.0081,0.06632 -0.07386,0.1060638 -0.150811,0.1060638 -0.0879,0 -0.144913,-0.05946 -0.144913,-0.1119387 0,-0.00985 0.0028,-0.025285 0.0028,-0.039312 0,-0.2156949 -0.248262,-0.3967223 -0.607456,-0.3967223 -0.397389,0 -0.621218,0.1765671 -0.621218,0.4041356 0,0.1957005 0.282525,0.2692188 0.598189,0.2825383 0.506354,0.00735 0.961876,0.1666622 0.961876,0.5424366 0,0.272141 -0.261461,0.6230913 -0.929579,0.6230913 -0.579935,0 -0.934355,-0.2966575 -0.934355,-0.5943607 z"
    fill="white"
  />
  <path
    d="m 14.560636,6.9150925 c -0.607456,0 -0.925086,0.3200357 -0.925086,0.6609272 v 1.3087196 c 0,0.067613 0.07021,0.1131998 0.148002,0.1131998 0.07807,0 0.14716,-0.046818 0.14716,-0.1109851 V 8.34098 h 0.630486 c 0.501581,0 0.943622,-0.3004411 0.943622,-0.6916573 0,-0.3793425 -0.36453,-0.7340149 -0.944184,-0.7342302 z m 0.005,0.226369 c 0.403286,0 0.644246,0.2475015 0.644246,0.5081689 0,0.2821382 -0.340097,0.4647961 -0.634979,0.4647961 H 13.930375 V 7.5765118 c 0,-0.2249539 0.201643,-0.4353886 0.635261,-0.4350503 z"
    fill="white"
  />
  <path
    d="m 19.356259,6.9150925 c -0.607457,0 -0.925087,0.3200357 -0.925087,0.6609272 v 1.3087196 c 0,0.067613 0.07021,0.113169 0.148003,0.113169 0.07779,0 0.14716,-0.046818 0.14716,-0.1109543 V 8.34098 h 0.639753 l 0.483326,0.6044504 c 0.02724,0.032699 0.07161,0.054017 0.127782,0.054017 0.07723,0 0.146037,-0.049402 0.146037,-0.1127692 0,-0.024086 -0.0073,-0.041312 -0.02668,-0.065029 L 19.677537,8.2993605 c 0.358913,-0.1038797 0.621498,-0.3451364 0.621498,-0.6498225 0,-0.3793424 -0.36453,-0.7340148 -0.942779,-0.7344455 z m 0.005,0.226369 c 0.403286,0 0.644246,0.2475015 0.644246,0.5081689 0,0.2821382 -0.339816,0.4647961 -0.634979,0.4647961 H 18.725999 V 7.5765118 c 0,-0.2249539 0.201642,-0.4353886 0.63526,-0.4350503 z"
    fill="white"
  />
  <path
    d="m 16.916322,6.9138928 c -0.87903,0 -1.366849,0.5656301 -1.366849,1.0269196 C 15.549473,8.5982021 16.226017,9 16.925589,9 c 0.796181,0 1.353087,-0.5142287 1.353087,-1.0264273 0,-0.6316737 -0.658008,-1.0591876 -1.362354,-1.0596799 z m -5.62e-4,0.2261537 c 0.510848,0 1.06326,0.3033325 1.06326,0.8343567 0,0.4116107 -0.459173,0.7990433 -1.058767,0.7990433 -0.588921,0 -1.081514,-0.346613 -1.081514,-0.8388786 0,-0.3729136 0.411712,-0.7945214 1.072527,-0.7945214 z"
    fill="white"
  />
  <path
    d="m 21.135661,8.9972008 c -0.08959,0 -0.148283,-0.056293 -0.148283,-0.1131999 V 7.2163333 h -0.616725 c -0.08285,0 -0.144913,-0.056692 -0.144913,-0.111631 0,-0.062199 0.06234,-0.1141535 0.149406,-0.1141535 h 1.52805 c 0.09492,0 0.147441,0.061275 0.147441,0.1127692 0,0.063582 -0.06599,0.1130153 -0.148002,0.1130153 h -0.621499 v 1.6636381 c 0,0.068904 -0.06599,0.1174755 -0.145475,0.1172294 z"
    fill="white"
  />
  <path
    d="M 1.206979,1.0007998 C 1.0674015,1.0007998 1,1.0884064 1,1.1703535 v 3.2575721 c 0,1.4226576 1.3898768,2.2393577 2.8364832,2.2393577 1.3438191,0 2.7890213,-0.841401 2.7890213,-2.1370165 0,-1.3263762 -1.4266668,-2.1556575 -2.8083992,-2.1556575 -1.6569555,0 -2.4025856,1.0208597 -2.4025856,1.0208597 V 1.1758905 C 1.4145197,1.073887 1.3268977,1 1.2038898,1 Z m 2.6050711,1.693876 c 1.3255645,0 2.3978113,0.8051032 2.3978113,1.8234405 0,1.0117853 -1.0722468,1.8284853 -2.3933178,1.8284853 -1.3623545,0 -2.3978113,-0.822237 -2.3978113,-1.8718581 0,-0.8545051 0.9618767,-1.7805906 2.3933178,-1.7800677 z"
    fill="white"
  />
  <path
    d="m 6.8729244,4.4980602 c 0,-1.0228592 1.113811,-2.126404 2.8364827,-2.126404 1.5741079,0 2.8030639,0.9860693 2.8030639,2.1425535 0,0.1100007 -0.107281,0.1671543 -0.235625,0.1671543 H 9.2999431 c -0.108685,0 -0.204451,-0.069581 -0.204451,-0.1589412 0,-0.090498 0.09296,-0.1608792 0.21428,-0.1608792 h 2.7640269 c -0.07189,-0.8101172 -0.985186,-1.67019 -2.3888249,-1.67019 -1.3761154,0 -2.3980916,0.8822513 -2.3980916,1.7906802 0,1.0828736 1.1275726,1.8647831 2.3933176,1.8647831 1.0907829,0 1.7445779,-0.508169 2.0344049,-0.8504754 0.04269,-0.055738 0.105876,-0.087791 0.188724,-0.087791 0.130591,0 0.20726,0.082408 0.20726,0.1594949 0,0.040297 -0.01629,0.073549 -0.0601,0.1208285 -0.456084,0.5187507 -1.27052,0.9775177 -2.3702889,0.9775177 -1.4960345,0 -2.8083994,-0.9245784 -2.8072757,-2.1683314 z"
    fill="white"
  />
  <path
    d="m 13.323256,6.698567 c -0.254722,0 -0.497087,-0.1565419 -0.497087,-0.378512 V 2.7364182 c 0,-0.1966232 0.212596,-0.376082 0.492593,-0.376082 0.267079,0 0.497087,0.1582338 0.497087,0.3814959 V 6.328545 c 0,0.2113576 -0.246577,0.3686686 -0.497087,0.3686686 z"
    fill="white"
  />
  <path
    d="M 26.025391 2.375 C 23.32315 2.3752147 23.154812 2.3806342 23.076172 2.4824219 C 23.018242 2.5562478 23.025574 5.5622225 23.083984 5.7285156 C 23.140995 5.8899791 23.317685 6.0739197 23.636719 6.3046875 C 24.063596 6.6131257 24.280323 6.6697493 25.154297 6.6914062 L 25.160156 6.6914062 C 25.709759 6.7050022 27.923396 6.6955134 28.333984 6.6777344 C 28.488446 6.6710294 28.651776 6.6584705 28.697266 6.6484375 C 28.803423 6.624967 28.899374 6.5530035 28.927734 6.4765625 C 28.976594 6.3435525 28.985704 6.0995815 28.996094 4.6289062 C 29.006774 3.1192262 28.994173 2.6030025 28.945312 2.5019531 C 28.889144 2.3803783 28.781555 2.3747845 26.025391 2.375 z M 26.066406 2.9316406 C 26.284251 2.9079827 26.505677 2.9359405 26.677734 3.0234375 C 26.970598 3.1723695 27.193449 3.554473 27.191406 3.90625 C 27.189106 4.301946 26.967774 4.5977079 26.25 5.1699219 L 25.949219 5.4101562 L 26.570312 5.4101562 L 27.191406 5.4101562 L 27.191406 5.6660156 L 27.191406 5.9238281 L 26.242188 5.9238281 C 25.360695 5.9238281 25.28475 5.9156105 25.189453 5.8203125 C 25.062784 5.6936435 25.055827 5.4554305 25.175781 5.3203125 C 25.225201 5.2646425 25.523703 5.0180315 25.839844 4.7734375 C 26.155984 4.5288435 26.463418 4.2691315 26.521484 4.1953125 C 26.771114 3.8779595 26.567319 3.4589844 26.164062 3.4589844 C 25.878046 3.4589844 25.703125 3.6323165 25.703125 3.9140625 C 25.703125 4.0785785 25.733315 4.1425971 25.863281 4.2519531 C 25.951551 4.3262331 26.014513 4.3933486 26.003906 4.4003906 C 25.993296 4.4073906 25.896352 4.4776236 25.789062 4.5566406 C 25.561515 4.7242196 25.506196 4.7129304 25.3125 4.4589844 C 25.026121 4.0835224 25.107621 3.4460439 25.478516 3.1542969 C 25.635127 3.0311064 25.848562 2.9552985 26.066406 2.9316406 z "
    fill="white"
  />
</svg>
