<?xml version="1.0" encoding="UTF-8" ?>
<svg xmlns="http://www.w3.org/2000/svg" width="30" height="10">
  <path
    d="m 9.5,0.5 v 9 h 9 v -9 z m 0.19,1.12 h 1.67 c 0.81,0 0.98,0.45 0.98,0.76 0,0.31 -0.15,0.48 -0.38,0.6 0.19,0.1 0.38,0.2 0.47,0.43 V 1.62 h 3.6 l 0.43,1.79 v 0 L 16.9,1.62 h 1.33 v 3.05 h -0.88 v -1.96 0 l -0.53,1.96 h -0.7 L 15.59,2.71 v 0 1.96 H 14.7 V 2.35 h -1.32 v 0.46 h 0.86 v 0.7 H 13.38 V 4.67 H 12.44 V 4.06 c -0.15,0.4 -0.57,0.61 -1.01,0.61 H 9.7 Z m 0.94,0.73 v 0.46 h 0.5 c 0.19,0 0.32,-0.1 0.32,-0.25 0,-0.16 -0.13,-0.21 -0.32,-0.21 z m 0,1.03 v 0.57 h 0.55 c 0.2,0 0.37,-0.1 0.37,-0.3 0,-0.18 -0.11,-0.27 -0.33,-0.27 z m 0.45,1.57 h 3.49 l 0.56,2.07 v 0 l 0.55,-2.07 h 1.08 L 15.69,8.36 H 14.51 L 13.76,5.82 H 12.98 V 8.36 H 11.93 V 5.82 h -0.86 z m 5.39,2.43 h 1 v 1 h -1 z"
    fill="white"
  />
</svg>
