<?xml version="1.0" encoding="UTF-8"?>
<svg xmlns="http://www.w3.org/2000/svg" width="30" height="10">
  <path d="m 17.08462,6.0377825 c 0,0.989205 0.90635,1.890089 2.3565,1.890089 0.94259,0 2.24773,-0.556428 2.24773,-1.863592 0,-0.768401 -0.55287,-1.165849 -1.1148,-1.368989 0.46223,-0.220805 0.87009,-0.618254 0.87009,-1.280668 0,-0.84789 -0.78852,-1.633955 -2.01209,-1.633955 -1.22356,0 -2.11178,0.803729 -2.11178,1.695781 0,0.538763 0.34441,0.97154 0.87916,1.227674 -0.65257,0.238469 -1.11481,0.68891 -1.11481,1.33366 z m 1.64955,-2.508341 c 0,-0.353288 0.29909,-0.64475 0.66162,-0.64475 h 0.0362 c 0.36254,0 0.66163,0.291462 0.66163,0.64475 v 0 c 0,0.353287 -0.29909,0.644749 -0.66163,0.644749 h -0.0362 c -0.36253,0 -0.66162,-0.291462 -0.66162,-0.644749 z m -0.0816,2.534838 c 0,-0.388616 0.33535,-0.697743 0.74319,-0.697743 h 0.0362 c 0.40785,0 0.7432,0.317959 0.7432,0.697743 v 0 c 0,0.388616 -0.33535,0.697743 -0.7432,0.697743 h -0.0362 c -0.40784,0 -0.74319,-0.309127 -0.74319,-0.697743 z M 6,0.50000047 V 9.4999985 H 24 V 0.50000047 Z m 7.03323,3.25024503 c 0,0 -0.83383,-0.494602 -1.56797,-0.494602 -1.01511,0 -1.75831,0.64475 -1.75831,1.625123 0,0.794897 0.53474,1.563297 1.71299,1.563297 0.48036,0 1.17824,-0.28263 1.17824,-0.28263 l 0.0272,0.0088 -0.27191,1.421982 c 0,0 -0.42598,0.229637 -1.16012,0.229637 -2.16616,0 -3.08157,-1.342492 -3.08157,-2.923454 0,-1.57213 1.19638,-3.091266 3.23565,-3.091266 1.15106,0 1.74924,0.406281 2.02115,0.56526 z M 23.6012,9.1113785 H 15.20845 V 0.88861647 h 8.39275 z"
        fill="white" />
</svg>
