<?xml version="1.0" encoding="UTF-8"?>
<svg xmlns="http://www.w3.org/2000/svg" width="30" height="10">
  <path d="M 5,0.50032051 V 4.7039998 h 3.4575453 c 3.152e-4,1.3837915 -0.00223,2.767263 0.00125,4.1510543 0.337274,3.066e-4 0.6742432,9.601e-4 1.0115173,-5.999e-4 0.02238,0.2145525 0.040041,0.429385 0.05864,0.6442441 0.1613872,-6.267e-4 0.3233857,0.00533 0.4847724,-0.004 2.080383,-0.1799805 4.160765,-0.3596675 6.241146,-0.5393279 0.410402,-0.033599 0.819863,-0.077864 1.23121,-0.096263 -0.525758,-0.00667 -1.05158,-0.00667 -1.577416,-0.00667 0.525826,-6.267e-4 1.051674,-1.067e-4 1.577416,0.00667 0.07281,6.267e-4 0.146871,0.004 0.21937,-0.00933 0.25122,0.013332 0.503072,0.00267 0.754609,0.00533 h 5.532896 c 0.0021,-0.1899533 -0.0025,-0.3795735 0.0031,-0.5692067 C 24.330494,8.2537677 24.665562,8.2289687 25,8.1980357 24.88716,6.8092711 24.757926,5.4217333 24.634678,4.0335819 c -0.913162,0.08093 -1.826344,0.1597544 -2.739505,0.237285 3.16e-4,-1.2567426 -3.16e-4,-2.5138052 0,-3.77086789 z M 7.2102214,1.1020994 c 0.1065065,0.00133 0.2128134,0.011999 0.3165173,0.030666 0.2067775,0.038665 0.4145009,0.1030629 0.5837684,0.2310185 C 8.0591283,1.5736565 8.0420817,1.7916621 7.9749423,1.9974949 7.7467307,1.8333941 7.4624273,1.7402506 7.1790543,1.7660897 6.9328756,1.7922221 6.6841587,1.9214842 6.5709986,2.1472363 6.4524799,2.3879342 6.4386373,2.6946434 6.5902536,2.9247554 6.722327,3.1299615 6.974772,3.228998 7.2143313,3.2274381 7.4166957,3.2327709 7.6067698,3.1558405 7.7927434,3.086363 7.7492443,3.3105553 7.7312899,3.5425605 7.664151,3.7608328 7.11285,4.0005978 6.3799874,3.8869616 5.9929106,3.4086586 5.7410579,3.0919762 5.6707657,2.6613246 5.7401117,2.271165 5.8075665,1.9140042 5.991657,1.5615499 6.307812,1.3613303 6.5690419,1.1749636 6.8907032,1.0976862 7.2102222,1.1021127 Z m 12.2185026,0.052132 h 0.774787 c 3.16e-4,0.2892699 -3.53e-4,0.578553 2.77e-4,0.8678363 0.321829,0.00933 0.643701,-1.33e-5 0.965528,0.00533 0.0019,0.2531645 2.94e-4,0.5063023 9.26e-4,0.7594667 -0.312372,0.00933 -0.625684,-0.00267 -0.938058,0.00667 -0.006,0.00533 -0.01797,0.016133 -0.02428,0.021466 -0.01133,0.3285085 3.11e-4,0.6576436 -0.0057,0.9864587 -0.255636,6.267e-4 -0.51158,-3.333e-4 -0.767215,9.201e-4 -0.02237,-0.3366149 0.0013,-0.6747763 -0.01253,-1.0116979 -0.324666,3.067e-4 -0.649314,-3.066e-4 -0.973978,3.2e-4 0.0019,-0.2547111 -0.0013,-0.5094355 0.0019,-0.7638266 0.325294,-6.267e-4 0.650575,2.67e-5 0.975869,-6e-4 0.0013,-0.2905231 -0.0031,-0.5810462 0.0025,-0.8715693 z m -3.485296,0.051065 c 0.194485,0.8612765 0.361225,1.7287661 0.552557,2.5909892 -0.232626,0.030132 -0.471844,0.0144 -0.706359,0.008 -0.03025,-0.1513281 -0.06558,-0.301416 -0.09585,-0.4527575 -0.08384,-0.025866 -0.172379,-0.017066 -0.258431,-0.018133 -0.201103,0.00133 -0.402234,-0.00133 -0.603022,9.199e-4 -0.04286,-0.008 -0.06553,0.035199 -0.08098,0.065731 -0.06368,0.1338887 -0.125787,0.2680973 -0.191662,0.400746 -0.266039,-0.00267 -0.532388,0.00533 -0.798105,-0.004 0.424585,-0.8379306 0.85202,-1.674648 1.273455,-2.5141385 0.0186,-0.031732 0.03531,-0.08493 0.08353,-0.076264 0.274863,-0.00267 0.550023,0.00133 0.824885,-0.00123 z m 1.208817,0 c 0.247754,0.00133 0.495551,2.8e-4 0.743621,9.068e-4 -0.08289,0.6685364 -0.189441,1.3339931 -0.274546,2.002223 0.264144,0.00133 0.528602,5.999e-4 0.792747,9.066e-4 -0.01765,0.1980465 -0.04983,0.3945462 -0.07568,0.5916459 -0.520094,-9.332e-4 -1.040513,0.00133 -1.56061,-0.00133 C 16.896922,2.9343191 17.026788,2.070216 17.15224,1.205513 Z m -5.500342,8e-5 c 0.125653,5.068e-4 0.251349,0.00267 0.376958,0.00133 0.286524,0.4882494 0.562013,0.9826988 0.852635,1.468455 0.08069,-0.4882494 0.140901,-0.9796189 0.221911,-1.4678684 0.241762,-0.008 0.483199,0.017466 0.724963,0.00933 -0.1182,0.8622232 -0.247439,1.722913 -0.371001,2.5845093 -0.237668,0 -0.475017,-3.465e-4 -0.712684,2.8e-4 -0.305123,-0.5315413 -0.607066,-1.0649226 -0.911876,-1.5964507 -0.07817,0.5299681 -0.151955,1.0609095 -0.230128,1.5908776 -0.216547,0.010666 -0.433714,0.004 -0.650581,0.004 -0.05736,0.012001 -0.05925,-0.055731 -0.04852,-0.091863 0.109692,-0.7909056 0.223768,-1.5814913 0.333462,-2.3720903 0.01355,-0.041065 0.0013,-0.09693 0.03815,-0.1263954 0.125454,-0.004 0.251076,-0.00533 0.376729,-0.004 z m -2.0440437,5.068e-4 c 0.1470847,0 0.2941403,3.333e-4 0.4411857,9.599e-4 0.187864,0.8628497 0.378564,1.7253661 0.55634,2.5900825 -0.227896,0.008 -0.456113,0.004 -0.6840093,0.00267 C 9.8813433,3.650437 9.8466692,3.4997223 9.8085291,3.3502609 c -0.3101659,0.004 -0.6206707,-0.008 -0.9302066,0.00667 C 8.8074,3.5051527 8.7390063,3.6543075 8.6639866,3.8006491 c -0.2631999,9.331e-4 -0.5260858,9.331e-4 -0.7892856,0 C 8.0051972,3.4768163 8.1899358,3.1766534 8.3339862,2.8584245 8.6085339,2.3063372 8.8918966,1.7589165 9.1664438,1.2071491 9.3136467,1.2065226 9.4607756,1.2061892 9.6078601,1.2061892 Z M 22.9408,4.6725072 c -0.349212,-3.467e-4 -0.698394,-1.2e-4 -1.047487,0.00267 0.349093,-0.00267 0.698275,-0.004 1.047487,-0.00267 z m 1.047718,3.198e-4 c -0.0015,0.6023656 -3.95e-4,1.2048246 0,1.80727 -3.95e-4,-0.6024454 -0.0015,-1.2049044 0,-1.80727 z m -7.251139,0.6098459 c 0.321808,0.00667 0.642562,0.1039962 0.900008,0.2966162 0.261938,0.1933665 0.448518,0.483903 0.509983,0.8015052 0.0955,0.4530641 -0.03815,0.957513 -0.382036,1.2791685 C 17.245552,8.1662783 16.347868,8.200837 15.773558,7.7639591 15.448893,7.5229543 15.244614,7.129688 15.243351,6.7276888 15.2298,6.3415691 15.377655,5.9470228 15.662604,5.6792322 c 0.203625,-0.1992864 0.473134,-0.3269619 0.754933,-0.3736668 0.105199,-0.017466 0.212571,-0.025199 0.319842,-0.022933 z m -5.061882,0.027999 c 0.277689,-8.533e-4 0.55549,0.08533 0.800644,0.2110061 -0.087,0.1790469 -0.179693,0.3556141 -0.268267,0.5340344 -0.131759,-0.1027964 -0.289637,-0.1924465 -0.463949,-0.1768871 -0.120733,0.00667 -0.260376,0.093063 -0.251552,0.2266987 0.0083,0.1149293 0.128934,0.1753004 0.226019,0.2095526 0.246494,0.079731 0.528893,0.1289289 0.702572,0.3381749 0.195431,0.2139125 0.173378,0.531208 0.107815,0.791839 -0.05863,0.2578175 -0.284344,0.4455976 -0.530208,0.5268613 -0.441294,0.1497816 -0.943703,0.036399 -1.313444,-0.2326183 0.09518,-0.1815405 0.193853,-0.3615074 0.283689,-0.5458476 0.160441,0.1313287 0.344192,0.2550578 0.559478,0.265324 0.138062,0.010666 0.312707,-0.049198 0.340759,-0.200553 C 11.89868,7.1477274 11.82208,7.0449577 11.723422,7.0013592 11.47756,6.8854966 11.179991,6.8705639 10.970061,6.684397 10.778729,6.5056699 10.768034,6.2176133 10.810901,5.9775418 c 0.05138,-0.3004962 0.2865,-0.562967 0.588156,-0.6352044 0.09133,-0.021466 0.183875,-0.031332 0.276439,-0.031732 z m 2.434669,0.062798 c 0.155082,0 0.315544,0.016533 0.453606,0.091597 0.227267,0.1198624 0.38015,0.3553208 0.409464,0.6069253 0.0312,0.2662306 -2.5e-5,0.5613937 -0.175596,0.7768793 -0.14342,0.173434 -0.374758,0.2506713 -0.595406,0.259391 -0.164852,0.004 -0.329704,-3.2e-4 -0.494558,0.00124 0.0016,0.2842967 -0.0028,0.5685666 0.0024,0.8525434 -0.224114,0.00667 -0.448206,0.00133 -0.672004,0.004 -6.31e-4,-0.8637697 -8e-6,-1.7275795 -3.24e-4,-2.5913492 0.357448,-6.265e-4 0.714881,2.933e-4 1.072327,-6.399e-4 z m 4.635794,0 c 0.324667,0.00267 0.649673,-0.004 0.974024,0.00267 0.26005,0.011999 0.550644,0.09213 0.697218,0.3228955 0.136485,0.2266852 0.138362,0.5109686 0.07941,0.7616398 -0.06334,0.2491112 -0.28051,0.4219319 -0.517233,0.5035157 0.216232,0.3325617 0.42901,0.6670033 0.642408,1.0011115 -0.26194,-0.00124 -0.524207,0.00133 -0.786147,-0.00133 -0.204259,-0.3372418 -0.410098,-0.6729099 -0.614984,-1.0098315 -0.04256,0.3369216 -0.08286,0.6741897 -0.124481,1.0114179 -0.223798,-3.067e-4 -0.447283,0 -0.671084,-3.2e-4 0.104335,-0.8643964 0.214634,-1.7278995 0.320859,-2.5916691 z m 2.101206,6.401e-4 c 0.604257,-3.2e-4 1.208182,-3.2e-4 1.812438,0 v 0.5754464 c -0.189126,3.066e-4 -0.378249,-3.467e-4 -0.567376,2.8e-4 3.15e-4,0.671643 0,1.3436462 0,2.0153026 -0.231049,0 -0.462103,1.33e-5 -0.693152,3.2e-4 3.15e-4,-0.6719631 3.15e-4,-1.3439396 0,-2.0159026 -0.184082,-3.067e-4 -0.367828,0 -0.55191,0 -3.13e-4,-0.1918066 -3.13e-4,-0.38364 0,-0.5754464 z m 3.137564,2.9132844 c -0.488338,0.044797 -0.976798,0.088397 -1.465354,0.1313287 0.488556,-0.042934 0.977016,-0.08653 1.465354,-0.1313287 z m -2.931216,0.2582575 c -0.977305,0.083864 -1.954686,0.1669272 -2.931677,0.2533377 -0.06981,0.00533 -0.139867,0.00933 -0.209489,0.016397 -0.03481,0.004 -0.06952,0.008 -0.104026,0.013333 0.03451,-0.00533 0.06922,-0.00933 0.104026,-0.013333 0.06961,-0.00667 0.139669,-0.010666 0.209489,-0.016397 0.976991,-0.086397 1.954372,-0.1694609 2.931677,-0.2533377 z"
        fill="white" />
  <path d="m 15.031816,2.7777872 c 0.126397,-0.2730837 0.244594,-0.549594 0.371619,-0.8223711 0.05832,0.275577 0.121676,0.5502207 0.179663,0.8261043 -0.18376,-0.00133 -0.367521,0.00267 -0.551282,-0.004 z"
        fill="white" />
  <path d="M 9.1385541,2.7731208 C 9.2592752,2.5040768 9.3765287,2.2331798 9.5004016,1.9653891 9.5602905,2.2375395 9.6211227,2.50969 9.683847,2.7815204 c -0.1818693,0.00133 -0.3634236,-0.013332 -0.5452929,-0.008 z"
        fill="white" />
  <path d="m 16.551703,5.9075042 c 0.256571,-0.051998 0.53836,0.029866 0.716131,0.2223255 0.193846,0.1936865 0.258777,0.4963426 0.169262,0.7526137 -0.0873,0.2677906 -0.338208,0.4720634 -0.619996,0.5091155 -0.262245,0.039599 -0.54025,-0.069731 -0.705099,-0.2749504 -0.157284,-0.1902601 -0.216226,-0.4602238 -0.138687,-0.695629 0.08194,-0.2562709 0.312361,-0.4589838 0.578389,-0.5134753 z"
        fill="white" />
  <path d="m 13.707354,5.9265036 c 0.165479,0.008 0.362479,-0.038932 0.495807,0.086264 0.110622,0.1245291 0.110622,0.3400281 6.3e-4,0.4645838 -0.137426,0.1133294 -0.331272,0.080664 -0.496437,0.087464 0,-0.2126861 3.13e-4,-0.4256651 0,-0.6383377 z"
        fill="white" />
  <path d="m 19.267451,6.5190562 c 0.029,-0.1958599 0.05326,-0.3923331 0.0851,-0.5878861 0.141523,0.004 0.302907,-0.00533 0.419529,0.088797 0.118196,0.099597 0.08952,0.2986162 -0.02679,0.3886131 -0.132382,0.1095961 -0.313939,0.1142626 -0.477841,0.1105295 z"
        fill="white" />
</svg>
