<?xml version="1.0" encoding="UTF-8" ?>
<svg xmlns="http://www.w3.org/2000/svg" width="30" height="10">
  <path
    d="m 1,1.5 v 7 h 28 v -7 z m 3.73997,1.04595 c 0.45255,0.008 0.7853,0.11383 0.94642,0.16789 0,0 0.23557,0.0739 0.41158,0.19371 0.0894,0.0595 0.10205,0.0829 0.10205,0.0829 0,0 0.005,0.0127 -0.019,0.10457 l -0.16603,0.8669 c -0.006,0.0361 -0.028,0.054 -0.028,0.054 0,0 -0.0118,0.006 -0.0957,-0.0478 C 5.36055,3.59234 4.73957,3.63748 4.73957,3.63748 4.2675,3.66718 3.71505,3.91498 3.55077,4.54037 c -0.14622,0.55509 0.006,1.0201 0.33677,1.29675 0.22475,0.19734 0.57403,0.29559 0.94139,0.27847 0.39986,-0.0297 0.71942,-0.18836 0.69595,-0.17665 0,0 0.0171,-0.006 0.0361,-0.0117 0.083,-0.0415 0.10106,-0.0361 0.10106,-0.0361 0,0 0.0181,0.018 0.005,0.0721 L 5.5009,6.9113 c -0.006,0.0469 -0.0298,0.0829 -0.0298,0.0829 0,0 -0.0253,0.0243 -0.0632,0.036 C 4.83745,7.25999 4.20652,7.18256 4.20652,7.18256 3.18296,7.07262 2.5349,6.44538 2.32549,5.63796 2.0177,4.42774 2.62784,3.56902 2.77677,3.38429 3.13511,2.95445 3.69656,2.64799 4.24896,2.5759 4.42452,2.5514 4.58866,2.5432 4.73951,2.5459 Z m 20.35983,0.0831 h 1.17698 c 0.0235,0 0.0299,0.006 0.0299,0.006 0,0 0.0117,0.0127 0.0117,0.0361 v 1.41564 h 1.53803 c 0.0388,0 0.0505,0.006 0.0505,0.006 0,0 0.018,0.006 0.018,0.0415 v 1.19033 c 0,0.0117 -0.018,0.0297 -0.018,0.0297 0,0 -0.005,0.0117 -0.0244,0.0117 h -1.51004 c -0.0244,0 -0.0361,0.0117 -0.0361,0.0117 0,0 -0.0181,0.006 -0.0181,0.0361 v 1.60945 c 0,0.0243 -0.0117,0.0298 -0.0117,0.0298 0,0 -0.006,0.0126 -0.0244,0.0126 h -1.2005 c -0.0172,0 -0.0298,-0.0126 -0.0298,-0.0126 0,0 -0.006,-0.005 -0.006,-0.0352 V 5.40754 c 0,-0.0171 -0.0144,-0.0298 -0.0144,-0.0298 0,0 -0.009,-0.0117 -0.0244,-0.0117 h -1.54974 c -0.0298,0 -0.0352,-0.006 -0.0352,-0.006 0,0 -0.0118,-0.0118 -0.0118,-0.0478 V 4.13449 c 0,-0.0144 0.0118,-0.0298 0.0118,-0.0298 0,0 0.005,-0.005 0.0181,-0.005 h 1.58222 c 0.0126,0 0.0127,-0.006 0.0127,-0.006 0,0 0.0108,-0.006 0.0108,-0.0181 V 2.66531 c 0,-0.0171 0.006,-0.0298 0.006,-0.0298 0,0 0.0126,-0.006 0.0478,-0.006 z M 7.99431,2.71915 h 0.0416 1.35297 c 0.0244,0 0.0416,0.0181 0.0416,0.0181 0,0 0.006,0.006 0.0127,0.0234 l 0.90978,4.26956 c 0,0.018 -0.0108,0.0235 -0.0108,0.0235 0,0 -0.006,0.006 -0.0189,0.006 l -1.05066,0.006 c -0.0244,0 -0.0416,-0.0126 -0.0416,-0.0126 0,0 -0.006,-0.005 -0.0126,-0.0469 L 9.05412,6.3259 c 0,-0.0144 -0.0108,-0.0208 -0.0108,-0.0208 h -0.019 -1.48389 c -0.0298,0 -0.0478,0.0208 -0.0478,0.0208 0,0 -0.0235,0.0179 -0.0416,0.0594 L 7.15506,7.01793 c -0.0117,0.0243 -0.0181,0.0298 -0.0181,0.0298 0,0 -0.0172,0.0117 -0.0326,0.0117 H 5.88045 c -0.0361,0.006 -0.0424,-0.0117 -0.0424,-0.0117 0,0 -0.006,-0.018 0.006,-0.0415 L 7.96702,2.74837 c 0.009,-0.0243 0.027,-0.0297 0.027,-0.0297 z m 9.8665,0 h 1.32956 c 0.0298,0 0.0469,0.0181 0.0469,0.0181 0,0 0.006,0.006 0.0127,0.0234 l 0.89261,4.29307 c 0,0.0126 -0.006,0.0189 -0.006,0.0189 0,0 -2e-5,0.005 -0.0172,0.005 h -1.08139 c -0.0235,0.0117 -0.0423,-0.0117 -0.0423,-0.0117 0,0 -0.005,-0.006 -0.0118,-0.0423 l -0.1435,-0.66773 c -0.0117,-0.0324 -0.0234,-0.0505 -0.0234,-0.0505 0,0 -0.0298,-0.0181 -0.0659,-0.0181 h -1.40624 c -0.0271,0 -0.0452,0.0181 -0.0452,0.0181 0,0 -0.0235,0.0207 -0.0361,0.0568 l -0.31949,0.68043 c -0.005,0.0171 -0.0172,0.0234 -0.0172,0.0234 0,0 -0.0244,0.006 -0.0361,0.006 h -1.21855 c -0.0298,0.005 -0.0388,-0.0127 -0.0388,-0.0127 0,0 -0.005,-0.0117 0.009,-0.036 l 2.14725,-4.27503 c 0.0117,-0.005 0.0235,-0.0243 0.0235,-0.0243 0,0 0.0126,-0.005 0.0478,-0.005 z m 3.40474,0 h 0.0622 1.10841 c 0.0298,0 0.0388,0.005 0.0388,0.005 0,0 0.006,0.0189 0,0.0423 l -0.45402,3.27381 c -0.006,0.0352 0.0117,0.0387 0.0117,0.0387 0,0 0.0118,0.006 0.0605,0.006 h 1.20323 c 0.0262,0 0.0351,0.0108 0.0351,0.0108 0,0 0.006,0.006 0.006,0.036 L 23.2211,7.01223 c -0.005,0.0351 -0.0118,0.0468 -0.0118,0.0468 0,0 -0.006,0.0127 -0.0361,0.0127 h -2.43397 c -0.0704,0 -0.0893,-0.0189 -0.0894,-0.0189 0,0 -0.0116,-0.0235 -0.006,-0.0767 l 0.60386,-4.18939 c 0.006,-0.0505 0.018,-0.0685 0.018,-0.0685 z m -9.76544,0.005 h 1.2005 c 0.0181,0 0.0297,0.0126 0.0297,0.0126 0,0 0.0117,0.006 0.0181,0.0234 l 1.35307,2.37092 c 0.0235,0.0469 0.0415,0.0414 0.0415,0.0414 0,0 0.0181,4e-5 0.0299,-0.054 l 0.34114,-2.35834 c 0,-0.0171 0.0108,-0.0234 0.0108,-0.0234 0,0 0.006,-0.0126 0.0244,-0.0126 l 1.1282,0.0126 c 0.0244,0 0.0307,0.006 0.0307,0.006 0,0 0.005,0.005 0.005,0.0171 l -0.60933,4.26332 c -0.006,0.0243 -0.0172,0.0423 -0.0172,0.0423 0,0 -0.006,0.006 -0.0361,0.006 h -1.08128 -0.0352 c 0,0 -0.004,-0.006 -0.01,-0.0127 L 12.42207,4.39951 c -0.0117,-0.0117 -0.0172,-0.0117 -0.0172,-0.0117 0,0 -0.0126,5e-5 -0.0126,0.0172 l -0.37286,2.61232 c -0.006,0.0297 -0.0126,0.0352 -0.0126,0.0352 0,0 -0.0117,0.006 -0.0297,0.006 h -1.07505 c -0.0172,0 -0.0297,-0.0117 -0.0297,-0.0117 0,0 -0.0235,-0.0244 -0.0144,-0.0478 L 11.44552,2.7719 c 0.006,-0.0243 0.0189,-0.0298 0.0189,-0.0298 0,0 0.0172,-0.0189 0.0352,-0.0189 z m 6.83911,1.22642 c 0,0 -0.006,-2e-5 -0.0127,0.0234 l -0.5903,1.33273 c -0.0126,0.0415 -0.006,0.0478 -0.006,0.0478 0,0 0.0171,0.0117 0.0298,0.0117 l 0.87467,-0.006 h 0.0117 c 0,0 0.006,-0.005 0,-0.0235 L 18.35118,3.96788 c -0.005,-0.0171 -0.0117,-0.0171 -0.0117,-0.0171 z m -9.8105,0.0171 c 0,0 -0.005,7e-5 -0.0117,0.0127 L 7.92573,5.31858 c -0.0117,0.018 -0.006,0.0296 -0.006,0.0296 0,0 0.006,0.006 0.0362,0.006 l 0.86822,0.005 c 0.006,0 0.009,-0.005 0.009,-0.005 0,0 0.006,-0.006 0,-0.0243 L 8.53434,3.97997 c 0,-0.0126 -0.005,-0.0127 -0.005,-0.0127 z"
    fill="white"
  />
</svg>
