<?xml version="1.0" encoding="UTF-8" ?>
<svg xmlns="http://www.w3.org/2000/svg" width="30" height="10">
  <path
    d="M 9.589209,0.5 C 9.5593825,0.49995 9.5296033,0.50132 9.5,0.50741 V 9.5 h 9 V 0.50015 c -2.940397,0.002 -5.880802,2.3e-4 -8.8213477,9e-4 -0.029752,4.7e-4 -0.059617,-0.001 -0.089443,-0.001 z m 2.657256,2.44846 c 0.143549,-0.002 0.247924,0.0671 0.301816,0.21111 0.01693,0.0453 0.03068,0.10802 0.03056,0.13948 -0.0016,0.39986 -0.552198,1.16528 -1.012353,1.40734 -0.171873,0.0904 -0.328184,0.0318 -0.328184,-0.12302 0,-0.0685 0.08071,-0.17145 0.218672,-0.27888 0.213042,-0.1659 0.456055,-0.42005 0.580488,-0.60712 0.235346,-0.35381 0.270617,-0.48937 0.121114,-0.46547 -0.259861,0.0416 -0.742531,0.51346 -1.097022,1.07256 -0.214575,0.33843 -0.315662,0.73469 -0.24668,0.96698 0.05537,0.18644 0.204779,0.26485 0.406319,0.21322 0.257073,-0.0659 0.750772,-0.39765 1.026533,-0.68988 0.172911,-0.18324 0.348773,-0.50886 0.684463,-1.26739 0.18066,-0.40821 0.227427,-0.49107 0.297803,-0.52746 0.110459,-0.0571 0.28635,-0.0412 0.310722,0.0281 0.02549,0.0725 -0.0024,0.13191 -0.646963,1.37988 -0.07984,0.15459 -0.145166,0.28624 -0.145166,0.29256 0,0.006 0.07456,-0.062 0.165674,-0.15185 0.220838,-0.21771 0.361471,-0.33309 0.4621,-0.37916 0.07517,-0.0344 0.08987,-0.0364 0.153808,-0.0203 0.15219,0.0383 0.207011,0.0969 0.170391,0.18193 -0.01002,0.0233 -0.07139,0.12592 -0.136377,0.22811 -0.229108,0.36026 -0.24269,0.40756 -0.116982,0.40752 0.0255,-10e-6 0.218582,-0.0799 0.236543,-0.0978 0.0018,-0.002 0.01458,-0.0582 0.02845,-0.12534 0.0629,-0.30452 0.280438,-0.59136 0.538974,-0.71071 0.101545,-0.0469 0.244594,-0.0833 0.327364,-0.0833 0.248278,0 0.2887,0.22448 0.08522,0.4732 -0.08205,0.10029 -0.357327,0.31036 -0.581543,0.44376 -0.03802,0.0226 -0.0071,0.092 0.05546,0.12437 0.137679,0.0712 0.397459,-0.0559 0.65959,-0.32279 l 0.09917,-0.10096 -0.04315,-0.04 c -0.03965,-0.0367 -0.04262,-0.0471 -0.03627,-0.12771 0.008,-0.1022 0.05045,-0.19822 0.13084,-0.29631 0.07085,-0.0864 0.185394,-0.18218 0.232471,-0.19432 0.0476,-0.0123 0.09568,0.0332 0.09568,0.0904 0,0.0355 0.0056,0.0432 0.02698,0.0369 0.138147,-0.0411 0.354254,-0.0865 0.411504,-0.0865 0.0675,0 0.07288,0.003 0.11666,0.0724 0.03404,0.0537 0.04588,0.091 0.04588,0.14435 0,0.076 -0.01516,0.10288 -0.125537,0.22251 -0.183133,0.19849 -0.248371,0.37472 -0.160137,0.43254 0.04609,0.0302 0.103123,0.0152 0.208565,-0.0548 0.149083,-0.099 0.204162,-0.17095 0.315527,-0.4122 0.05777,-0.12515 0.121736,-0.25007 0.142148,-0.27762 l 0.03712,-0.0501 h 0.161514 c 0.124483,0 0.163431,0.005 0.169834,0.0216 0.0046,0.0119 -0.0754,0.18416 -0.177715,0.38276 -0.117825,0.22873 -0.186035,0.3783 -0.186035,0.40799 0,0.10444 0.106199,0.11417 0.292412,0.0268 l 0.123692,-0.0581 v -0.0884 c 0,-0.10662 0.04356,-0.25246 0.111621,-0.37377 0.204381,-0.36429 0.66024,-0.60435 0.908789,-0.47857 0.04931,0.025 0.08123,0.12045 0.06536,0.19562 -0.0359,0.17006 -0.266565,0.41264 -0.678574,0.71355 l -0.04503,0.0329 0.03735,0.0403 c 0.0318,0.0343 0.05015,0.0403 0.123281,0.04 0.163159,-7e-4 0.367713,-0.11699 0.576387,-0.32769 0.06631,-0.067 0.125135,-0.11718 0.130722,-0.11159 0.0056,0.006 0.01821,0.0375 0.02807,0.0708 0.01766,0.0598 0.01682,0.062 -0.05868,0.15694 -0.345682,0.43446 -0.713485,0.6344 -0.960556,0.52216 -0.05837,-0.0265 -0.150344,-0.11447 -0.164678,-0.15747 -0.0046,-0.0137 -0.02742,-0.005 -0.07538,0.0277 -0.366221,0.25197 -0.567124,0.25284 -0.684141,0.003 -0.02146,-0.0458 -0.04333,-0.1093 -0.0486,-0.14106 l -0.0096,-0.0578 -0.142676,0.13638 c -0.141127,0.13492 -0.271586,0.21797 -0.342392,0.21797 -0.15996,0 -0.278855,-0.18918 -0.238828,-0.38001 0.02179,-0.1039 0.09131,-0.2574 0.159668,-0.35259 0.02715,-0.0378 0.04596,-0.0721 0.04181,-0.0763 -0.0042,-0.004 -0.07099,0.0137 -0.148506,0.0397 -0.123872,0.0416 -0.145151,0.0541 -0.17584,0.10386 -0.06039,0.0979 -0.266725,0.34554 -0.368877,0.44276 -0.41591,0.39584 -0.790024,0.45275 -0.946494,0.14397 -0.02104,-0.0415 -0.04139,-0.0755 -0.0452,-0.0755 -0.0038,0 -0.08172,0.0374 -0.173115,0.0831 -0.35779,0.17891 -0.430149,0.19569 -0.515391,0.11953 -0.04256,-0.038 -0.05005,-0.0562 -0.05569,-0.13483 -0.0097,-0.13461 0.03426,-0.25066 0.200625,-0.53012 l 0.03211,-0.0539 -0.05821,0.0539 c -0.163444,0.15143 -0.25079,0.25068 -0.42917,0.48758 -0.07799,0.10358 -0.160226,0.19921 -0.182725,0.21252 -0.04948,0.0293 -0.118946,0.0306 -0.155419,0.003 -0.04138,-0.0314 -0.07336,-0.12353 -0.07336,-0.21131 v -0.0796 l -0.212168,0.2062 c -0.325551,0.31639 -0.641494,0.52361 -0.935948,0.61382 -0.124454,0.0381 -0.308105,0.0521 -0.408398,0.0311 -0.03814,-0.008 -0.112354,-0.0357 -0.164883,-0.0615 C 10.23004,5.63424 10.171797,5.12956 10.451651,4.56618 10.613334,4.2407 10.791456,3.99457 11.074473,3.70556 11.555558,3.21428 11.972417,2.95225 12.246465,2.94859 Z m 4.551621,0.46201 c 0.05762,-2.2e-4 0.06956,0.006 0.09683,0.0498 0.02264,0.0365 0.02859,0.0647 0.02188,0.10404 -0.01568,0.0918 -0.07004,0.18558 -0.134854,0.23253 -0.08928,0.0647 -0.178023,0.063 -0.234814,-0.005 -0.03581,-0.0426 -0.04057,-0.0597 -0.0344,-0.12389 0.01279,-0.13314 0.150304,-0.25744 0.285351,-0.25796 z m -2.003643,0.0224 c 0.0025,-1.3e-4 0.0048,-8e-5 0.007,1.5e-4 0.01033,10e-4 0.01717,0.006 0.02578,0.0149 0.0248,0.0248 0.08291,0.25157 0.06987,0.27266 -0.0038,0.006 -0.04661,0.0156 -0.09521,0.0213 -0.158783,0.0183 -0.362691,0.066 -0.527578,0.12342 -0.225149,0.0784 -0.225069,0.0784 -0.236513,0.0356 -0.0053,-0.0198 -0.0097,-0.0556 -0.0098,-0.0796 -1.98e-4,-0.0412 0.01442,-0.0506 0.281045,-0.17909 0.154688,-0.0746 0.328957,-0.15436 0.387275,-0.17737 0.05342,-0.0211 0.08068,-0.031 0.0982,-0.032 z m 2.638623,0.63999 c -0.0354,0 -0.120657,0.0453 -0.174902,0.0929 -0.07957,0.0699 -0.142592,0.16579 -0.187793,0.28588 -0.02106,0.056 -0.03123,0.0994 -0.02259,0.0965 0.03392,-0.0114 0.290761,-0.25614 0.344385,-0.32818 0.0542,-0.0728 0.07486,-0.14713 0.0409,-0.14713 z M 14.454658,4.1952 c -0.03237,6.8e-4 -0.09512,0.0386 -0.173174,0.1116 -0.105846,0.099 -0.160028,0.17717 -0.198662,0.28667 -0.01261,0.0357 -0.01928,0.065 -0.01482,0.065 0.0528,0 0.342956,-0.27949 0.391026,-0.37664 0.02911,-0.0588 0.0242,-0.0872 -0.0044,-0.0866 z m 0.998584,1.16508 c 0.823759,-7.5e-4 1.303846,0.0351 1.957207,0.14616 0.388116,0.066 0.362139,0.0582 0.362139,0.10855 0,0.0239 -0.0055,0.0468 -0.0123,0.051 -0.0068,0.004 -0.126394,-0.005 -0.26584,-0.021 -0.502815,-0.0567 -0.779515,-0.0695 -1.494111,-0.0691 -0.679714,4.4e-4 -0.895632,0.01 -1.464053,0.0621 -1.454428,0.13437 -2.907869,0.49822 -4.143604,1.03728 -0.178756,0.078 -0.244407,0.0925 -0.258017,0.057 -0.01466,-0.0382 0.0062,-0.16642 0.04925,-0.30269 0.0466,-0.14752 0.07543,-0.17277 0.286758,-0.25134 0.832983,-0.3097 2.350235,-0.63166 3.526201,-0.74821 0.608516,-0.0603 0.793038,-0.0692 1.456377,-0.0698 z m 2.245635,0.62115 c 0.0093,0.004 0.02773,0.011 0.03697,0.0147 0.03283,0.0768 -0.01109,0.1614 -0.04453,0.23033 -0.19942,-0.0257 -0.405314,-0.0133 -0.596719,0.0525 -0.03776,0.0773 -0.07842,0.15319 -0.117568,0.22972 0.118665,-0.0376 0.239928,-0.0779 0.365683,-0.079 0.122981,3.2e-4 0.258913,0.0644 0.299444,0.18882 0.04593,0.13679 0.01697,0.29311 -0.0607,0.41285 -0.184163,0.28676 -0.555433,0.42279 -0.883535,0.35415 -0.08507,-0.0205 -0.170917,-0.0499 -0.238418,-0.10782 -0.03807,-0.0307 -0.09121,-0.0124 -0.13544,-0.0113 -0.203426,0.0307 -0.405637,0.0741 -0.599355,0.14423 -0.110035,0.0338 -0.214505,0.0841 -0.325928,0.11356 -0.04685,0.01 -0.08908,-0.0243 -0.112969,-0.0615 -0.04562,-0.0837 -0.07567,-0.19269 -0.02065,-0.27928 0.121131,-0.14857 0.27894,-0.25934 0.4292,-0.37553 0.117279,-0.0944 0.249653,-0.16887 0.361845,-0.26956 0.07413,-0.0671 0.171977,-0.14436 0.151172,-0.25822 -0.06442,-0.0694 -0.173056,-0.0657 -0.251807,-0.0223 -0.155498,0.0682 -0.260441,0.21194 -0.33164,0.36173 -0.100325,0.0195 -0.152732,-0.0868 -0.186328,-0.16327 -0.0057,-0.0568 -0.0045,-0.11957 0.03237,-0.16667 0.103718,-0.14778 0.28542,-0.21534 0.456328,-0.24648 0.107262,-0.007 0.218826,-0.0158 0.322851,0.018 0.08091,0.0305 0.163526,0.0713 0.213457,0.14532 0.0413,0.0564 0.05823,0.12809 0.0513,0.19749 -0.01973,0.084 -0.06472,0.15956 -0.124511,0.22089 -0.170137,0.18233 -0.391304,0.30379 -0.603516,0.42912 -0.07582,0.037 -0.143777,0.088 -0.220986,0.12222 0.267999,-0.0593 0.542024,-0.092 0.81665,-0.0804 0.0225,-0.0823 0.04992,-0.16329 0.09492,-0.23625 0.01218,0.002 0.0245,0.003 0.03683,0.005 0.05856,0.0948 0.138861,0.18312 0.243809,0.22541 0.114815,0.052 0.247497,0.0483 0.368935,0.0268 0.126065,-0.0414 0.246889,-0.12177 0.308379,-0.24322 0.03853,-0.0739 0.05611,-0.16871 0.0074,-0.24229 -0.100325,-0.0898 -0.241349,-0.021 -0.348457,0.0185 -0.09046,0.0437 -0.175838,0.0962 -0.25875,0.15258 -0.08831,-0.0457 -0.156129,-0.12887 -0.190342,-0.22198 0.0092,-9.3e-4 0.02761,-0.003 0.03685,-0.004 -0.0091,-0.002 -0.02729,-0.005 -0.03639,-0.006 0.03329,-0.0761 0.08769,-0.14004 0.120673,-0.21641 0.04423,-0.0843 0.06998,-0.17674 0.112207,-0.26195 0.180927,-0.0237 0.363539,-0.0358 0.543076,-0.0706 0.09201,-0.0177 0.183859,-0.0403 0.278174,-0.0399 z"
    fill="white"
  />
</svg>
