<?xml version="1.0" encoding="UTF-8"?>
<svg xmlns="http://www.w3.org/2000/svg" width="30" height="10">
  <path d="m 1,1.4999969 v 7 h 28 v -7 z m 6.9532743,0.40847 H 28.574078 v 6.19162 H 7.9532743 Z m -2.8247677,0.63203 c 0.239019,0 0.4693628,0.0258 0.6909985,0.0775 0.2216358,0.0517 0.4389083,0.12898 0.6561983,0.23648 l -0.2042186,1.22972 c -0.1738317,-0.1462 -0.3607011,-0.26224 -0.5649532,-0.33534 -0.2042527,-0.0774 -0.4129187,-0.11614 -0.6345543,-0.11614 -0.3737385,0 -0.6822561,0.12899 -0.9212749,0.38697 -0.2433647,0.25799 -0.3650639,0.58478 -0.3650639,0.98466 0,0.36118 0.099953,0.64066 0.3042057,0.83845 0.2042525,0.19779 0.491109,0.2967 0.8605017,0.2967 0.1607945,0 0.3259518,-0.0173 0.4954378,-0.056 0.1694858,-0.0387 0.3476128,-0.0946 0.5344818,-0.172 l -0.1868181,1.15237 c -0.1521032,0.0473 -0.3216398,0.086 -0.5085091,0.11177 -0.1868693,0.0257 -0.386725,0.0387 -0.599669,0.0387 -0.6431778,0 -1.1559819,-0.19784 -1.5427577,-0.58911 -0.3867759,-0.39558 -0.5780249,-0.91584 -0.5780249,-1.5694 0,-0.31388 0.047821,-0.6148 0.1477741,-0.89858 0.099953,-0.28378 0.2476934,-0.54613 0.4389085,-0.77832 0.2259813,-0.27089 0.5084751,-0.48157 0.8431014,-0.62346 0.3389721,-0.14619 0.7170394,-0.21499 1.1342359,-0.21499 z"
        fill="white" />
  <path d="m 9.2439759,7.1713369 v -4.519 h 1.1994391 c 0,0 2.090329,2.71741 2.085983,2.62283 -0.01304,-0.1462 -0.01739,-0.27949 -0.01739,-0.39128 v -2.23155 h 1.195094 v 4.519 H 12.51201 c 0,0 -2.12944,-2.95391 -2.125095,-2.74752 0.02173,0.83414 0.05649,2.74752 0.05649,2.74752 z"
        fill="white" />
  <path d="m 14.580613,7.1670469 v -4.51902 h 2.555329 v 0.99324 h -1.44715 v 0.78255 h 1.36458 v 0.97174 h -1.36458 v 0.76105 h 1.44715 v 1.01044 z"
        fill="white" />
  <path d="m 21.425243,2.6480269 0.612757,2.14987 c 0.02608,0.086 0.05649,0.18918 0.08257,0.30098 0.0087,0.043 0.02173,0.0988 0.03477,0.17629 0.01739,0.0774 0.02608,0.13758 0.03477,0.18489 0.03042,-0.1333 0.06084,-0.26659 0.08257,-0.39988 0.01304,-0.0645 0.03477,-0.15049 0.06953,-0.26658 l 0.573646,-2.14986 h 1.342851 l -1.381964,4.51901 h -1.234206 l -0.604065,-1.93058 c -0.04346,-0.14189 -0.07822,-0.27518 -0.108645,-0.39987 -0.0044,-0.013 -0.0087,-0.0387 -0.02173,-0.0731 -0.01304,-0.0387 -0.02173,-0.0817 -0.03477,-0.13329 -0.0044,0.013 -0.02173,0.073 -0.04781,0.18059 -0.03912,0.16339 -0.07822,0.30528 -0.117337,0.42137 l -0.595374,1.93058 h -1.238551 l -1.360236,-4.51042 h 1.342852 l 0.560608,2.15847 c 0.01738,0.073 0.04346,0.18489 0.07822,0.33538 0.03477,0.15908 0.06084,0.27518 0.06953,0.33968 0.03042,-0.12899 0.05214,-0.21928 0.06518,-0.27089 0.03912,-0.16769 0.07388,-0.30528 0.104299,-0.40417 l 0.612758,-2.15847 z"
        fill="white" />
  <path d="m 24.784544,5.7051369 c 0.186869,0.21068 0.369392,0.36548 0.538879,0.46438 0.178177,0.10319 0.356355,0.15478 0.525841,0.15478 0.160794,0 0.295513,-0.043 0.399813,-0.13329 0.1043,-0.0903 0.160794,-0.20209 0.160794,-0.33538 0,-0.1462 -0.04346,-0.26228 -0.130373,-0.34828 -0.09561,-0.0817 -0.29986,-0.16338 -0.621449,-0.24939 -0.438925,-0.12038 -0.747477,-0.27518 -0.930001,-0.46436 -0.182523,-0.19349 -0.273785,-0.45578 -0.273785,-0.79115 0,-0.42997 0.143411,-0.78255 0.43458,-1.05343 0.282476,-0.2752 0.656215,-0.40848 1.11687,-0.40848 0.260748,0 0.49542,0.0344 0.704019,0.1032 0.221635,0.0688 0.430234,0.16768 0.63014,0.30097 l -0.386776,0.88574 c -0.13472,-0.11609 -0.278131,-0.20638 -0.430234,-0.27087 -0.147757,-0.0603 -0.291169,-0.0903 -0.430234,-0.0903 -0.143411,0 -0.260748,0.0344 -0.3607,0.10749 -0.09126,0.0688 -0.139066,0.15909 -0.139066,0.27088 0,0.1075 0.03912,0.19779 0.121682,0.2709 0.08257,0.0688 0.243365,0.13328 0.473691,0.19348 0.0087,0 0.01739,0.005 0.02173,0.005 0.0044,0 0.01739,0.005 0.02608,0.008 0.499766,0.1333 0.830047,0.28379 0.990841,0.45148 0.104299,0.10319 0.186869,0.23649 0.247711,0.39987 0.05215,0.1505 0.07822,0.32679 0.07822,0.52026 0,0.47728 -0.156449,0.86426 -0.469346,1.15664 -0.317243,0.28808 -0.73444,0.43427 -1.25159,0.43427 -0.317242,0 -0.604065,-0.0517 -0.856121,-0.15909 -0.252056,-0.1032 -0.499767,-0.27518 -0.743131,-0.50737 z"
        fill="white" />
</svg>
