<?xml version="1.0" encoding="UTF-8" ?>
<svg xmlns="http://www.w3.org/2000/svg" width="30" height="10">
  <path
    d="m 11.685606,6.591973 c -0.450758,-0.02676 -0.875,-0.214047 -1.193182,-0.535117 L 9.9356061,7.153847 c 0.5303029,0.374581 1.1401519,0.588628 1.7765149,0.588628 0.530303,0.02675 1.060606,-0.160535 1.484849,-0.481606 0.371212,-0.347826 0.556818,-0.829431 0.530303,-1.337792 0,-0.77592 -0.371212,-1.204013 -1.272728,-1.444817 -0.609848,-0.187291 -0.662878,-0.214046 -0.795454,-0.321069 -0.07954,-0.05351 -0.132576,-0.160535 -0.132576,-0.267559 0,-0.267558 0.238636,-0.45485 0.583333,-0.45485 0.318182,0 0.636364,0.133779 0.875,0.347826 l 0.530304,-1.043477 c -0.503788,-0.267559 -1.060607,-0.428095 -1.64394,-0.428095 -0.92803,-0.05351 -1.69697,0.642141 -1.75,1.578596 0,0.05351 0,0.133779 0,0.187291 -0.02651,0.374582 0.106061,0.77592 0.397727,1.016722 0.185606,0.160536 0.397728,0.240803 0.981061,0.428094 0.636364,0.187291 0.795454,0.32107 0.795454,0.588629 0,0.267558 -0.212121,0.481605 -0.609848,0.481605 z m 3.473485,1.016722 h 1.325757 V 3.541806 h 1.113637 V 2.391305 H 14.07197 v 1.150501 h 1.087121 z m 3.659091,0 0.344697,-0.909698 h 1.85606 l 0.318182,0.909698 h 1.431818 L 20.833333,2.391305 H 19.375 l -1.988636,5.21739 z m 1.272727,-3.612039 0.556818,1.658862 h -1.113636 z m 4.560606,1.605351 1.272727,2.006688 h 1.670455 L 25.977273,5.468227 c 0.238636,-0.05351 0.477272,-0.160535 0.662879,-0.32107 0.318181,-0.294314 0.477272,-0.722408 0.477272,-1.150501 0,-0.428095 -0.159091,-0.829432 -0.424242,-1.123747 C 26.348485,2.525083 25.897727,2.364548 25.420455,2.391305 h -2.068182 v 5.21739 h 1.325757 z m 0,-2.167225 h 0.238637 c 0.212121,-0.02676 0.397727,0.02676 0.583333,0.133779 0.159091,0.13378 0.265151,0.294315 0.265151,0.508362 0,0.214046 -0.10606,0.374582 -0.265151,0.508361 -0.159091,0.107024 -0.371212,0.160535 -0.583333,0.13378 H 24.651515 Z M 1,1 V 9 H 29 V 1 Z M 7.2575758,2.899665 7.0719697,3.916388 c 0,0.02676 -0.026515,0.05351 -0.026515,0.05351 0,0 0,0 -0.1060607,-0.05351 C 6.5416668,3.64883 6.064394,3.51505 5.5871213,3.51505 c -0.6363636,0 -1.219697,0.428093 -1.405303,1.070234 C 3.9962122,5.120401 4.1553033,5.735786 4.5795455,6.137124 4.8977274,6.377926 5.2954546,6.48495 5.6931819,6.458194 5.9848486,6.431434 6.2500001,6.35117 6.5151516,6.244147 v 0 h 0.05303 c 0.1060606,-0.05351 0.1060606,-0.05351 0.1060606,-0.05351 0,0 0.026515,0.02676 0,0.08027 L 6.462121,7.421409 c 0,0.02675 -0.026515,0.08027 -0.026515,0.107023 C 6.409091,7.555192 6.382576,7.555192 6.35606,7.555192 5.9053024,7.715727 5.4280297,7.795994 4.950757,7.742483 3.8901509,7.688973 3.01515,6.939807 2.749999,5.896329 2.511364,4.959874 2.696969,3.969908 3.280302,3.220743 3.73106,2.712382 4.3409085,2.364556 5.0037873,2.257533 5.5606055,2.177263 6.1439388,2.230773 6.700757,2.418068 c 0.1590909,0.05351 0.344697,0.133779 0.4772728,0.240803 0.1060606,0.08027 0.1060606,0.107023 0.1060606,0.107023 0,0 0.026515,0.02675 -0.026515,0.133779 z M 28.602273,8.598662 H 8.9545455 V 1.401338 H 28.602273 Z"
    fill="white"
  />
</svg>
