<?xml version="1.0" encoding="UTF-8" ?>
<svg xmlns="http://www.w3.org/2000/svg" height="100" width="300" fill="white">
  <path
    d="m 129.49874,65.84554 c 0,10.30474 -8.39506,18.65631 -18.74935,18.65631 C 100.39324,84.50185 92,76.15028 92,65.84554 c 0,-10.30474 8.39324,-18.65627 18.74939,-18.65627 10.35429,0 18.74935,8.35153 18.74935,18.65627"
  />
  <path
    d="m 173.59101,16.92559 c 7.59896,0 13.04605,6.48701 13.04605,13.39904 0,4.93714 -2.15012,10.43674 -9.89267,19.03967 L 141.47574,86.11626 V 100 H 208 V 83.07441 H 170.27041 L 193.08919,58.67436 C 199.8285,51.05888 205.73901,42.17201 205.73901,30.32463 205.73901,12.41164 191.08265,0 173.59101,0 c -15.9886,0 -31.64819,11.28855 -30.9757,32.10959 h 18.06779 c 0,-1.97305 0.0979,-3.72182 0.48685,-5.2663 1.81211,-7.19594 7.50088,-9.9177 12.42086,-9.9177"
  />
</svg>
