<?xml version="1.0" encoding="UTF-8"?>
<svg xmlns="http://www.w3.org/2000/svg" height="100" width="300" fill="white">
  <path d="m 128.61526,64.437373 c 0,10.303135 -8.42114,18.656663 -18.80763,18.656663 C 99.419308,83.094036 91,74.740508 91,64.437373 91,54.132443 99.419308,45.78076 109.80763,45.78076 c 10.38649,0 18.80763,8.351683 18.80763,18.656613" />
  <path d="m 185.99912,33.240523 18.0328,-21.971668 V 0 h -60.34449 v 16.902381 h 32.47396 l -17.84865,20.949838 v 12.149598 c 3.69189,-1.832005 7.95077,-2.817677 11.92523,-2.817677 11.07565,0 19.59524,7.745884 19.59524,18.027283 0,10.563561 -9.22881,17.886202 -18.60161,17.886202 -7.52415,0 -14.33908,-4.081822 -18.45758,-9.858207 L 139.00192,84.64752 C 147.80592,94.50757 159.59078,100 171.94262,100 192.53147,100 209,86.05638 209,65.211423 c 0,-14.929289 -9.37101,-26.760582 -23.00089,-31.9709" />
</svg>
