<?xml version="1.0" encoding="UTF-8" ?>
<svg xmlns="http://www.w3.org/2000/svg" width="300" height="100" fill="white">
  <path
    d="m 119.00536,69.57731 c 0,8.81508 -7.16522,15.95935 -16.00266,15.95935 C 94.16521,85.53666 87,78.39239 87,69.57731 c 0,-8.8135 7.16521,-15.9593 16.0027,-15.9593 8.83744,0 16.00266,7.1458 16.00266,15.9593"
  />
  <path
    d="m 172.33788,7.58364 6.76811,6.87352 h 11.08988 L 178.37534,0 h -12.07491 l -11.82206,14.45716 h 11.08988 z"
  />
  <path
    d="m 172.33714,85.34173 c -13.97521,0 -24.35152,-11.40172 -24.35152,-25.33908 0,-13.9389 10.37631,-25.34216 24.35152,-25.34216 13.97518,0 24.35148,11.40326 24.35148,25.34216 0,13.93736 -10.3763,25.33908 -24.35148,25.33908 m 0,-65.33643 c -24.06297,0 -40.66291,17.88696 -40.66291,39.99735 C 131.67423,82.1115 148.27417,100 172.33714,100 196.40006,100 213,82.1115 213,60.00265 213,37.89226 196.40006,20.0053 172.33714,20.0053"
  />
</svg>
