<?xml version="1.0" encoding="UTF-8" ?>
<svg xmlns="http://www.w3.org/2000/svg" width="300" height="100" fill="white">
  <circle cx="294.73257" cy="47.416306" r="5.2" />
  <circle cx="294.73257" cy="67.643364" r="5.2" />
  <path
    d="m 186.42744,27.470164 c -0.52621,-0.189248 -1.07359,-0.315216 -1.61156,-0.470163 -0.14346,0 -0.28574,0 -0.4292,0 -0.26693,0.07688 -0.52974,0.179785 -0.80196,0.226506 -2.537,0.434679 -4.27026,2.59388 -4.1562,5.191308 0.11582,2.65716 1.99843,4.541359 4.82293,4.82878 2.43821,0.247205 4.78354,-1.515167 5.33797,-4.010873 0.54503,-2.457859 -0.79314,-4.91276 -3.16198,-5.765558 z"
  />
  <path
    d="m 70.529545,45.085009 c -2.200686,-1.599145 -4.364919,-2.540654 -6.781381,-2.845225 -2.458795,-0.309893 -4.838217,-0.02662 -7.142382,0.895379 -2.274179,0.909574 -4.166781,2.344901 -5.707202,4.243294 -4.548359,5.605288 -4.699461,14.047521 -0.374522,19.818401 2.010779,2.683181 4.663596,4.431951 7.871435,5.262276 4.298482,1.11242 8.337678,0.529894 12.038805,-2.370922 0.05115,0.854572 0.09054,1.510435 0.131112,2.181083 2.507595,0 4.91759,0 7.376972,0 0,-9.854496 0,-19.633884 0,-29.445208 -2.499951,0 -4.912298,0 -7.412249,0 -5.88e-4,0.693121 -5.88e-4,1.327693 -5.88e-4,2.260922 z M 69.28251,63.109694 c -3.27075,3.294688 -8.702793,3.431893 -11.778932,0.276774 -3.157276,-3.239688 -2.983832,-8.892287 0.380401,-12.034986 3.605292,-3.367431 9.432436,-2.030867 12.128761,1.565435 0.189907,0.253119 0.208721,0.675378 0.215777,1.020757 0.02469,1.22124 0.01,2.443663 0.01,3.666087 0,1.042046 -0.06409,2.090007 0.01881,3.125548 0.07996,0.9971 -0.308084,1.708554 -0.974816,2.380385 z"
  />
  <path
    d="m 267.51358,42.117956 c -8.8198,-0.02483 -15.78521,6.827711 -15.73817,15.484031 0.0482,8.661051 6.84429,15.338547 15.61293,15.34032 8.93562,0.0029 15.79403,-6.673356 15.79638,-15.375804 0.002,-8.636803 -6.88251,-15.423708 -15.67114,-15.448547 z m -0.0288,23.539488 c -4.47487,5.91e-4 -7.81735,-3.444904 -7.82323,-8.064919 -0.006,-4.654318 3.38129,-8.171964 7.8638,-8.167233 4.39902,0.0047 7.78147,3.552539 7.77266,8.152447 -0.01,4.628887 -3.3466,8.079705 -7.81323,8.079705 z"
  />
  <path
    d="m 156.35453,43.452154 c -5.06222,2.415868 -7.56393,6.7597 -8.15482,12.207085 -0.5121,4.725284 0.47388,9.13003 3.86634,12.654773 4.14267,4.303617 9.31073,5.332652 14.97971,4.266359 3.35248,-0.630433 6.22695,-2.220116 8.35414,-4.682112 -1.51161,-1.535275 -2.97677,-3.023237 -4.44252,-4.511199 -3.21196,2.94044 -6.87604,4.297703 -11.16982,2.243772 -2.44233,-1.168016 -4.10916,-3.890229 -3.89045,-6.088463 6.70319,0 13.41284,0 20.26419,0 0.06,-0.841562 0.17814,-1.55479 0.14463,-2.260921 -0.0547,-1.144359 -0.12464,-2.299954 -0.33395,-3.423614 -1.73856,-9.341161 -11.2245,-14.41064 -19.61745,-10.40568 z m -0.14463,10.245411 c 0.0917,-2.767751 3.07085,-5.182437 6.32807,-5.15819 2.92563,0.02129 5.54376,2.399901 5.60138,5.15819 -3.97688,0 -7.95258,0 -11.92945,0 z"
  />
  <path
    d="m 222.25458,48.114159 c -4.00568,-6.157065 -12.32454,-7.864436 -18.40862,-3.778454 -0.30103,0.201667 -0.60735,0.394463 -1.07771,0.699626 0,-0.886509 0,-1.522855 0,-2.213018 -2.5317,0 -4.97991,0 -7.49456,0 0,9.833205 0,19.623238 0,29.42096 2.62871,0 5.17629,0 7.80794,0 0,-0.52812 0,-0.95452 0,-1.382101 0,-5.140449 0.14111,-10.287401 -0.0635,-15.419569 -0.0929,-2.328933 0.91544,-3.632969 2.68868,-4.641898 0.76963,-0.438227 1.59452,-0.826777 2.44175,-1.06925 3.92161,-1.121295 7.30583,0.674787 8.11426,4.295337 0.1852,0.832691 0.24752,1.708554 0.25164,2.565492 0.0235,4.780876 0.0118,9.562345 0.0118,14.343221 0,0.420485 0,0.841562 0,1.406349 2.53405,0 4.85468,-0.01064 7.1753,0.0071 0.58207,0.0041 0.72259,-0.271452 0.71671,-0.795433 -0.0647,-5.748998 -0.0523,-11.49977 -0.20578,-17.246402 -0.0582,-2.200008 -0.73317,-4.310714 -1.95787,-6.191957 z"
  />
  <path
    d="M 113.75483,54.336868 C 113.18511,44.200275 101.88418,38.71031 93.458306,44.325059 c -0.30926,0.206399 -0.627927,0.399196 -1.052425,0.667692 -0.04292,-0.841563 -0.07585,-1.502157 -0.111122,-2.191137 -2.493484,0 -4.879373,0 -7.374033,0 0,9.882292 0,19.664637 0,29.471229 2.616365,0 5.136306,0 7.791475,0 0,-0.491454 0,-0.913121 0,-1.334198 0,-5.211416 0.144047,-10.428153 -0.06644,-15.630698 -0.09172,-2.257965 0.871338,-3.498722 2.576385,-4.472166 0.769622,-0.440002 1.589808,-0.835056 2.435276,-1.086402 3.889858,-1.15796 7.371688,0.634572 8.169528,4.200713 0.19402,0.867584 0.26516,1.778931 0.26987,2.671353 0.0253,4.81577 0.0123,9.630947 0.0123,14.447308 0,0.383227 0,0.767045 0,1.19995 2.68516,0 5.23332,0 7.78678,0 0.0423,-0.170323 0.0905,-0.271452 0.0894,-0.37199 -0.0588,-5.854267 0.0982,-11.720954 -0.23047,-17.559845 z"
  />
  <path
    d="m 15.518864,39.848754 c 0.299853,-2.781944 2.037824,-4.399423 4.82293,-4.46566 0.95365,-0.02307 1.907888,-0.0035 3.016756,-0.0035 0.362176,-2.008986 0.753748,-4.179423 1.155316,-6.40486 -3.614699,-1.176886 -8.304753,-0.686616 -11.453209,1.068659 -5.0081336,2.790815 -5.5696231,7.592983 -5.570211,12.734613 -2.5746203,0 -5.0193044,0 -7.490446,0 0,2.268018 0,4.404155 0,6.669807 2.5093582,0 4.9540422,0 7.5104362,0 0,0.553551 0,0.976402 0,1.399844 0,5.067114 0,10.134819 0,15.202525 0,1.796672 -0.022342,3.594528 0.02293,5.390018 0.00706,0.300431 0.300441,0.847476 0.4715336,0.851025 2.4164622,0.05677 4.8352772,0.03785 7.4122492,0.03785 0,-7.686424 0,-15.243923 0,-22.945132 3.135522,0 6.112298,0 9.050857,0 0,-2.283986 0,-4.421305 0,-6.62013 -2.187163,0 -4.292014,0 -6.397452,0 -0.190495,0 -0.366879,0 -0.53268,-0.0012 v 0.0012 h -2.149535 v -1.096455 c -0.01764,-0.422851 0.04233,-1.003606 0.130525,-1.818554 z"
  />
  <path
    d="m 128.16894,63.703459 c -3.20255,-2.80087 -3.54885,-8.199168 -0.72612,-11.487942 3.36306,-3.918616 8.04194,-3.695067 12.97247,0.676561 1.805,-1.597371 3.61881,-3.20243 5.42381,-4.79921 -3.11318,-4.86249 -10.82881,-7.205024 -17.1804,-5.282383 -6.56149,1.98592 -11.29505,8.016425 -10.99108,15.646666 0.25575,6.42142 4.83821,12.203536 11.33032,13.954671 6.87193,1.854032 14.59991,-0.805487 17.73954,-6.142871 -1.97961,-1.490918 -3.96276,-2.984795 -5.94414,-4.476305 -3.95806,5.190126 -9.6829,4.483994 -12.6244,1.910813 z"
  />
  <path
    d="m 35.837139,45.540387 c -0.04821,-1.030219 -0.08702,-1.864684 -0.126408,-2.711569 -2.526997,0 -4.939344,0 -7.408134,0 0,9.825517 0,19.585981 0,29.514993 2.253013,0 4.394905,-0.04258 6.533268,0.01951 0.953651,0.02839 1.284077,-0.210538 1.274082,-1.242531 -0.0535,-5.463352 -0.0341,-10.928478 -0.01058,-16.392421 0.0024,-0.512152 0.06938,-1.131348 0.352768,-1.517532 1.722097,-2.350223 3.989221,-3.770174 6.975404,-3.777272 0.880157,-0.0018 1.760902,0.09817 2.718668,0.155539 0.295737,-2.415868 0.586183,-4.780877 0.885448,-7.223358 -4.230867,-0.676562 -7.952572,0.07925 -11.194513,3.174635 z"
  />
  <path
    d="m 180.61147,43.968445 c -0.003,9.053741 -0.002,18.106891 -0.002,27.160631 0,0.179786 -0.0635,0.399786 0.0159,0.529894 0.15581,0.252528 0.38863,0.644626 0.59618,0.648765 2.35238,0.04613 4.70534,0.02957 7.13885,0.02957 0,-9.944981 0,-19.726734 0,-29.497843 -2.60695,0 -5.12396,0 -7.70093,0 -0.0188,0.422852 -0.0476,0.775917 -0.0476,1.128982 z"
  />
  <path
    d="m 233.21157,42.777958 c 0.15051,0.0059 0.27163,-0.0047 0.37922,-0.02483 h -1.44106 c 0.35395,0.0041 0.70789,0.01124 1.06184,0.02483 z"
  />
  <path
    d="m 242.05664,42.763764 c 0.004,-2.200599 -0.25634,-4.295337 1.30348,-5.896847 1.83851,-1.88834 4.20794,-1.591458 6.5903,-1.295166 0.39922,-2.229578 0.78785,-4.405338 1.19295,-6.672174 -2.5076,-0.602045 -4.84998,-0.791293 -7.1906,-0.337689 -4.53248,0.877637 -7.99843,3.146839 -9.20078,7.892232 -0.37629,1.48323 -0.44214,3.052806 -0.52386,4.604047 v 1.695543 h -0.63734 c -0.10759,0.02011 -0.22871,0.03016 -0.37922,0.02483 -0.35395,-0.0136 -0.70789,-0.0207 -1.06242,-0.02483 h -0.33749 v -5.91e-4 c -0.89132,-0.0035 -1.78265,0.01123 -2.67398,0.01123 -0.84253,0 -1.68506,0 -2.54993,0 0,2.296407 0,4.434316 0,6.661528 2.17894,0 4.2832,0.04554 6.38452,-0.0207 0.2146,-0.0065 0.39275,0.0035 0.54327,0.03194 h 0.66261 v 0.95925 c 0.003,0.06506 0.008,0.125969 0.008,0.199303 -0.0429,6.79341 -0.0229,13.587411 -0.0229,20.381413 0,0.41812 0,0.836239 0,1.285111 2.69691,0 5.24566,0 7.92905,0 0,-7.639702 0,-15.198976 0,-22.888948 3.0779,0 6.02234,0 8.93915,0 0,-2.26861 0,-4.402972 0,-6.608894 -1.55747,0 -3.01852,0 -4.47957,0 -1.4828,-5.91e-4 -2.96561,-5.91e-4 -4.49486,-5.91e-4 z"
  />
  <path
    d="m 232.14915,42.75371 c -0.1123,-0.0012 -0.22519,0 -0.33749,-5.91e-4 v 5.91e-4 z"
  />
</svg>
