<?xml version="1.0" encoding="UTF-8"?>
<svg xmlns="http://www.w3.org/2000/svg" height="100" width="300" fill="white">
  <path d="m 128.61711,64.43555 c 0,10.30492 -8.42155,18.6566 -18.80855,18.6566 C 99.421553,83.09215 91,74.74047 91,64.43555 c 0,-10.303133 8.421553,-18.656656 18.80856,-18.656656 10.387,0 18.80855,8.353523 18.80855,18.656656" />
  <path d="m 196.11879,38.92646 c -2.98646,-2.342039 -10.04241,-7.825442 -23.1114,-7.686207 -4.22262,0.04101 -7.34584,0.647477 -9.23289,1.148438 l 1.56251,-15.488119 h 36.91881 V 0 h -52.53669 l -6.39045,52.253403 13.70348,1.385333 c 5.14153,-4.186707 10.64955,-5.364058 14.6242,-5.387589 4.50888,-0.02563 8.88831,1.253326 12.06987,3.969702 3.58449,3.0618 6.10421,7.333501 6.10421,12.988751 0,10.5635 -9.22925,17.88798 -18.6007,17.88798 -7.52452,0 -14.34163,-4.08361 -18.4585,-9.8582 l -13.77277,11.4063 C 147.80108,94.50573 159.58652,100 171.94079,100 192.52883,100 209,86.05634 209,65.2096 209,54.36393 204.05354,45.15136 196.11879,38.92646" />
</svg>
