<?xml version="1.0" encoding="UTF-8" ?>
<svg xmlns="http://www.w3.org/2000/svg" width="30" height="10">
  <path
    d="M 14.427554,0.5 C 10.807828,0.70782 9.5467782,2.30715 9.5,4.61141 V 5.01406 C 9.545048,5.6761 9.6172178,6.20705 9.7894285,6.75922 10.22592,8.15876 11.092535,9.4127 13.598344,9.5 h 0.143124 C 16.491427,9.35668 18.376002,8.29639 18.5,5.31313 V 0.5 h -9.09e-4 l -4.53e-4,4.62422 C 18.39288,3.03507 17.68221,1.46883 16.182754,0.80234 15.748251,0.60921 15.278457,0.54683 14.699717,0.50094 L 18.499091,0.5 Z M 18.5,5.31313 18.4986,9.49859 13.741431,9.49959 H 18.5 Z M 13.598344,9.5 9.5,9.49859 v 10e-4 z m 2.901129,-7.02694 0.437863,0.028 c -0.0056,1.13208 -0.01187,2.2702 -0.08809,3.45205 l -0.305388,-10e-4 z m -0.854484,0.0645 0.490256,0.009 c -0.0064,1.1267 -0.02055,2.28132 -0.07114,3.40691 l -0.378086,0.002 z m 1.621163,0.10936 c 0.134674,0.008 0.272145,0.0205 0.400889,0.0648 l 0.0021,0.38033 c -0.130014,-0.0151 -0.259689,-0.0292 -0.38652,-0.0345 z m -5.637921,0.51741 c 0.11744,-1.8e-4 0.23278,0.0184 0.347587,0.0506 0.178803,0.0502 0.343052,0.14983 0.463449,0.29297 0.104672,0.12444 0.169974,0.28033 0.217639,0.43734 0.05127,0.16888 0.08625,0.34338 0.09542,0.51938 0.0103,0.19784 0.0071,0.39828 -0.03544,0.5939 -0.05973,0.27463 -0.214744,0.52953 -0.446183,0.68157 -0.146439,0.0962 -0.305858,0.17631 -0.475717,0.20765 -0.100106,0.0185 -0.211144,0.11716 -0.110864,0.2025 0.103495,0.0881 0.241315,0.11647 0.355311,0.18938 0.197827,0.12653 0.313852,0.35378 0.35622,0.58312 0.03419,0.18508 0.03201,0.37444 0.02226,0.56156 -0.0071,0.13612 -0.05016,0.27019 -0.114954,0.39047 -0.04625,0.0859 -0.117961,0.16016 -0.196284,0.21282 -0.156559,0.10524 -0.348653,0.13623 -0.532967,0.13265 -0.239863,-0.005 -0.489563,-0.045 -0.696537,-0.18047 -0.164746,-0.10786 -0.274788,-0.28157 -0.343497,-0.4664 -0.03135,-0.0843 -0.06151,-0.16857 -0.0727,-0.25688 -0.01714,-0.13527 -0.02558,-0.27046 -0.0091,-0.41015 0.02462,-0.20859 0.07543,-0.43196 0.23854,-0.56719 0.0847,-0.0702 0.184243,-0.11564 0.288065,-0.14297 0.115221,-0.0303 0.09987,-0.18465 -0.01817,-0.19219 -0.129479,-0.008 -0.258793,-0.0434 -0.369396,-0.1125 -0.08443,-0.0528 -0.165417,-0.11655 -0.227181,-0.19828 -0.07602,-0.10059 -0.139095,-0.21005 -0.182199,-0.32906 -0.03725,-0.10286 -0.05958,-0.20995 -0.07815,-0.31641 -0.01742,-0.0999 -0.03013,-0.2005 -0.02908,-0.30234 0.0016,-0.15232 -0.01164,-0.30753 0.01045,-0.45797 0.0235,-0.16 0.05913,-0.32123 0.138126,-0.46359 0.114091,-0.20561 0.296792,-0.36717 0.50525,-0.46454 0.16185,-0.0756 0.334755,-0.12103 0.507977,-0.15843 0.129508,-0.028 0.26065,-0.0364 0.392114,-0.0366 z m 3.307442,0.12179 0.378086,10e-4 c -8.54e-4,0.50405 -0.0027,1.01519 -0.002,1.51925 7.3e-5,0.057 -0.0085,0.10661 -0.01221,0.16406 -0.0038,0.0587 -0.0224,0.11462 -0.02885,0.17241 -0.0071,0.0636 -0.01837,0.11147 -0.03107,0.17148 -0.01108,0.0523 -0.03186,0.10105 -0.05699,0.14877 -0.02288,0.0434 -0.04249,0.0907 -0.07193,0.13128 -0.0302,0.0416 -0.05139,0.09 -0.08996,0.12624 -0.03639,0.0342 -0.06709,0.0697 -0.108195,0.0953 -0.04561,0.0284 -0.08574,0.0549 -0.134093,0.0792 -0.06038,0.0304 -0.120116,0.0604 -0.184159,0.0751 -0.06327,0.0146 -0.125763,0.0327 -0.190576,0.0383 -0.161543,0.014 -0.324473,0.0195 -0.485912,0.006 -0.06801,-0.006 -0.133438,-0.0262 -0.200402,-0.0416 -0.06413,-0.0147 -0.117522,-0.035 -0.178025,-0.0627 -0.04846,-0.0222 -0.09575,-0.0544 -0.140483,-0.087 C 13.354024,5.79051 13.314164,5.75491 13.27918,5.71596 13.24409,5.67686 13.21553,5.63456 13.18839,5.59095 13.16175,5.54805 13.13806,5.50205 13.12157,5.45738 13.10198,5.40428 13.08486,5.35605 13.06875,5.30009 13.0549,5.25199 13.03955,5.20139 13.02737,5.15135 13.0112,5.08485 13.0022,5.01759 12.99951,4.94806 12.98546,4.58517 12.99501,4.22175 12.99641,3.85859 c 7.27e-4,-0.19045 -0.0038,-0.38103 0.0024,-0.57137 l 0.482987,0.003 c -6.62e-4,0.36029 0.0037,0.72414 -9.99e-4,1.0844 -7.94e-4,0.0611 -0.01433,0.12319 -0.0078,0.18384 0.0065,0.0719 0.009,0.14953 0.0091,0.2388 0.0074,0.0696 0.01439,0.13804 0.0286,0.20487 0.01127,0.053 0.02818,0.10446 0.04541,0.15498 0.01415,0.0415 0.03826,0.0806 0.05898,0.12082 0.02086,0.0405 0.05455,0.0699 0.08607,0.10497 0.03821,0.0425 0.08173,0.0812 0.132504,0.10503 0.05026,0.0236 0.104173,0.0453 0.160361,0.0572 0.05038,0.0107 0.101594,0.0116 0.152779,0.0196 0.09032,0.014 0.17966,0.009 0.267903,-0.006 0.05801,-0.01 0.112637,-0.027 0.166126,-0.0549 0.04947,-0.0259 0.104146,-0.0529 0.146248,-0.0946 0.03505,-0.0347 0.06191,-0.0757 0.08835,-0.11795 0.02344,-0.0374 0.03915,-0.078 0.05657,-0.11863 0.02009,-0.0469 0.02504,-0.0998 0.03993,-0.14818 0.02241,-0.0728 0.02773,-0.14868 0.02962,-0.22711 0.0086,-0.35784 0.0014,-0.71572 0.0012,-1.06427 z m 2.395907,0.0764 0.34878,0.0306 c 0.04508,0.84948 0.0026,1.71397 -0.01377,2.54845 l -0.352131,0.003 z m -5.84829,0.36006 c -0.04454,0.001 -0.08856,0.01 -0.132674,0.0117 -0.183465,0.008 -0.3649,0.0769 -0.507068,0.19829 -0.109632,0.0936 -0.182042,0.22405 -0.222637,0.36093 -0.04232,0.14269 -0.05503,0.29368 -0.04771,0.44344 0.01111,0.22713 0.04834,0.47235 0.205371,0.64688 0.1247,0.13858 0.304651,0.20197 0.482078,0.21562 0.168199,0.0129 0.339844,0.018 0.506159,-0.0164 0.209466,-0.0433 0.405507,-0.17813 0.50934,-0.375 0.08131,-0.15415 0.09676,-0.32852 0.114045,-0.49921 0.01141,-0.11264 -0.0049,-0.22348 -0.01908,-0.33516 -0.02442,-0.1928 -0.132764,-0.37618 -0.283976,-0.49594 -0.16414,-0.12999 -0.383671,-0.14984 -0.584764,-0.15515 -0.0064,-1.7e-4 -0.01272,-1.8e-4 -0.01908,0 z m -0.357129,3.04406 c -0.01821,1.8e-4 -0.03648,4.7e-4 -0.05452,9.4e-4 -0.06442,0.002 -0.127381,0.0249 -0.181745,0.0605 -0.149645,0.098 -0.164756,0.30313 -0.144032,0.47204 0.02181,0.17777 0.10856,0.3562 0.270345,0.43406 0.104499,0.0503 0.217629,0.048 0.329412,0.0483 0.112136,2.7e-4 0.230632,-0.0481 0.293973,-0.14953 0.05834,-0.0935 0.05735,-0.20243 0.06316,-0.30797 0.01,-0.18137 -0.04601,-0.38406 -0.205826,-0.48141 -0.113313,-0.069 -0.243301,-0.0781 -0.37076,-0.0769 z"
    fill="white"
  />
</svg>
