<?xml version="1.0" encoding="UTF-8"?>
<svg xmlns="http://www.w3.org/2000/svg" width="30" height="10">
  <path d="M 1,2 V 7.9999994 H 15 V 2 Z M 7.9277345,3.314453 C 8.2002739,3.308993 8.4750824,3.338553 8.7421876,3.382812 9.0148191,3.424664 9.2685307,3.5379252 9.5371095,3.595703 9.3831096,3.8782955 9.2286982,4.1616088 9.076172,4.4453123 8.9708036,4.3256828 8.8347928,4.2378383 8.6796876,4.2011717 8.3131088,4.1037641 7.9172492,4.0698553 7.5488282,4.175781 7.3251968,4.2409661 7.1031176,4.3684952 6.9863282,4.5781248 6.8282756,4.8614579 6.8796318,5.254508 7.1250001,5.4726559 7.3707369,5.6922857 7.7138935,5.766264 8.0351563,5.7636715 8.3011564,5.7433011 8.5642954,5.6828061 8.8144532,5.5898435 8.9305058,5.5494731 9.0245272,5.4674248 9.107422,5.3789059 9.2850008,5.6507579 9.4608356,5.9245713 9.6406251,6.1953121 9.3930462,6.2534602 9.1644424,6.3651413 8.9179689,6.427734 8.3310741,6.5855117 7.6900064,6.6274302 7.1093751,6.4218746 6.7217963,6.2866895 6.3592854,6.0376329 6.1503907,5.6757808 5.8891803,5.2176328 5.8967757,4.613692 6.1738282,4.1640623 6.388986,3.8173956 6.7451581,3.5792185 7.1250001,3.4492187 7.3843684,3.3590332 7.6551951,3.319916 7.9277345,3.314453 Z M 2.5449219,3.4257811 c 0.2943684,0 0.5884441,0.00111 0.8828125,0 -0.00663,0.079631 -0.012092,0.1602338 -0.011719,0.2402344 0.00111,0.6944446 -7.369e-4,1.3875866 0,2.082031 h 1.638672 c 0.1668947,-7.408e-4 0.3342107,0.00669 0.5,-0.013672 0,0.2429628 -2.574e-4,0.4875056 0.00195,0.7304688 -0.069263,-0.00777 -0.1393526,-0.015257 -0.2089844,-0.015625 -0.9343154,7.405e-4 -1.8687874,0.00158 -2.8027344,0.00195 0.007,-0.076665 0.014037,-0.1538013 0.013672,-0.2304688 -0.00111,-0.7648145 3.682e-4,-1.5304772 0,-2.2949217 -7.37e-4,-0.1666663 0.00622,-0.3340737 -0.013672,-0.4999999 z m 8.0234371,0 c 0.642158,0.00222 1.285577,-0.00101 1.927735,0.00195 0.303947,0.00259 0.623506,0.099809 0.832031,0.3320312 0.312422,0.3403703 0.312088,0.9211458 -0.0059,1.2578123 -0.209632,0.2270374 -0.527122,0.320039 -0.828125,0.3222657 -0.351474,0.00296 -0.703214,-0.00111 -1.054688,0 0.0077,0.37 -0.01654,0.7424389 0.01367,1.111328 -0.295105,-0.00111 -0.58966,-7.407e-4 -0.884766,0 0.007,-0.075927 0.01367,-0.1525888 0.01367,-0.2285157 -7.37e-4,-0.7537033 3.69e-4,-1.5064322 0,-2.2597654 -0.0011,-0.1788888 0.0062,-0.3589609 -0.01367,-0.5371093 z M 3.109375,6.9492183 h 0.2070312 c 0.07,0.1803706 0.1438495,0.3598034 0.2167969,0.5390624 -0.053421,-7.406e-4 -0.1067353,-0.00195 -0.1601562,-0.00195 -0.014737,-0.038888 -0.030186,-0.078299 -0.044922,-0.1171875 -0.082157,-0.00149 -0.1643042,0.0028 -0.2460938,0.00391 -0.00847,0.02852 -0.024723,0.084763 -0.033203,0.1132812 -0.047527,-3.702e-4 -0.095052,-3.702e-4 -0.1425781,0 C 2.975145,7.3074487 3.0430593,7.1292252 3.109375,6.9492251 Z m 5.1757813,0 c 0.054526,-1e-7 0.1091679,-3.705e-4 0.1640626,0 0.086947,0.1037037 0.1793758,0.2034745 0.2714843,0.3027343 V 6.9492183 H 8.857422 c -7.37e-4,0.1792591 -7.37e-4,0.3578501 0,0.5371093 -0.029473,0 -0.089667,3.704e-4 -0.1191407,0 C 8.6340184,7.3681795 8.5268751,7.2537554 8.4218751,7.1367183 c 0,0.1166666 -3.684e-4,0.232572 0,0.3496093 H 8.2851563 c 3.686e-4,-0.1792592 3.684e-4,-0.3578502 0,-0.5371093 z m -1.1054687,0.00781 c 0.075895,0.00519 0.1445862,0.036371 0.2167969,0.058594 0.00111,0.020741 0.00317,0.063243 0.00391,0.083984 H 7.0742189 c -3.684e-4,0.020739 -0.00195,0.06129 -0.00195,0.082031 h 0.2207032 v 0.085937 c -0.073316,-3.704e-4 -0.1470192,0 -0.2207032,0 v 0.099609 c 0.1086843,0 0.2174879,3.705e-4 0.3261719,0 v 0.089844 c -0.1536315,-0.00111 -0.3069376,-0.00111 -0.4609375,0 -3.685e-4,-0.1496297 0,-0.2995883 0,-0.4492187 0.064106,7.333e-4 0.1273009,0.0028 0.1914062,0.00391 0.012527,-0.013335 0.038261,-0.041343 0.050781,-0.054688 z m 0.3320313,0.048828 c 0.1536314,0.00372 0.3057213,0.00428 0.4589843,0.00391 v 0.089844 c -0.1083157,0 -0.2162707,-0.00158 -0.3242187,-0.00195 -0.00148,0.020369 -0.0028,0.061662 -0.00391,0.082031 0.074421,0.00111 0.1478669,0.00158 0.2226563,0.00195 v 0.085937 c -0.073684,0 -0.1473872,-3.702e-4 -0.2207032,0 -3.682e-4,0.024816 0,0.074425 0,0.099609 0.1086842,3.704e-4 0.2174879,3.704e-4 0.3261719,0 3.684e-4,0.022593 -3.684e-4,0.067252 0,0.089844 -0.1539998,-3.703e-4 -0.3069375,0 -0.4609375,0 -3.6e-4,-0.1499999 -2.602e-4,-0.3008022 0.00195,-0.4511718 z m -2.2519532,0.00195 c 0.056737,0.00185 0.1147697,0.00206 0.171875,0.00391 0.028737,0.065185 0.057312,0.1305047 0.087891,0.1953124 0.034631,-0.065926 0.069989,-0.1309677 0.1035157,-0.1972656 h 0.1679687 c -7.369e-4,0.1492592 -7.369e-4,0.2980066 0,0.4472656 -0.03058,10e-8 -0.092468,-3.703e-4 -0.1230468,0 3.682e-4,-0.1077777 3.683e-4,-0.2148576 0,-0.3222656 -0.05121,0.098518 -0.1018705,0.197987 -0.1523438,0.296875 -0.049369,-0.098518 -0.097116,-0.1983563 -0.1464844,-0.296875 -3.684e-4,0.1077778 -0.00195,0.2148577 -0.00195,0.3222656 -0.026895,0 -0.080527,3.704e-4 -0.1074219,0 3.684e-4,-0.1496295 3.684e-4,-0.2992187 0,-0.4492187 z m -1.4433595,0.00195 c 0.074053,0.00171 0.1519928,0.019112 0.2207033,0.029297 -0.011421,0.024444 -0.035448,0.073211 -0.046875,0.097656 -0.083632,-0.01926 -0.2380343,-0.085924 -0.279297,0.021484 0.088421,0.032592 0.1857536,0.030852 0.2734376,0.066406 0.091371,0.038519 0.073019,0.1773359 -0.011719,0.2128906 -0.1256315,0.062584 -0.2675378,0.01542 -0.3964844,-0.00977 0.00921,-0.032593 0.01813,-0.065435 0.027344,-0.097656 0.099105,0.040741 0.2063947,0.053878 0.3125001,0.039063 C 3.9056999,7.2543241 3.759378,7.3038736 3.6816406,7.2675776 c -0.091,-0.00741 -0.1327222,-0.1245373 -0.066406,-0.1875 0.055816,-0.056296 0.1271193,-0.072026 0.2011718,-0.070312 z m 0.5546877,0 c 0.074282,0.00157 0.1518101,0.018926 0.2207031,0.029297 -0.011421,0.024073 -0.033495,0.073581 -0.044922,0.097656 -0.089158,-0.032216 -0.1833969,-0.040207 -0.2773438,-0.025391 0.01879,0.1129654 0.1633448,0.060821 0.2421876,0.1015625 0.098369,0.017037 0.1186412,0.1560217 0.039062,0.2089844 -0.1259999,0.085565 -0.2843429,0.031786 -0.4199218,0.00586 0.00884,-0.032592 0.01777,-0.065063 0.027344,-0.097656 0.098737,0.040369 0.2048096,0.053242 0.3105469,0.041016 C 4.4610133,7.2536853 4.3124804,7.3030325 4.2343751,7.2656245 4.1448484,7.2574765 4.1058166,7.141559 4.169922,7.0800776 4.2257378,7.023411 4.2968112,7.0081911 4.3710939,7.0097651 Z m 0.3164062,0 c 0.1543684,7.408e-4 0.3085222,0 0.4628906,0 v 0.089844 c -0.1097894,-3.734e-4 -0.2187036,-2.736e-4 -0.328125,0.00195 0.00111,0.027037 0.0028,0.053041 0.00391,0.080078 0.072947,-3.704e-4 0.145434,3.706e-4 0.21875,0 v 0.085937 c -0.073684,0 -0.1466513,-3.704e-4 -0.2207031,0 3.682e-4,0.033704 -3.684e-4,0.065905 0,0.099609 0.1079473,0 0.21664,0.00149 0.3242187,0 0,0.030371 0.00133,0.059473 0.00391,0.089844 -0.1543683,-0.00111 -0.3104754,-3.701e-4 -0.4648438,0 3.684e-4,-0.1496295 3.684e-4,-0.2976352 0,-0.4472656 z m 1.2167969,0 c 0.1285789,0.00408 0.2599814,-0.012624 0.3867187,0.013672 0.083995,0.03037 0.059503,0.1383411 0.00977,0.1894531 0.070366,0.055926 0.092509,0.1842401 -0.00586,0.2246094 -0.1256316,0.039257 -0.261309,0.012878 -0.390625,0.019531 3.685e-4,-0.1492591 3.685e-4,-0.2980064 0,-0.4472656 z m 0.546875,0 h 0.1347656 c -7.368e-4,0.114815 -3.684e-4,0.2289354 0,0.34375 0.087684,0 0.1759879,3.704e-4 0.2636719,0 v 0.1035156 c -0.1326316,-0.00111 -0.2658055,-7.407e-4 -0.3984375,0 -0.00185,-0.1496295 0,-0.2976352 0,-0.4472656 z m 2.6933593,0 c 0.054158,3.707e-4 0.109905,0 0.1640626,0 0.067052,0.1499998 0.1384925,0.2976089 0.2070312,0.4472656 -0.033159,1e-7 -0.09807,-3.703e-4 -0.1308594,0 -0.015104,-0.030371 -0.029817,-0.059473 -0.044922,-0.089844 -0.077369,0 -0.1550539,-3.703e-4 -0.2324219,0 -0.011053,0.022592 -0.031915,0.067252 -0.042969,0.089844 -0.029105,0 -0.088082,3.702e-4 -0.1171875,0 0.065579,-0.1492503 0.1327928,-0.2972568 0.197266,-0.4472568 z m 0.9414067,0 h 0.136718 c -0.0011,0.1492592 -7.37e-4,0.2980065 0,0.4472656 -0.03389,0 -0.102823,0 -0.136718,0 0,-0.1496303 7.36e-4,-0.2980064 0,-0.4472656 z m 0.52539,0 c 0.1303,0.013681 0.255689,0.1052782 0.238281,0.25 -0.02395,0.2625926 -0.467255,0.2830352 -0.533203,0.037109 -0.03684,-0.1200001 0.04971,-0.2471335 0.167969,-0.2734375 0.03942,-0.013796 0.08352,-0.018232 0.126953,-0.013672 z m 0.326172,0 h 0.166016 c 0.06779,0.078889 0.139464,0.1549128 0.210937,0.2304688 0,-0.077037 -0.0016,-0.1534314 -0.002,-0.2304688 H 11.4355 c -7.37e-4,0.1511111 0,0.3020146 0,0.453125 -0.02321,-0.00259 -0.06895,-0.00718 -0.0918,-0.00977 -0.103895,-0.088889 -0.189735,-0.1990977 -0.285156,-0.296875 0,0.1 0.0016,0.2004106 0.002,0.3007812 H 10.9375 c 3.69e-4,-0.1492591 7.37e-4,-0.2980064 0,-0.4472656 z m 0.785156,0 c 0.05416,3.707e-4 0.109905,-3.704e-4 0.164063,0 0.06705,0.1499998 0.138504,0.297643 0.207031,0.4472656 -0.03316,3.704e-4 -0.09807,-3.703e-4 -0.130859,0 -0.01511,-0.030371 -0.03019,-0.059473 -0.04492,-0.089844 -0.07774,0 -0.155054,-3.701e-4 -0.232422,0 -0.01068,0.022593 -0.03192,0.066881 -0.04297,0.089844 -0.02874,-3.703e-4 -0.0865,3.704e-4 -0.115234,0 0.06484,-0.1496295 0.130839,-0.2972656 0.195312,-0.4472656 z m 0.462891,0 h 0.136719 c -7.37e-4,0.1148147 -3.69e-4,0.2293047 0,0.34375 0.08768,0 0.175618,3.706e-4 0.263672,0 -3e-6,0.026296 -0.002,0.077589 -0.002,0.1035156 -0.132999,-3.705e-4 -0.265437,-3.704e-4 -0.398437,0 3.68e-4,-0.1496297 7.37e-4,-0.2980064 0,-0.4472656 z m 0.486328,0 h 0.462891 v 0.089844 h -0.324219 c -0.0015,0.02 -0.0044,0.060078 -0.0059,0.080078 0.07479,0.00109 0.14982,0.00158 0.224609,0.00195 3.68e-4,0.021111 0,0.064456 0,0.085937 -0.07368,0 -0.147387,-3.704e-4 -0.220703,0 -3.69e-4,0.024815 -0.002,0.074425 -0.002,0.099609 0.108684,7.408e-4 0.219073,3.704e-4 0.328125,0 0,0.022593 -3.69e-4,0.067252 0,0.089844 -0.154369,-3.705e-4 -0.308523,0 -0.462891,0 7.37e-4,-0.1492591 7.37e-4,-0.2980064 0,-0.4472656 z m -3.1601561,0.00391 c 0.1621049,0.00111 0.3242229,0 0.4863281,0 -3.684e-4,0.034444 3.684e-4,0.069073 0,0.1035156 H 9.8222657 c 0,0.1144445 0.00158,0.2289353 0.00195,0.34375 H 9.6875001 c 3.685e-4,-0.1148147 0,-0.2293047 0,-0.34375 -0.058579,0 -0.1175706,-3.704e-4 -0.1757812,0 -3.686e-4,-0.026297 0,-0.07722 0,-0.1035156 z"
        fill="white" />
  <path d="m 11.439576,4.0703708 c 0.302842,7.408e-4 0.606052,-0.00259 0.908894,0.00149 0.133368,0.00519 0.291789,0.022592 0.376526,0.1407407 0.120843,0.1892592 0.0081,0.4825927 -0.227315,0.5007408 -0.350737,0.039259 -0.705526,0.00815 -1.058105,0.017777 0,-0.2199997 0,-0.4403704 0,-0.6607405 z"
        fill="white" />
  <path d="m 3.1128941,7.288889 c 0.029843,-0.081111 0.059684,-0.1622222 0.090263,-0.242963 0.033157,0.080741 0.065947,0.161852 0.098368,0.242963 -0.063,0 -0.126,0 -0.188631,0 z"
        fill="white" />
  <path d="M 6.0425773,7.091111 C 6.1085243,7.105559 6.2702615,7.061852 6.2201563,7.18037 6.1608403,7.194818 6.0996829,7.192223 6.03963,7.19333 6.0403668,7.167775 6.04184,7.116665 6.04258,7.0911073 Z"
        fill="white" />
  <path d="m 9.1384185,7.2933334 c 0.027263,-0.067407 0.055263,-0.1344448 0.083263,-0.2014814 0.028368,0.067037 0.057105,0.1340736 0.085105,0.2014814 -0.056368,-3.704e-4 -0.112368,0 -0.168368,0 z"
        fill="white" />
  <path d="m 10.520734,7.1274076 c 0.08621,-0.038888 0.215895,0.023333 0.196368,0.1296306 -0.01695,0.1292587 -0.226947,0.141112 -0.269684,0.022961 -0.02211,-0.060369 0.01105,-0.133704 0.07332,-0.152592 z"
        fill="white" />
  <path d="m 11.716997,7.2933334 c 0.02763,-0.067777 0.05526,-0.1351856 0.08326,-0.2025926 0.02837,0.067407 0.05674,0.1348144 0.08474,0.2025926 -0.056,-3.704e-4 -0.112,-3.704e-4 -0.168,0 z"
        fill="white" />
  <path d="M 6.0407352,7.3751853 C 6.0411036,7.3362973 6.0411036,7.2974083 6.0411036,7.25852 6.1074196,7.26517 6.2827877,7.235928 6.2219984,7.354816 6.1645254,7.376669 6.1011557,7.369264 6.0407352,7.3751853 Z"
        fill="white" />
  <path d="m 15.000005,2.0000006 c 4.666788,0 9.333207,0 13.999995,0 V 8 H 15.000005 V 2.0000006 m 0.988842,0.9785185 c 0.01027,0.6718518 0.01147,1.3444442 -7.38e-4,2.016296 0.195264,-3.704e-4 0.390527,-0.00149 0.585422,7.408e-4 -0.01293,-0.2466668 -0.004,-0.4937035 -0.0063,-0.7407407 0.21442,-3.704e-4 0.428841,0 0.643263,3.704e-4 0.206316,0.00408 0.427,-0.040369 0.581736,-0.1862963 0.24021,-0.2185185 0.252,-0.6329629 0.03243,-0.8696296 -0.144422,-0.1607407 -0.36658,-0.2218518 -0.575474,-0.2203702 -0.420368,-0.00111 -0.840368,3.702e-4 -1.260368,-3.704e-4 m 3.719209,0.2237037 c 0.01213,0.354074 0.0071,0.7085184 0.004,1.062222 0.0019,0.1355552 -0.126373,0.2262964 -0.24942,0.2407408 -0.144789,0.019259 -0.312421,0.020741 -0.431789,-0.076665 -0.08216,-0.068889 -0.07737,-0.1844447 -0.077,-0.2814816 0.0048,-0.3151851 -0.0063,-0.6303703 0.0071,-0.9455554 -0.173526,0.00185 -0.347053,0.00185 -0.520948,0 0.01952,0.3633333 -0.0096,0.7285184 0.01584,1.0914814 0.02357,0.2792592 0.245736,0.5096295 0.513947,0.5685184 0.298421,0.067407 0.630368,0.068519 0.909632,-0.07 0.211473,-0.1051852 0.334895,-0.3374072 0.341157,-0.5696295 0.0096,-0.34 -0.0059,-0.6799998 0.0085,-1.0199998 -0.173895,0.00111 -0.34742,0.00111 -0.520947,3.703e-4 m 1.071,3.704e-4 c 0.01,0.5596296 0.01147,1.1203703 -7.37e-4,1.6799998 0.308737,-7.407e-4 0.617473,-7.407e-4 0.92621,0 0.208158,0.00111 0.433631,0.00149 0.614526,-0.1170373 C 22.508467,4.6433347 22.548256,4.3685204 22.451724,4.1751871 22.401174,4.0766671 22.298395,4.0262975 22.2015,3.9859263 22.418131,3.878889 22.513552,3.5970376 22.39492,3.3833337 22.29765,3.2222228 22.087658,3.2144449 21.920763,3.2048153 c -0.380579,-0.00519 -0.761157,-3.704e-4 -1.141736,-0.00223 m 2.179577,0 c 0.01107,0.56 0.0081,1.1207407 0.0015,1.6807404 0.555947,0.00149 1.112263,-0.00777 1.667841,0.00481 0,-0.133704 -3.68e-4,-0.2674073 7.36e-4,-0.401111 -0.38463,0.01296 -0.769998,0.00259 -1.154998,0.00592 0.0037,-0.43 -0.0077,-0.8603703 0.0063,-1.2903703 -0.173526,3.704e-4 -0.347421,0 -0.521316,0 m 2.053579,-3.701e-4 c 0.01,0.5599997 0.01147,1.1207404 -7.37e-4,1.6807403 0.173894,-7.408e-4 0.347789,-0.00149 0.521684,7.408e-4 -0.01,-0.5603703 -0.01,-1.1214814 0,-1.6822222 -0.173895,0.00185 -0.34742,0.00149 -0.520947,7.411e-4 m 1.269947,0.2133332 c -0.388684,0.2877777 -0.392736,0.9525924 -0.0096,1.2466665 0.290684,0.2233331 0.680105,0.2692591 1.034157,0.2277775 0.25491,-0.027024 0.484805,-0.1448023 0.716173,-0.2462839 C 27.918683,4.4962944 27.816264,4.3470352 27.71458,4.1974056 27.499053,4.5214797 27.016053,4.5799981 26.691107,4.397776 26.492528,4.294072 26.41958,4.0170352 26.542264,3.8285167 26.658691,3.6511094 26.884159,3.590739 27.08458,3.5851836 c 0.214421,0.00223 0.446527,0.050369 0.601263,0.2114813 0.07405,-0.1559264 0.151053,-0.3103704 0.227316,-0.4655556 -0.239843,-0.048149 -0.473422,-0.1322227 -0.719527,-0.1466672 -0.315368,-0.017408 -0.653209,0.036296 -0.911473,0.2311111 m -9.404682,1.8044459 c -0.207052,0.1844445 -0.246473,0.572963 0.0044,0.7377776 0.328263,0.2081482 0.735368,0.1859262 1.106368,0.237778 0.09837,0.018519 0.222527,0.017777 0.286632,0.1074067 0.01989,0.1088893 -0.06743,0.2022224 -0.164684,0.2329629 -0.200053,0.068147 -0.418158,0.06 -0.624842,0.032963 -0.226947,-0.04 -0.47342,-0.1025933 -0.624104,-0.2929628 -0.07184,0.1840739 -0.14958,0.3659256 -0.225106,0.5488886 0.173526,0.045185 0.34042,0.1151853 0.516895,0.1507408 0.295104,0.060369 0.600525,0.074073 0.899315,0.036296 0.217,-0.031851 0.442842,-0.1014814 0.598684,-0.2651854 0.160264,-0.1651852 0.204105,-0.4303703 0.112,-0.6407405 -0.06337,-0.14148 -0.200422,-0.2329616 -0.341526,-0.283332 -0.31979,-0.1151854 -0.665737,-0.095185 -0.996578,-0.1518512 -0.08032,-0.017037 -0.205211,-0.047777 -0.191948,-0.1551855 0.02652,-0.084445 0.116426,-0.118888 0.194157,-0.1370368 0.196737,-0.041481 0.400475,-0.023335 0.597579,0.00445 0.181264,0.030741 0.378,0.065925 0.508053,0.2096296 0.06963,-0.1433328 0.139631,-0.2862961 0.212211,-0.428148 C 18.45614,5.1000078 18.172456,5.0055635 17.875877,4.9833419 17.533615,4.9511206 17.14272,4.9729686 16.877456,5.2200086 m 3.271579,-0.1674075 c -0.03611,0.055185 -0.07073,0.111112 -0.107214,0.165926 -0.254578,0 -0.509526,3.704e-4 -0.764105,0 0.01027,0.5596296 0.01,1.1199999 0,1.6799998 0.579527,0.00296 1.159052,-0.00853 1.738211,0.00592 -7.38e-4,-0.116296 -7.38e-4,-0.2318519 -3.7e-4,-0.3477778 -0.407473,0.012227 -0.815314,0.00259 -1.222788,0.00555 0,-0.1259253 0,-0.2518517 0,-0.3777777 0.275947,0.00223 0.552263,-0.00665 0.827842,0.00631 -3.68e-4,-0.111112 -3.68e-4,-0.2222221 0.0011,-0.3333333 -0.275948,0.012587 -0.552632,0.00369 -0.828947,0.00631 0,-0.1033334 0,-0.2062962 0,-0.3092591 0.407474,0.00335 0.815315,-0.00741 1.222788,0.00592 -3.68e-4,-0.1159267 -3.68e-4,-0.2322222 3.7e-4,-0.348148 -0.148106,0.00853 -0.296579,0.00704 -0.444684,0.00592 0.056,-0.055927 0.112,-0.1118507 0.168,-0.1677779 -0.196738,7.407e-4 -0.393475,-0.00223 -0.590211,0.00223 m 1.399631,0.1659258 c 0.01107,0.5596297 0.01027,1.1200001 3.68e-4,1.6796296 0.155842,-3.704e-4 0.312053,-7.408e-4 0.467894,3.704e-4 -0.0132,-0.3762963 -0.0033,-0.7525926 -0.0059,-1.1288889 0.211842,0.2433332 0.434369,0.477037 0.658369,0.7096298 0.12416,0.1351855 0.261209,0.2611108 0.359579,0.4181479 0.132266,7.408e-4 0.264894,0 0.397157,0.00111 -0.01027,-0.5596298 -0.01107,-1.1203703 3.68e-4,-1.6803702 -0.156211,3.702e-4 -0.31242,3.702e-4 -0.468631,3.702e-4 0.01253,0.2885187 0.0037,0.577037 0.0059,0.8659259 C 22.709213,5.7933411 22.415581,5.5348228 22.190844,5.2192674 21.976792,5.217774 21.76274,5.218897 21.548687,5.2185266 m 2.528841,0.9796295 c -0.10648,0.2325925 -0.200421,0.4703703 -0.312052,0.7003703 0.149211,-0.00111 0.29842,-3.703e-4 0.448,-7.408e-4 0.04495,-0.1159267 0.098,-0.228148 0.152157,-0.3399999 0.292158,0.00111 0.584684,0 0.876842,3.704e-4 0.05379,0.1122225 0.107573,0.2240739 0.153632,0.3396295 0.168737,3.705e-4 0.337842,-3.704e-4 0.506578,0.00111 C 25.649949,6.3359326 25.363317,5.7881549 25.125317,5.2188958 24.91716,5.2181472 24.708633,5.2181472 24.500107,5.2185176 24.37816,5.552962 24.218265,5.8718507 24.077528,6.1981471 M 25.797685,5.21111 c 7.38e-4,0.1344448 0.0011,0.2688891 -3.68e-4,0.4033335 0.219211,-0.01296 0.43879,-0.00481 0.658,-0.00665 -0.0037,0.43 0.0077,0.8603703 -0.0063,1.2903703 0.173526,-3.705e-4 0.347421,-3.705e-4 0.520948,0 -0.0132,-0.43 -0.0025,-0.86 -0.0059,-1.2903703 0.219211,0.00149 0.438789,-0.00519 0.658,0.00592 -0.0015,-0.1340736 -0.0015,-0.2677778 -3.69e-4,-0.4018519 -0.607895,0.010733 -1.216526,0.011853 -1.824052,-7.408e-4 z"
        fill="white" />
  <path d="m 16.566899,3.4077782 c 0.203,7.408e-4 0.406,-0.00335 0.608632,0.00111 0.08547,0.00408 0.184946,0.013696 0.242789,0.085555 0.08768,0.1214813 0.01843,0.3233334 -0.137421,0.3403703 -0.236527,0.029629 -0.476368,0.00665 -0.714,0.013344 3.69e-4,-0.1466671 3.69e-4,-0.2937036 0,-0.4403703 z"
        fill="white" />
  <path d="m 21.29374,3.5237041 c 0.191947,0.00445 0.385368,-0.01296 0.576209,0.01 0.170211,0.019631 0.169475,0.3044444 0.0071,0.3385186 -0.191579,0.036667 -0.388684,0.00961 -0.582473,0.017408 -3.68e-4,-0.1218506 -3.68e-4,-0.2437037 -7.36e-4,-0.3659259 z"
        fill="white" />
  <path d="m 21.294108,4.1492596 c 0.197473,0.00631 0.397157,-0.01592 0.593157,0.014816 0.176106,0.031481 0.182,0.3170371 0.01363,0.3662964 -0.196,0.059259 -0.405263,0.020741 -0.606789,0.031112 0,-0.137408 0,-0.2748148 0,-0.4122221 z"
        fill="white" />
  <path d="m 24.79558,5.5207411 c 0.107213,0.2540739 0.212948,0.5085182 0.319053,0.7629627 -0.210368,0 -0.420368,0 -0.630368,-3.703e-4 0.103894,-0.2540742 0.207052,-0.5085185 0.311315,-0.7625924 z"
        fill="white" />
</svg>
