<?xml version="1.0" encoding="UTF-8"?>
<svg xmlns="http://www.w3.org/2000/svg" width="30" height="10">
  <path d="M 17.658395,6.754007 18.001252,9.5 H 21 L 19.526235,0.5 14.999988,5.1178673 10.476381,0.5 9,9.5 h 3.001239 L 12.344346,6.754007 14.999988,9.5 Z"
        fill="white" />
  <path d="m 15.068892,2.4009078 c 0.412062,-0.69438 0.848661,-1.38394 1.168774,-1.82531001 H 14.331412 C 13.399348,1.8568278 12.531556,3.3862378 12.285604,4.4244478 c -0.06141,0.22563 -0.09464,0.46122 -0.09464,0.70444 0,1.50943 1.259875,2.73075 2.811364,2.73075 1.55398,0 2.811165,-1.22132 2.811165,-2.73075 -2.6e-5,-1.48432 -1.222434,-2.69288 -2.744602,-2.72798 z m -0.06659,3.94903 c -0.69132,0 -1.250732,-0.54409 -1.250732,-1.22105 0,-0.67453 0.559412,-1.22109 1.250732,-1.22109 0.69249,0 1.250832,0.54653 1.250832,1.22109 0,0.67696 -0.558342,1.22105 -1.250832,1.22105 z"
        fill="white" />
</svg>
