<?xml version="1.0" encoding="UTF-8"?>
<svg xmlns="http://www.w3.org/2000/svg" width="30" height="10" fill="white">
  <circle cx="19" cy="0.98" r="0.98" />
  <path d="m 20,1.9698659 -2.346198,0.7901785 v 0.9400113 l 0.655517,-0.2301899 v 2.6102121 c 0,0.76 -0.881121,0.520034 -1.147513,0.320034 -0.08197,-0.06 -0.686391,-0.470145 -0.686391,-0.470145 0.594259,-0.19 1.516283,-0.9299669 1.065465,-1.9299671 -0.573767,-1.02 -1.577758,-0.6900111 -1.577758,-0.6900111 l -2.756147,0.9400112 v 0.9299667 l 0.399658,-0.140067 V 6.3300779 L 11.823899,4.7101003 10,5.3401227 v 0.9299662 l 0.553173,-0.200056 V 8.7101 L 10.010292,8.900112 V 10 l 2.07976,-0.7101 V 6.9799109 l 1.311606,1.200055 V 9.530134 L 16.680389,8.409877 V 7.6400669 c 0.42008,0.46 1.342275,0.529933 1.936535,0.359933 C 19.354625,7.7899999 20,7.3301119 20,6.4001119 Z m -4.231561,2.3984375 c 0.163894,-0.00314 0.298353,0.1554577 0.307319,0.3217076 0.01025,0.15 0.04093,0.3900001 -0.204974,0.5000001 -0.194672,0.07 -0.76844,0.2798549 -0.76844,0.2798549 V 4.5800781 c 0,0 0.399669,-0.140056 0.59434,-0.200056 0.02433,-0.0075 0.04834,-0.011269 0.07176,-0.011719 z m 0.174957,1.6481585 c 0.299041,7e-4 0.521727,0.151652 0.521727,0.543527 0,0.43 -0.317599,0.720089 -0.63522,1.020089 -0.17418,0.17 -0.358559,0.329866 -0.502001,0.469866 l 1.106632,-0.380022 v 0.580078 L 14.477416,8.919922 c 0,-0.28 0.04089,-0.49981 0.235563,-0.7698111 0.399588,-0.56 1.034877,-0.940167 1.034877,-1.350167 0,-0.17 -0.143293,-0.199832 -0.286735,-0.149832 -0.276638,0.1 -0.348485,0.359844 -0.348485,0.589843 l -0.63522,0.220145 c 0.02049,-0.72 0.399588,-1.150212 1.024585,-1.360212 0.153688,-0.053125 0.305468,-0.083768 0.441395,-0.083426 z m -1.64008,0.603516 V 8.989955 L 13.637221,9.2101 V 6.8498879 Z" />
</svg>
