<?xml version="1.0" encoding="UTF-8"?>
<svg xmlns="http://www.w3.org/2000/svg" width="30" height="10">
  <path d="M 16.868924,0.58108 14.615507,7.48811 12.497088,0.58108 H 9.8066615 V 3.53162 C 9.2009044,0.11175 5.5352079,0.51465 5.5352079,0.51465 3.1814088,0.51465 1.5,2.19094 1.5,4.60486 1.5,7.01878 2.2398891,9.5 5.8043372,9.5 9.369651,9.5 9.8404109,6.64953 9.8404109,6.64953 V 9.46635 H 11.555568 V 2.92857 l 2.118419,6.53778 h 1.849291 l 2.320915,-6.60507 v 6.60507 h 1.681409 V 0.58107 l -2.656678,1e-5 M 5.7705879,8.02473 c -0.47076,0 -2.2525512,0.23466 -2.2525512,-3.38622 0,-2.85047 2.2525512,-2.61494 2.2525512,-2.61494 0,0 2.1859181,-0.26831 2.1859181,2.91689 0,3.18435 -1.7151583,3.08427 -2.1859181,3.08427 z"
        fill="white" />
  <path d="M 19.525602,0.58107 V 9.46635 H 28.5 V 0.58107 Z m 3.908225,1.06047 -0.218872,1.37182 h 0.625222 L 23.652698,3.85488 H 23.027476 L 22.49643,6.38025 c 0,0 -0.250292,0.84152 0.499654,0.62332 -0.09334,0.46769 -0.156087,0.90405 -0.156087,0.90405 l -0.782115,0.0313 c 0,0 -1.219039,0.0313 -0.968789,-1.18484 0.250251,-1.21616 0.593831,-2.93049 0.59383,-2.93049 l -0.500527,0.0313 0.156893,-0.84152 0.531113,-0.0313 0.156894,-0.74844 z m 0.626028,1.37182 h 1.281837 v 3.5538 l 1.344619,-3.5538 h 1.313229 l -2.314216,4.83173 h -1.43799 z"
        fill="white" />
</svg>
