<?xml version="1.0" encoding="UTF-8" ?>
<svg xmlns="http://www.w3.org/2000/svg" width="300" height="100">
  <g transform="translate(53,0)" fill="white">
    <path
      d="m 40.76371,24.6821 c -0.39196,7.49918 -6.53265,8.02087 -6.53265,8.02087 h -5.78139 l 1.46985,-17.44376 h 4.67084 c 1.63316,-0.0326 6.56531,1.95631 6.17335,9.42289 m 19.46728,-4.72775 c 0,-18.25888 -13.62056,-18.25888 -15.09041,-18.25888 -1.46985,0 -32.27127,-0.0326 -32.27127,-0.0326 L 5.09546,68.01436 h 20.28387 l 1.6005,-20.8673 c 0,0 0.39195,-1.95631 2.25376,-1.95631 1.8618,0 2.28642,1.56505 2.28642,1.56505 l 5.0628,21.12814 h 19.6306 L 48.99484,42.28889 c 0.0327,0 11.23615,-4.07564 11.23615,-22.33453"
    />
    <path
      d="M 99.230883,67.88393 H 93.22085 L 85.61032,44.37561 82.93193,67.88393 H 65.32645 l 7.47988,-65.7972 h 16.82156 l 9.864298,31.79002 16.690902,-31.6596 h 17.37684 l -6.27134,65.66678 h -17.89945 l 1.73115,-24.94295 z"
    />
    <path
      d="m 182.55477,25.85588 h 3.201 l 8.13314,-13.27029 c 0,0 0.65326,-1.82589 -1.20854,-3.68438 C 190.81857,7.10792 185.49446,0 171.8739,0 c -13.62057,0 -28.515,11.28138 -31.52002,31.23573 -2.54773,16.92208 3.07035,33.4855 19.23864,37.43072 16.1683,3.94522 27.76374,-6.55364 29.4949,-10.89012 0.52261,-1.56505 0.52261,-1.82589 0,-2.77144 -0.52262,-0.91294 -5.48743,-10.1076 -5.48743,-10.1076 H 180.399 c 0,0 -0.94724,0 -1.73115,0.91295 -0.81658,0.91294 -3.88693,3.94522 -5.48743,4.59732 -2.41707,2.08673 -15.22106,1.69547 -14.40448,-14.05282 1.46985,-17.31333 14.01253,-17.31333 14.01253,-17.31333 0,0 4.57285,-0.91295 9.7663,6.81447"
    />
    <path
      d="M 8.23113,81.12162 H 4.57285 L 1.79648,98.17411 h 3.69094 c 5.65074,0 10.1256,-4.49951 10.1256,-10.04238 0,-4.4017 -3.00501,-7.01011 -7.38189,-7.01011 M 5.38943,99.64134 H 0 L 3.201,79.65439 h 5.38943 c 5.03014,0 8.68842,3.26051 8.68842,8.2817 0.0327,6.52103 -5.25878,11.70525 -11.88942,11.70525"
    />
    <path
      d="m 33.93709,73.72025 -3.98491,4.27127 h -1.33919 l 3.39697,-4.27127 z m 1.27387,5.93414 -0.22864,1.43462 h -9.08038 l -1.14321,7.17314 h 8.59043 l -0.22865,1.46723 h -8.59043 l -1.37185,8.44473 h 9.30902 l -0.22864,1.46723 H 21.32909 l 3.20099,-19.98695 z"
    />
    <path
      d="m 55.4295,83.46919 c -1.07789,-1.82589 -3.59296,-2.67362 -5.65074,-2.67362 -5.81406,0 -9.73364,5.15161 -9.73364,10.56407 0,4.14085 2.58039,7.07531 6.89194,7.07531 2.4824,0 4.86682,-0.94555 6.63063,-2.64101 l 0.88191,1.04336 c -2.12311,2.02152 -4.67084,3.1301 -7.74119,3.1301 -5.09546,0 -8.36178,-3.39094 -8.36178,-8.34692 0,-6.52103 4.80149,-12.29215 11.66077,-12.29215 2.77637,0 4.93215,0.94555 6.56531,2.99968 z"
    />
    <path
      d="m 71.20583,80.79557 c -5.81405,0 -9.83163,5.119 -9.83163,10.56407 0,4.14085 2.71105,7.07531 6.98993,7.07531 5.81406,0 9.83163,-5.11901 9.83163,-10.56407 0,-4.14085 -2.71104,-7.07531 -6.98993,-7.07531 M 68.10283,100 c -5.03014,0 -8.42711,-3.42354 -8.42711,-8.34692 0,-6.58624 4.86682,-12.29214 11.75876,-12.29214 4.99747,0 8.42711,3.42354 8.42711,8.34692 C 79.89429,94.2941 74.99477,100 68.10283,100"
    />
    <path
      d="M 100.92937,79.65439 99.00224,91.58787 C 98.250986,96.31562 96.29119,100 90.70578,100 c -3.4623,0 -5.91204,-1.9237 -5.91204,-5.44506 0,-0.97815 0.16331,-1.95631 0.32663,-2.96707 L 87.0475,79.65439 H 88.648 L 86.78619,91.164 c -0.13065,0.97816 -0.32663,1.98892 -0.32663,2.99968 0,2.73883 1.73115,4.33648 4.50753,4.33648 4.63817,0 5.9447,-3.52135 6.5653,-7.33616 l 1.861809,-11.50961 z"
    />
    <path
      d="m 111.25095,99.67395 h -1.2412 l -3.88693,-20.01956 h 1.69849 l 3.29898,17.28073 8.85174,-17.28073 h 1.63316 z"
    />
    <path
      d="m 134.80113,98.17411 -0.22864,1.46723 h -10.87685 l 3.20099,-19.98695 h 10.68088 l -0.22864,1.46723 h -9.08038 l -1.17588,7.17313 h 8.59043 l -0.22864,1.43463 h -8.62309 l -1.3392,8.44473 z"
    />
    <path
      d="m 147.96441,81.12162 h -2.35175 l -1.27386,7.79263 h 2.31908 c 3.201,0 5.81406,-1.17379 5.81406,-4.72775 0,-2.67362 -2.35175,-3.06488 -4.50753,-3.06488 m 0.45729,9.19465 4.4422,9.32507 h -2.02512 l -4.27888,-9.25986 h -2.44975 l -1.50251,9.25986 h -1.56783 l 3.201,-19.98695 h 4.54018 c 2.87437,0 5.32411,1.2716 5.32411,4.36909 0.0327,3.52135 -2.38442,5.80371 -5.6834,6.29279"
    />
    <path
      d="m 172.26585,79.65439 -0.22864,1.46723 h -5.81405 l -2.97236,18.51972 h -1.60049 l 3.00501,-18.51972 h -5.81405 l 0.2613,-1.46723 z"
    />
    <path
      d="m 185.59245,98.17411 -0.22864,1.46723 h -10.87686 l 3.201,-19.98695 h 10.68087 l -0.22864,1.46723 h -9.08038 l -1.14321,7.17313 h 8.55777 l -0.22865,1.43463 h -8.62309 l -1.33919,8.44473 z"
    />
  </g>
</svg>
