<?xml version="1.0" encoding="UTF-8"?>
<svg xmlns="http://www.w3.org/2000/svg" width="300" height="100">
  <g transform="translate(55,0)" fill="white">
    <path d="m 2.62069,95.4339 q 0.59561,1.0727 1.72727,1.5953 1.16143,0.4951 2.442,0.4951 0.71473,0 1.45924,-0.1925 0.77429,-0.2201 1.42946,-0.6326 0.68496,-0.4126 1.16144,-1.0178 0.50627,-0.6051 0.62539,-1.4028 0.17869,-1.1277 -0.50626,-1.7054 Q 10.27427,91.9681 9.1724,91.583 8.1003,91.1704 6.78996,90.8128 5.50939,90.4278 4.4373,89.7676 3.39498,89.1075 2.79937,88.0072 2.20376,86.8795 2.50156,84.9816 q 0.11913,-0.8527 0.65518,-1.8155 0.56582,-0.9627 1.54858,-1.7603 1.01254,-0.7977 2.442,-1.3203 1.42947,-0.5502 3.33542,-0.5502 0.86363,0 1.66771,0.1101 0.83385,0.082 1.54858,0.33 0.74451,0.2476 1.3699,0.6877 0.6254,0.4401 1.13166,1.1002 l -2.62068,1.953 q -0.41693,-0.7702 -1.34012,-1.2378 -0.89342,-0.4676 -2.1442,-0.4676 -1.19122,0 -2.02507,0.3026 -0.83386,0.275 -1.36991,0.7426 -0.53604,0.4401 -0.83385,0.9627 -0.26802,0.5227 -0.32758,0.9628 -0.17869,1.2377 0.47648,1.8979 0.68495,0.6601 1.75705,1.0727 1.10188,0.4126 2.38244,0.7427 1.31034,0.3301 2.38244,0.9352 1.0721,0.5776 1.66771,1.5953 0.62539,0.9903 0.35737,2.7506 -0.23825,1.4029 -0.98276,2.5306 -0.74451,1.1278 -1.84639,1.8979 -1.10188,0.7702 -2.50156,1.1828 -1.39969,0.4126 -2.91849,0.4126 -2.05486,0 -3.75234,-0.6327 Q 0.86364,98.7071 0,97.3043 Z" />
    <path d="m 47.28289,82.1367 h -6.78995 l 0.38714,-2.6014 h 6.81974 2.85893 6.76017 l -0.38715,2.6014 H 50.14182 L 47.5807,100 h -2.85893 z" />
    <path d="m 89.98626,99.9999 q -2.41222,0 -4.31817,-0.7701 -1.87617,-0.7977 -3.12695,-2.173 -1.25078,-1.3753 -1.78683,-3.2458 -0.53605,-1.8704 -0.20847,-4.0434 0.32759,-2.173 1.42947,-4.0434 1.10188,-1.8704 2.76958,-3.2457 1.66771,-1.3754 3.81191,-2.1455 2.14419,-0.7977 4.55641,-0.7977 2.41222,0 4.2884,0.7977 1.90595,0.7701 3.15672,2.1455 1.25078,1.3753 1.75705,3.2457 0.53605,1.8704 0.20847,4.0434 -0.32759,2.173 -1.42947,4.0434 -1.0721,1.8705 -2.7398,3.2458 -1.66771,1.3753 -3.8119,2.173 -2.1442,0.7701 -4.55642,0.7701 z m 0.38715,-2.4755 q 1.81661,0 3.36519,-0.6052 1.54859,-0.6326 2.73981,-1.6778 1.221,-1.0453 1.99529,-2.4481 0.7743,-1.4303 1.01254,-3.0257 0.23824,-1.5953 -0.11912,-2.9982 -0.32759,-1.4303 -1.221,-2.4755 -0.86364,-1.0453 -2.23354,-1.6504 -1.3699,-0.6327 -3.18651,-0.6327 -1.81661,0 -3.39498,0.6327 -1.54859,0.6051 -2.73981,1.6504 -1.19122,1.0452 -1.99529,2.4755 -0.77429,1.4029 -1.01254,2.9982 -0.23824,1.5954 0.0893,3.0257 0.35737,1.4028 1.25078,2.4481 0.89342,1.0452 2.26332,1.6778 1.36991,0.6052 3.18652,0.6052 z" />
    <path d="m 128.52715,79.5353 h 2.7398 4.67554 q 2.02508,0 3.24608,0.5492 1.25078,0.5203 1.87617,1.3585 0.65517,0.8093 0.80407,1.8499 0.1489,1.0117 0,1.9655 -0.1489,0.9828 -0.62539,1.9078 -0.47649,0.896 -1.28056,1.6476 -0.77429,0.7226 -1.81661,1.2429 -1.01254,0.4913 -2.23354,0.607 L 140.55847,100 h -3.57366 l -4.07993,-9.0184 h -3.18651 L 128.43781,100 h -2.85893 z m 1.54858,9.0183 h 3.75235 q 0.83385,0 1.6677,-0.1156 0.83386,-0.1445 1.51881,-0.4914 0.71473,-0.3468 1.19122,-0.9828 0.47649,-0.6648 0.62539,-1.7054 0.1489,-1.0405 -0.1489,-1.6764 -0.29781,-0.6648 -0.89342,-1.0117 -0.56583,-0.3469 -1.3699,-0.4625 -0.80407,-0.1445 -1.63793,-0.1445 h -3.75234 z" />
    <path d="m 171.60783,91.2707 -6.28369,-11.7354 h 3.66301 l 4.43729,8.9894 7.23666,-8.9894 h 3.48432 L 174.46676,91.2707 173.21598,100 h -2.85893 z" />
    <path d="m 38.46814,24.73018 c -0.12823,7.8553 -6.43827,8.18684 -6.43827,8.18684 h -5.68916 l 1.52521,-17.46301 h 4.35967 c 1.96387,0 6.26954,1.73885 6.24255,9.27617 m 19.33504,-4.43173 c 0,-18.56586 -13.57165,-18.56586 -15.1441,-18.56586 -1.10004,0 -31.76615,-0.0677 -31.76615,-0.0677 L 3.15891,68.31 H 23.62773 L 24.829,47.7752 c 0,0 0.3037,-2.65911 2.36205,-2.65911 1.61294,0 2.42953,1.73209 2.42953,1.73209 L 34.31768,68.195 H 53.70671 L 46.4856,42.33527 c 0,0 11.31758,-3.99193 11.31758,-22.03682" />
    <path d="m 70.46307,2.20485 h 16.39261 l 9.71813,32.03695 16.1564,-31.90839 h 17.39816 L 123.89931,68.1936 H 106.19746 L 108.00611,43.15937 96.42534,68.1936 h -5.9726 L 82.86719,44.79673 80.41066,68.1936 H 62.90452 Z" />
    <path d="m 178.56923,25.84588 h 3.15164 l 8.26041,-12.95009 c 0,0 0.3172,-1.95537 -1.66018,-3.6807 -1.75466,-2.13805 -6.66097,-9.21527 -20.13813,-9.21527 -13.34219,0 -28.29058,11.29243 -31.11153,31.1303 -3.07741,17.30068 2.8547,34.17508 18.45096,38.31588 16.48708,3.8363 28.1016,-6.8878 29.30962,-11.2383 0.91108,-1.7727 0.91108,-2.0907 0,-2.5914 -0.56689,-1.1434 -5.14926,-10.60914 -5.14926,-10.60914 h -3.33386 c 0,0 -0.67487,0 -1.62644,1.06226 -0.7761,0.77808 -3.86701,4.05288 -5.64866,4.49268 -2.30131,2.0231 -14.6042,1.7592 -13.8416,-13.85681 1.37674,-17.5442 13.65938,-17.5442 13.65938,-17.5442 0,0 4.09647,-1.12992 9.67765,6.68479" />
  </g>
</svg>
