<?xml version="1.0" encoding="UTF-8"?>
<svg xmlns="http://www.w3.org/2000/svg" width="300" height="100" fill="white">
  <path d="M 0,12 V 88 H 210 V 76.1852 H 185.16269 V 30.3928 L 210,23.662 V 12 Z M 24.06211,23.931 H 71.8582 V 41.9733 H 59.64668 V 76.1852 H 36.27363 V 41.9733 H 24.06211 Z m 82.7209,0 h 43.4543 v 13.0879 h -20.08125 v 9.6279 h 14.35839 V 59.734 h -14.35839 v 16.4512 h -23.37305 z" />
  <path d="m 242.98281,19.9259 -1.81803,3.2114 h 2.57157 l 2.58354,-3.2114 z m -15.64467,4.0969 c -2.44125,0 -3.66003,1.1448 -3.66003,3.4358 v 6.4465 c 0,2.3189 1.18941,3.4829 3.5763,3.4829 h 2.91843 c 0.47361,0 0.77646,0.07 0.92094,0.2127 0.14376,0.1448 0.21534,0.4514 0.21534,0.9207 v 5.9744 c 0,0.4697 -0.0714,0.7789 -0.21534,0.9209 -0.14457,0.1439 -0.44733,0.2125 -0.92094,0.2125 h -1.6626 c -0.47229,0 -0.78663,-0.068 -0.94485,-0.2125 -0.15717,-0.142 -0.22728,-0.4512 -0.22728,-0.9209 v -3.0463 h -3.5883 v 3.6011 c 0,2.2934 1.21881,3.4357 3.66,3.4357 h 3.81555 c 2.46618,0 3.70782,-1.1423 3.70782,-3.4357 v -7.0369 c 0,-2.292 -1.21074,-3.4357 -3.62415,-3.4357 h -2.87058 c -0.47229,0 -0.78795,-0.08 -0.94488,-0.2243 -0.15693,-0.1427 -0.23916,-0.4404 -0.23916,-0.9092 v -5.431 c 0,-0.4678 0.0821,-0.778 0.23916,-0.9208 0.15693,-0.1441 0.47262,-0.2126 0.94488,-0.2126 h 1.6506 c 0.47364,0 0.78798,0.068 0.94491,0.2126 0.15846,0.1428 0.23919,0.453 0.23919,0.9208 v 3.0462 h 3.5763 v -3.6011 c 0,-2.291 -1.22031,-3.4358 -3.66,-3.4358 h -3.8514 z m 10.87233,0 v 24.4635 h 10.70493 v -2.8571 h -7.12866 v -8.3593 h 5.6694 v -2.8572 h -5.6694 v -7.5326 h 6.85353 v -2.8573 z m 13.71906,0 v 24.4635 h 3.55233 v -9.8822 h 1.92567 l 3.69591,9.8822 h 3.82743 l -3.89922,-9.9649 c 1.75899,-0.2851 2.63139,-1.4208 2.63139,-3.4003 v -7.6625 c 0,-2.291 -1.21857,-3.4358 -3.66,-3.4358 z m 15.9078,0 v 24.4635 h 3.54039 V 24.0228 Z m 7.49943,0 v 24.4635 h 10.71687 V 45.6292 H 278.925 v -8.3593 h 5.66946 V 34.4127 H 278.925 v -7.5326 h 6.85356 v -2.8573 z m 17.06808,0 c -2.4399,0 -3.67194,1.1448 -3.67194,3.4358 v 6.4465 c 0,2.3189 1.20036,3.4829 3.58824,3.4829 h 2.9184 c 0.47142,0 0.77589,0.07 0.92097,0.2127 0.14373,0.1448 0.21534,0.4514 0.21534,0.9207 v 5.9744 c 0,0.4697 -0.0714,0.7789 -0.21534,0.9209 -0.14508,0.1439 -0.44961,0.2125 -0.92097,0.2125 H 293.577 c -0.47157,0 -0.78819,-0.068 -0.94494,-0.2125 -0.15783,-0.142 -0.22719,-0.4512 -0.22719,-0.9209 v -3.0463 h -3.58824 v 3.6011 c 0,2.2934 1.22031,3.4357 3.66,3.4357 h 3.81546 C 298.75911,48.4863 300,47.344 300,45.0506 v -7.0369 c 0,-2.292 -1.21077,-3.4357 -3.62415,-3.4357 h -2.87058 c -0.47283,0 -0.78744,-0.08 -0.94494,-0.2243 -0.15843,-0.1427 -0.23916,-0.4404 -0.23916,-0.9092 v -5.431 c 0,-0.4678 0.0807,-0.778 0.23916,-0.9208 0.15747,-0.1441 0.47214,-0.2126 0.94494,-0.2126 h 1.6506 c 0.4713,0 0.78795,0.068 0.94485,0.2126 0.15669,0.1428 0.23922,0.453 0.23922,0.9208 v 3.0462 h 3.57627 v -3.6011 c 0,-2.291 -1.21932,-3.4358 -3.66,-3.4358 z m -36.92298,2.8573 h 3.45669 c 0.47229,0 0.78666,0.068 0.94488,0.2126 0.15693,0.1428 0.23919,0.453 0.23919,0.9208 v 6.6355 c 0,0.4682 -0.0823,0.777 -0.23919,0.9209 -0.15822,0.1426 -0.47262,0.2124 -0.94488,0.2124 h -3.45669 z m -31.80375,25.5143 v 24.4637 h 3.5763 V 66.0665 h 5.6694 v -2.7743 h -5.6694 v -8.0406 h 7.16448 v -2.8572 z m 13.59942,0 v 24.4637 h 3.54039 V 52.3944 Z m 7.05687,0 v 24.4637 h 9.65238 v -2.8573 h -6.11199 V 52.3944 Z m 12.52293,0 v 24.4637 h 3.10983 V 58.9942 l 3.3849,12.5507 h 3.22941 L 269.9664,58.959 v 17.8991 h 3.10977 V 52.3944 h -3.89919 l -4.2102,15.1599 -4.21023,-15.1599 z m 23.19204,0 c -2.43993,0 -3.66006,1.1427 -3.66006,3.4357 v 6.4465 c 0,2.3194 1.19964,3.483 3.58824,3.483 h 2.90649 c 0.47217,0 0.78786,0.07 0.93294,0.2126 0.14373,0.1453 0.21534,0.4521 0.21534,0.9209 v 5.9742 c 0,0.471 -0.0714,0.7794 -0.21534,0.921 -0.14508,0.1453 -0.46086,0.2125 -0.93294,0.2125 h -1.6506 c -0.47229,0 -0.78663,-0.067 -0.94488,-0.2125 -0.15693,-0.1416 -0.23919,-0.45 -0.23919,-0.921 v -3.046 h -3.57627 v 3.6008 c 0,2.2932 1.21932,3.436 3.66,3.436 h 3.81549 c 2.46564,0 3.69588,-1.1428 3.69588,-3.436 v -7.0368 c 0,-2.2926 -1.19877,-3.4358 -3.61215,-3.4358 h -2.88255 c -0.4731,0 -0.78645,-0.069 -0.94491,-0.2124 -0.15744,-0.1441 -0.22731,-0.4537 -0.22731,-0.921 V 56.385 c 0,-0.4686 0.07,-0.7783 0.22731,-0.921 0.15846,-0.1424 0.47184,-0.2124 0.94491,-0.2124 h 1.66254 c 0.47268,0 0.78798,0.07 0.94491,0.2124 0.15669,0.1427 0.22722,0.4524 0.22722,0.921 v 3.0461 h 3.58824 v -3.601 c 0,-2.293 -1.21935,-3.4357 -3.66003,-3.4357 h -3.86334 z" />
</svg>
