<?xml version="1.0" encoding="UTF-8"?>
<svg xmlns="http://www.w3.org/2000/svg" width="300" height="100">
  <g transform="translate(0,5)" fill="white">
    <path d="M 82.02726,0.05084 H 10.88586 C 4.855196,0.05084 0,4.785 0,10.58817 0,16.44224 4.855196,21.12551 10.88586,21.12551 H 35.570698 V 89.94909 H 57.29131 V 21.17642 h 24.68484 c 6.03066,0 10.88586,-4.73418 10.88586,-10.53734 C 92.91311,4.785 88.05792,0.05084 82.02726,0.05084" />
    <path d="m 282.47019,59.25337 c -4.1397,5.39593 -10.68143,9.06109 -18.1431,9.46833 -13.44123,0.71267 -24.94038,-9.31561 -25.65588,-22.39821 -0.7155,-13.08259 9.55707,-24.23078 22.9983,-24.99436 7.46167,-0.40724 14.36115,2.54525 19.16524,7.43214 v 0 c 0.20443,0.20362 0.45997,0.40724 0.6644,0.66176 4.44634,3.86878 11.34582,3.56335 15.3322,-0.81448 3.78194,-4.12331 3.67972,-10.33372 -0.15333,-14.30431 v 0 C 287.68313,4.93771 274.59966,-0.61093 260.44293,0.10173 234.94037,1.47617 215.41738,22.65266 216.79727,47.44341 218.17717,72.23415 240,91.22172 265.50256,89.89819 279.71039,89.13462 292.02726,82.26244 300,71.97963 Z" />
    <path d="M 201.20954,2.49428 C 196.60988,-1.27269 189.7615,-0.66184 185.87734,3.7669 L 153.21976,41.64023 120.51107,3.7669 c -3.88415,-4.47964 -10.73254,-5.03959 -15.33219,-1.27262 -2.55537,2.0871 -3.88416,5.09049 -3.88416,8.09389 v 0 79.36092 h 21.72061 V 39.65494 l 21.77172,25.24889 v 0 l 0.0511,0.0509 v 0 c 1.99319,2.29073 4.95741,3.76697 8.33049,3.76697 3.37309,0 6.28621,-1.47624 8.3305,-3.76697 v 0 L 183.32197,39.65494 V 90 h 21.72061 v -79.36092 0 c 0.10221,-3.05431 -1.22658,-6.0577 -3.83305,-8.1448" />
  </g>
</svg>
