<?xml version="1.0" encoding="UTF-8"?>
<svg xmlns="http://www.w3.org/2000/svg" width="30" height="10">
  <path d="m 19.520658,0.50041768 c -0.142266,-0.002 -0.22354,0.003 -0.22354,0.003 H 15.565182 L 14.039314,6.0307177 12.907321,0.50341768 H 10.476345 L 9.2893979,6.0855177 7.8184078,0.50297768 H 5.5 L 7.9319643,9.4909977 h 2.7133467 l 1.019501,-5.41421 1.01646,5.41421 h 2.657937 c 0,0 0.510065,-1.33891 0.735001,-2.28776 1.526959,2.56815 3.957908,2.28776 3.957908,2.28776 4.523864,0 4.467849,-4.46489 4.467849,-4.46489 0,-4.20181002 -3.983446,-4.51342002 -4.979309,-4.52569002 z m 0.569455,1.17101002 c 2.244654,0 3.22496,1.47053 3.22496,3.12149 0,2.08264 -1.144175,3.59244 -3.489621,3.59244 -1.419044,0 -2.640668,-0.50968 -2.882922,-1.80129 h 2.013614 c 0.04479,0.14172 0.177097,0.27337 0.340974,0.34876 0.176095,0.0764 0.374615,0.0945 0.528334,0.0945 0.990498,0 1.254149,-0.78203 1.375296,-1.31976 l -0.02136,-0.0191 c -0.484547,0.35886 -1.067844,0.51867 -1.716345,0.51867 -1.496409,0 -2.597815,-0.73582 -2.597815,-2.08422 0,-1.59313 1.486182,-2.45152 3.224884,-2.45152 z m -0.07737,1.48915 c -0.583277,-4e-5 -1.122796,0.38696 -1.122796,0.90563 0,0.5096 0.528303,0.88657 1.100373,0.88657 0.594485,0 1.101513,-0.34776 1.101513,-0.87696 0,-0.51867 -0.474409,-0.91524 -1.07909,-0.91524 z"
        fill="white" />
</svg>
