<?xml version="1.0" encoding="UTF-8" ?>
<svg xmlns="http://www.w3.org/2000/svg" width="100" height="100">
  <g transform="translate(10,0)" fill="white" opacity="1">
    <path
      d="m 66.12614,27.105852 11.676906,-10.5775 C 69.815064,4.6264126 43.5412,-5.3093324 22.879261,3.1660922 2.2140153,11.643154 -1.4005011,35.023015 11.827372,46.697393 25.0569,58.37177 53.111566,55.803112 60.254618,65.208427 67.51176,74.759447 57.341179,84.796694 45.641124,85.531765 34.096498,86.25374 20.810753,84.528204 12.842612,70.686266 L 0,82.740458 C 11.438804,97.716928 34.318065,102.8215 54.999845,98.542041 75.679972,94.267494 84.878305,74.797101 77.450854,57.613779 73.981844,49.590202 64.520607,45.165038 53.283528,42.69952 40.487214,39.895115 29.096361,38.914474 23.373653,32.86364 17.667478,26.825903 22.804854,17.779119 31.808075,14.7095 40.812951,11.643154 56.603724,13.560234 66.12614,27.105852 Z"
    />
  </g>
</svg>
