<svg role="img" viewBox="0 0 24 24" xmlns="http://www.w3.org/2000/svg">
  <path
    d="m18.198 6.523 2.79-2.532C19.098 1.115 12.832-1.29 7.94.77c-4.893 2.018-5.794 7.64-2.618 10.43 3.133 2.789 9.828 2.188 11.501 4.463 1.717 2.274-.686 4.72-3.476 4.892-2.746.172-5.922-.257-7.81-3.562L2.49 19.87c2.704 3.605 8.155 4.807 13.09 3.777s7.081-5.708 5.322-9.828c-.816-1.93-3.09-3.004-5.751-3.562-3.047-.686-5.751-.901-7.124-2.36-1.33-1.46-.086-3.648 2.017-4.378 2.146-.73 5.922-.257 8.154 3.005"
    fill="#fff"
  />
</svg>
