<?xml version="1.0" encoding="UTF-8"?>
<svg xmlns="http://www.w3.org/2000/svg" width="100" height="100">
  <g opacity="0.2">
    <path d="M 0,0 H 100 V 100 H 0 Z m 59.405246,88.39379 c 2.559868,-0.31147 4.69375,-0.91019 6.749594,-1.8938 2.089874,-0.99988 3.174804,-1.70554 4.990844,-3.24614 L 72.4,82.18978 c 0,2.00341 0,6.01022 0,6.01022 H 88.2 V 11.78187 l -16.3,3.33369 c 0,0 -0.06876,15.90097 -0.103134,23.85146 l -1.148432,-1.20696 c -2.793118,-2.93547 -6.5419,-4.7638 -11.00567,-5.36762 C 57.416184,32.09125 52.953582,32.2434 50.9,32.69052 45.602176,33.844 41.1875,36.33492 37.1,40.47696 32.943222,44.68921 30.339568,49.62133 29.274952,55.3 c -0.49435,2.63688 -0.492992,7.77612 0.0028,10.5 2.185252,12.00632 12.079692,21.45918 23.72227,22.66357 1.548514,0.16019 4.806954,0.12469 6.405246,-0.0698 z M 57.106156,73.57733 C 53.946544,73.1171 51.362792,71.80832 49.09557,69.51962 46.524828,66.92454 45.365796,64.05953 45.365796,60.3 c 0,-5.30407 2.846786,-9.89491 7.561432,-12.19387 1.950188,-0.95096 3.738144,-1.33579 6.164558,-1.32684 2.420146,0.009 3.843116,0.34798 6.101444,1.45381 5.261484,2.57638 8.153846,8.92259 6.893548,15.12533 -1.032462,5.0814 -5.22864,9.2593 -10.186992,10.14262 -1.775812,0.31635 -3.010552,0.336 -4.79363,0.0763 z" />
  </g>
</svg>
