<?xml version="1.0" encoding="UTF-8"?>
<svg xmlns="http://www.w3.org/2000/svg" width="100" height="100">
  <g transform="translate(0,11)" fill="white" opacity="1">
    <path d="M 29.77558,77.687878 C 28.70876,74.743668 25.61295,71.698255 20.06449,71.495781 14.83505,71.386113 7.36392,73.385473 1.17401,78 L 0,76.532128 c 4.4825,-4.833873 14.94139,-12.595074 25.93368,-12.704732 5.76285,0 9.81828,1.889672 12.70056,4.935104 l 4.80237,-2.623623 1.38669,2.724855 z M 95.62384,13.329005 c -4.16177,2.412724 -5.54932,5.669046 -5.54932,10.705392 v 40.214798 c 0,2.522381 0.31988,3.669686 1.70742,4.412063 l 1.38755,0.733941 3.84103,-2.210249 1.28121,2.522381 L 84.95142,77.5782 80.36258,74.541214 C 78.3353,73.174563 77.48115,71.495781 77.48115,68.239449 V 32.335502 c 0,-6.723564 2.13449,-10.292028 5.12225,-12.493842 l 1.70828,-1.265418 -12.59337,-7.23815 -5.65651,3.357554 V 66.97404 c 0,4.412073 -0.63975,5.044773 -4.5897,7.035696 0,0 -3.0941,1.467883 -7.36307,3.678142 H 53.25489 V 19.731992 c 0,-2.834533 -0.32073,-3.458786 -1.92094,-4.724205 l -4.4825,-3.568474 -5.44298,3.045433 v 30.024021 c 0,5.255682 -0.85328,9.035046 -5.12225,11.658649 l -10.67327,6.613897 -1.06682,-1.78845 c 3.3085,-2.522391 4.05629,-6.090856 4.05629,-10.292009 V 20.05257 c 0,-4.521741 -0.64145,-6.301765 -5.44383,-5.466592 -1.81461,0.320578 -4.58798,0.742377 -6.29625,0.944851 C 9.81828,16.47566 6.83052,11.548991 11.63289,5.348468 c 0,0 1.17316,-1.569104 4.16263,-5.348468 l 2.34716,1.569114 -1.70741,2.412714 c -2.24168,3.15509 -0.42707,4.833882 3.20215,3.5769 1.70656,-0.63271 5.01591,-1.889682 7.36307,-2.834523 C 37.1395,0.835163 40.87506,7.23816 41.40847,11.017524 L 54.00184,3.568464 64.88779,11.751465 78.3353,3.568464 88.68698,9.338742 c 3.52203,1.99935 5.22944,1.15575 7.6838,-0.101232 L 98.39892,8.183001 100,10.806614 z" />
  </g>
</svg>
