<svg role="img" viewBox="0 0 24 24" xmlns="http://www.w3.org/2000/svg">
  <path
    d="M3.791 2.5a76 76 0 0 0-.998 1.305c-1.153 1.508-.436 2.711 1.254 2.48.41-.05 1.077-.155 1.514-.228 1.152-.205 1.304.23 1.304 1.33v7.465c0 1.022-.178 1.893-.972 2.507l.257.434 2.563-1.61c1.024-.638 1.228-1.56 1.228-2.837V6.03l1.309-.742 1.074.87c.384.306.463.459.463 1.15v14.117h.205c1.024-.536 1.764-.895 1.764-.895.95-.486 1.101-.638 1.101-1.713V6.082l1.358-.818 3.023 1.765-.41.307c-.716.536-1.23 1.407-1.23 3.041v8.746c0 .793.204 1.202.693 1.533l1.102.744 3.2-1.918-.306-.615-.924.54-.334-.18c-.331-.181-.41-.46-.41-1.075V8.357c0-1.226.332-2.019 1.334-2.607L24 5.137l-.385-.64-.486.255c-.59.307-1 .511-1.844.025l-2.488-1.406-3.227 1.994-2.61-1.994-3.023 1.817C9.81 4.266 8.91 2.705 6.48 3.65c-.564.231-1.358.54-1.768.692-.871.307-1.307-.1-.77-.87l.413-.59zm2.436 15.549c-2.637.026-5.15 1.917-6.227 3.094l.281.357c1.485-1.124 3.278-1.612 4.535-1.586 1.332.05 2.075.79 2.33 1.508l3.614-2.149-.332-.666-1.153.645c-.692-.74-1.664-1.203-3.048-1.203"
    fill="#fff"
  />
</svg>
