<?xml version="1.0" encoding="UTF-8"?>
<svg xmlns="http://www.w3.org/2000/svg" width="100" height="100">
  <g transform="translate(0,18)" fill="white">
    <path d="m 79.123823,0.00910198 -0.262297,0.186473 V 2.023746 c 0,0.216574 0.101914,0.394751 0.290643,0.530568 0.192358,0.143159 0.392034,0.222079 0.602539,0.222079 l 1.71546,0.0859 c 2.119572,0.0881 2.69574,0.513683 3.515985,1.233146 0.816616,0.737818 0.918693,1.99464 0.283566,3.763933 L 66.973838,51.764779 66.272056,51.571331 54.653709,27.539523 c 0.0098,-0.02203 0.269374,-0.559237 0.269374,-0.559237 L 64.429005,9.006618 c 1.106968,-1.897769 2.174183,-3.591298 2.714965,-4.380506 0.990827,-1.442597 1.545672,-1.714048 4.253208,-1.842524 0.551669,0 0.829373,-0.249976 0.829373,-0.752793 V 0.20974398 l -0.20557,-0.193447 c 0,0 -11.624644,-0.0367 -16.800174,0 l -0.262297,0.186472 V 2.023784 c 0,0.223914 0.09484,0.401908 0.283565,0.537725 0.192359,0.143159 0.39203,0.215105 0.602536,0.215105 l 0.829377,0.09324 c 2.115942,0.0881 3.090949,0.651334 3.381302,1.003724 0.504487,0.624025 0.755253,1.295366 -0.467856,3.993354 L 52.279004,22.61439 45.665268,8.935185 C 43.494884,4.563343 42.958811,3.212843 46.225274,2.955892 l 1.297229,-0.186473 c 0.627887,0 0.935704,-0.222813 0.935704,-0.659594 V 0.19561198 l -0.47494,-0.157842 c 0,0 -12.30045,-1.84e-4 -17.828033,0.0074 l -0.255183,0.186472 V 2.153051 c 0,0.429475 0.440689,0.538606 1.297229,0.652436 3.059588,0.407451 2.998454,0.72886 6.025377,6.796582 0.453676,0.910341 1.786346,3.649221 1.786346,3.649221 l 6.88311,13.693558 c 0,0 1.491497,3.320178 2.013183,4.488021 l -10.02339,20.217734 -0.574187,-0.1505 c 0,0 -15.539236,-33.153065 -20.039697,-44.242348 -0.468193,-1.14894 -0.680513,-1.998714 -0.680513,-2.523629 0,-1.126915 1.001999,-1.736623 3.012689,-1.82105 l 2.346355,-0.100208 c 0.620628,0 0.935704,-0.242636 0.935704,-0.745636 V 0.24621798 l -0.20557,-0.186473 c 0,0 -18.6239452,-0.02203 -22.4711139,0 L 0,0.24621798 V 2.160432 c 0,0.345049 0.4298009,0.556996 1.2972285,0.652436 2.3627423,0.128475 3.9166943,0.512067 4.6643513,1.147104 0.744028,0.642378 1.527924,2.267191 2.573192,4.796325 5.6509822,13.72854 17.6590952,38.226422 23.5060652,52.178876 1.684043,3.810221 3.803104,4.396805 6.372722,-0.121868 2.801279,-5.25502 7.643387,-15.293666 11.519105,-23.393761 l 0.141764,-0.745661 c 0.0617,-0.223915 0.204771,-0.403669 0.389874,-0.157841 l 0.248106,1.154262 c 3.603247,8.029323 8.047529,17.899116 10.540868,23.092652 1.905437,3.975403 4.070431,4.365235 6.27348,0.121868 C 73.282991,47.941821 90.111293,8.999864 90.111293,8.9999 c 0.72951,-1.912488 1.745173,-3.384048 3.048125,-4.452231 1.29933,-1.060842 3.30367,-1.656859 6.01121,-1.777993 0.55166,0 0.82937,-0.249977 0.82937,-0.745635 V 0.19586798 l -0.20557,-0.186473 H 79.123842 Z" />
  </g>
</svg>
