<?xml version="1.0" encoding="UTF-8"?>
<svg xmlns="http://www.w3.org/2000/svg" width="100" height="100">
  <g transform="translate(6,0)" fill="white" opacity="1">
    <path d="m 44.015587,38.791484 c 11.190932,0 20.23096,8.641203 20.23096,19.286162 0,3.287414 -0.841658,6.355667 -2.369111,9.048215 h 25.093872 c 0.685796,-2.911709 1.028693,-5.948653 1.028693,-9.048215 0,-17.845961 -11.720864,-33.0933 -28.211123,-39.13588 V 2.4e-8 H 37.999292 V 39.668128 c 1.901523,-0.563557 3.927737,-0.876644 6.016295,-0.876644 z" />
    <path d="m 51.091747,76.142768 c -2.213248,0.782718 -4.582359,1.22104 -7.07616,1.22104 -11.190932,0 -20.23096,-8.641203 -20.23096,-19.286162 0,-2.974327 0.716967,-5.79211 1.963868,-8.296807 H 0.87283033 C 0.31172512,52.473388 0,55.228554 0,58.077646 0,81.214778 19.701028,100 43.984414,100 c 2.400284,0 4.769395,-0.187852 7.076161,-0.532247 V 76.142768 z" />
  </g>
</svg>
