<?xml version="1.0" encoding="UTF-8" ?>
<svg xmlns="http://www.w3.org/2000/svg" width="100" height="100">
  <g transform="translate(0,0)" fill="white" opacity="1">
    <path
      d="M 0,86 V 73.4 C 0,70.849999 0.66287875,68.50625 1.9886364,66.36875 3.314394,64.231249 5.0757576,62.6 7.2727273,61.474999 11.969697,59.149999 16.742424,57.40625 21.590909,56.24375 26.439394,55.08125 31.363636,54.5 36.363636,54.5 c 5,0 9.924242,0.58125 14.772728,1.74375 4.848485,1.1625 9.621212,2.906249 14.318181,5.231249 2.19697,1.125001 3.958333,2.75625 5.284091,4.893751 1.325758,2.1375 1.988637,4.481249 1.988637,7.03125 V 86 Z m 81.818182,0 V 72.5 c 0,-3.3 -0.928031,-6.46875 -2.784091,-9.506251 -1.85606,-3.037499 -4.488636,-5.64375 -7.897727,-7.818749 3.863636,0.45 7.5,1.218749 10.909091,2.30625 3.40909,1.0875 6.590909,2.418749 9.545454,3.993749 2.727273,1.500001 4.810606,3.168751 6.25,5.006251 C 99.280303,68.31875 100,70.325 100,72.5 V 86 Z M 36.363636,50 c -5,0 -9.280303,-1.7625 -12.840909,-5.2875 C 19.962122,41.187501 18.181818,36.95 18.181818,32 c 0,-4.95 1.780304,-9.1875 5.340909,-12.7125 C 27.083333,15.7625 31.363636,14 36.363636,14 c 5,0 9.280304,1.7625 12.840909,5.2875 3.560606,3.525 5.34091,7.7625 5.34091,12.7125 0,4.95 -1.780304,9.187501 -5.34091,12.7125 C 45.64394,48.2375 41.363636,50 36.363636,50 Z M 81.818182,32 c 0,4.95 -1.780304,9.187501 -5.340909,12.7125 C 72.916667,48.2375 68.636364,50 63.636364,50 62.803031,50 61.742424,49.906247 60.454545,49.718749 59.166667,49.531249 58.10606,49.325 57.272727,49.099999 59.318182,46.7 60.890151,44.0375 61.988636,41.1125 63.087122,38.1875 63.636364,35.15 63.636364,32 c 0,-3.15 -0.549242,-6.1875 -1.647728,-9.1125 C 60.890151,19.9625 59.318182,17.3 57.272727,14.9 58.333333,14.525 59.39394,14.28125 60.454545,14.16875 61.515151,14.05625 62.575758,14 63.636364,14 c 5,0 9.280303,1.7625 12.840909,5.2875 3.560605,3.525 5.340909,7.7625 5.340909,12.7125 z"
    />
  </g>
</svg>
