<svg role="img" viewBox="0 0 24 24" xmlns="http://www.w3.org/2000/svg">
  <path
    d="M0 21v-3.15q0-.956.477-1.758.477-.801 1.268-1.223a16 16 0 0 1 3.437-1.308 14.6 14.6 0 0 1 3.545-.436q1.8 0 3.546.436t3.436 1.308q.79.422 1.268 1.223.477.802.478 1.758V21Zm19.636 0v-3.375q0-1.237-.668-2.377-.668-1.138-1.895-1.954a13.4 13.4 0 0 1 4.909 1.575q.981.563 1.5 1.251.518.69.518 1.505V21ZM8.727 12q-1.8 0-3.082-1.322Q4.364 9.357 4.364 7.5t1.281-3.178Q6.927 3 8.727 3t3.082 1.322T13.091 7.5t-1.282 3.178T8.727 12m10.91-4.5q0 1.856-1.282 3.178T15.273 12q-.3 0-.764-.07a7 7 0 0 1-.764-.155 6.74 6.74 0 0 0 0-8.55q.383-.141.764-.183.383-.042.764-.042 1.8 0 3.082 1.322 1.281 1.321 1.281 3.178"
    fill="#fff"
  />
</svg>
