<svg role="img" viewBox="0 0 24 24" xmlns="http://www.w3.org/2000/svg">
  <path
    d="M21.99 2.471c-.04-.151-.121-.235-.267-.352-.145-.112-.236-.11-.236-.11l-.038-.037c.025-.03.021-.047.017-.07-.005-.022-.01-.05.009-.1.037-.1 0-.117 0-.117s-.103-.002-.087-.1q.01-.059.027-.096c.013-.036.024-.065.013-.103-.01-.029-.028-.03-.048-.03-.024-.002-.05-.003-.067-.051-.04-.134-.084-.105-.084-.105l-.07-.024c-.085-.093-.207-.09-.207-.09l-.12-.09c-.035-.103-.057-.212-.075-.302-.023-.112-.04-.192-.067-.19s-.029.036-.03.08c-.002.037-.004.08-.02.123-.034.094-.07.047-.07.047-.121-.287-.235-.346-.304-.382-.027-.014-.047-.024-.059-.043-.022-.033-.04-.04-.066-.05-.024-.01-.055-.023-.103-.064-.096-.082-.161.01-.042.086.089.058.122.161.146.237a.4.4 0 0 0 .025.069c.03.063-.023.1-.08.06-.027-.02-.034-.052-.044-.093a.5.5 0 0 0-.07-.173c-.092-.137-.396-.434-.415-.345-.012.046.011.079.05.134.037.054.089.129.137.258.089.245.019.25-.017.254h-.008c-.028.003-.078-.027-.192-.188-.113-.162-.202-.185-.202-.185-.046-.085-.113-.128-.198-.183l-.032-.02c-.04-.026-.068-.059-.09-.084-.031-.036-.05-.058-.076-.028-.05.047-.01.147.129.285.106.108.114.127.14.19l.031.074c.059.135.042.163-.047.17-.074.004-.217-.156-.31-.262l-.034-.037-.014-.016a2 2 0 0 0-.196-.176L18.555.18c-.089-.07-.108.011-.059.107.045.091.188.296.282.42.093.126-.01.166-.09.161-.074-.004-.156-.067-.156-.067-.11-.062-.167-.09-.21-.113L18.228.64a1 1 0 0 1-.1-.073c-.055-.044-.106-.084-.122-.07l-.002.001c-.026.024-.069.063.035.23.105.173-.007.166-.007.166-.176-.063-.34.028-.303.168a.6.6 0 0 0 .138.24s-.009.01-.028.082c-.018.075.07.135.07.135.003.077.052.224.181.227.125 0 .127.014.13.035.001.018.004.041.09.067.185.059.478.06.478.06.02.045-.032.083-.032.083s-.652.238-1.554 1.278a.6.6 0 0 0-.062.12 1 1 0 0 1-.055.109c-.14.173-.253.324-.387.53a2 2 0 0 1-.105.145c-.04.05-.079.102-.106.146a10 10 0 0 1-.188.306 5 5 0 0 0-.278.474q-.01.021-.02.048l-.018.042c-.03.073-.064.156-.093.2-.34.524-.528.732-.528.732s-.225.315-1.213.728a3.2 3.2 0 0 1-.626.198c-.338.075-.635.154-.937.25l-.218.068c-.247.075-.5.153-.88.31-.159.069-.352.17-.561.278-.214.112-.444.232-.668.333 0 0-.015-.077-.078-.2a1 1 0 0 1-.054-.11.3.3 0 0 0-.031-.04l-.03-.035q-.01-.02-.02-.04a.3.3 0 0 0-.029-.053q-.025-.034-.06-.067l-.048-.052-.017-.02c-.112-.128-.214-.243-.435-.283a1 1 0 0 1-.07-.026q-.018-.01-.038-.016a.2.2 0 0 1-.053-.02l-.024-.01c-.036-.017-.073-.046-.108-.073a1 1 0 0 0-.075-.054c-.3-.175-.443-.357-.443-.357s-.215-.963-1.017-1.614c-.02-.016-.052-.02-.084-.024a.2.2 0 0 1-.08-.02c-.032-.026-.058-.064-.083-.1S7.334 5 7.307 4.984l-.106.014-.011-.035-.106-.151-.056.063-.069-.033c-.217-.102-.461-.218-.73-.25l-.417.04a3 3 0 0 0-.471.054 2.3 2.3 0 0 0-.33.095c-.35.112-.654.26-.915.453a3.6 3.6 0 0 0-.735.76c-.675.78-.907 1.919-.907 1.919-.143.24-.192.62-.192.62-.272.666-.34 1.47-.167 2.124.176.654.633.973.633.973l.002-.077-.274-.58a4 4 0 0 1-.091-.783c-.019-.338.064-.674.104-.84q.01-.037.015-.063c.03-.123.085-.18.085-.18.058.117.21.337.21.337-.04-.17-.14-.544-.14-.544.326-.684.532-.826.532-.826v-.03c-.035-.024-.061-.047-.061-.047.077.019.115.01.115.01.129-.155.248-.269.248-.269.042.084.082.107.082.107l.028-.077.04.012.028-.063c.035-.012.078.014.078.014l.06-.021c-.135.065-.166.17-.166.17l.038.087.145.119.021.03c-.178.26-.255.509-.255.509-.005.074-.038.191-.038.191-.073.159-.08.418-.058.544a.5.5 0 0 0 .112.221s.066-.247.103-.364a1 1 0 0 1 .06-.139c.019-.038.04-.079.064-.145.047-.136.122-.192.122-.192l.019-.018q-.001.018-.005.054c-.011.105-.033.307.03.422q.044.078.071.136c.034.068.054.109.07.104.028-.014.08-.138.08-.138s.019.035.037.075c.02.042-.004.084-.004.084-.195.107-.197.147-.197.147l.063-.002c.174-.007.017.053.017.053-.11.033-.104.077-.104.077l.075.003-.007.037.057.007.009.021-.108.068c.026.226.15.22.35.16a8 8 0 0 0 .384-.113l-.01.032s.457-.11.593-.14c.134-.032.235.075.235.075-.047.04-.038.11-.038.11-.087.023-.094.128-.094.128s-.044.023-.011.152c.032.128.175.31.175.31.12.01.16.089.122.21-.037.119.033.247.249.275.218.03.218.12.218.12.08.13.018.249.018.249-.12.142.13.282.13.282.121.131.039.269.039.269l-.033-.045-.004.066-.047-.075-.005.068-.08-.038c.073.122.153.173.153.173v.063l.023.03-.007.052c.033.053-.007.081-.007.081.108.068.028.187.028.187.16.1.246.208.246.208l-.028.058.136.012.098.067.068-.049.054.056.024.063.028.026.002.056c.042.044.01.082.01.082.121.042.065.175.065.175.028.051.059.184.059.184l.159.103.105.049.05.007-.035.156.058-.058.12.147c.12.23.323.45.43.516.111.07.034.14.034.14a1 1 0 0 1 .243.205l-.028.058.136.01.1.07.069-.05.068.087.07-.007-.019.058.148.159.09.007-.04.07.105.03-.017.068.136-.037.05.067.119.089.11.047.05.011.098.117.058-.058.117.149.068.065-.068.052c.04.028.277.156.277.156l.028.098.061.047v.13s.03 0 .148-.02c.117-.022.215.07.215.07-.058.44.05.394.05.394l.11-.045c.157 0 .199-.095.199-.095.008.042.057.073.102.102.04.025.077.049.083.077.01.056-.096.124-.096.124l.096.042.051-.03v.058l.099-.04c.05.257.117.196.117.196s.117-.049.148-.095c.03-.052.129.107.129.107l.018.107c-.089.236-.058.581-.058.581.136.37.3.518.3.518s.058.551.168.72c.106.162.485 1.332.549 1.53s.145.455.145.455-.04.077-.01.08c.033 0 .024.053.024.053-.027.048-.02.058-.01.071.006.007.012.014.012.03.003.039.01.251-.072.26-.08.01-.085.113-.085.113-.102.05-.102.076-.101.097q0 .008-.002.015c-.009.02-.08.07-.08.07l-.002.032s-.054.052-.082.087c-.03.035-.145.128-.145.128l-.06.037-.064.052-.05.028-.046.02-.052.017-.035.03-.026.014c-.175.028-.267.138-.325.271-.059.138 0 .275.072.147.07-.121.18-.121.18-.121s-.011.123.174.14c.18.011.267-.059.295-.082.03-.02.066-.103.066-.103.016-.028.084-.042.084-.042q.046-.04.078-.073a1 1 0 0 1 .105-.092c.068-.054.084-.042.084-.042s.017.105-.018.189c-.038.08-.192.214-.192.214-.16.054-.28.122-.31.14a1 1 0 0 0-.124.117l-.002.03c-.11.068-.307.26-.33.409-.026.152.095.044.161-.023.068-.073.127-.117.127-.117h.042c.035.07.253.102.354 0 .092-.099.164-.105.223-.11l.02-.002.021-.003c.06-.006.137-.015.24-.18a.45.45 0 0 1 .356-.216c.098-.014.213.065.213.065l-.028.019c-.19.04-.305.212-.338.347-.03.126.038.169.075.087.035-.084.15-.14.174-.142.02-.005.028.027.028.027.026.115.178.143.307.112.12-.031.16-.096.183-.135l.007-.012c.02-.037.044-.044.044-.044s-.002.103-.012.145c-.009.042-.12.147-.12.147-.105.047-.11.08-.11.08-.177.021-.214.053-.234.07l-.009.009c-.021.014-.054.042-.054.042-.162.049-.288.193-.347.27s-.14.269-.063.215c.103-.075.258-.18.258-.18.034-.024.042-.01.053.013.01.018.022.042.055.055.112.042.307-.019.307-.019.037-.063.086-.07.086-.07.225 0 .305-.105.305-.105h.131l.11-.072c.216-.056.155-.138.155-.138.07-.004.637-.007.72.005.081.012.306.077.306.077l.352.014s.323.063.405.023a.39.39 0 0 1 .37.01c.099.05.378.046.408-.017.03-.065.082-.102.082-.102.067.01.122.047.175.084.06.042.118.083.189.076.133-.011-.014-.16-.186-.3-.173-.138-.405-.16-.405-.16l-.007-.016c.031-.009.041-.006.057 0 .022.007.057.019.189 0 .225-.03.178-.116.178-.116.08-.073.216-.063.384-.016.172.053.143-.026-.042-.183-.185-.154-.482-.07-.482-.07l-.05-.035h-.129l-.072-.03q-.051.008-.129.024c-.182.037-.45.09-.605.032-.197-.07-.304-.026-.304-.026l-.143-.084c.08.012.122-.072.122-.072.147.08.278-.007.278-.007s0 .04.19.037c.195-.007.223-.18.223-.18.058-.039.197-.013.197-.013.272.128.17-.026.17-.026-.189-.292-.517-.18-.517-.18-.143-.079-.16-.02-.16-.02-.246-.022-.381.034-.381.034q-.067 0-.135-.002a2.4 2.4 0 0 0-.355.01c-.155.02-.45-.036-.45-.036-.09-.16-.183-.55-.253-.851-.04-.166-.072-.304-.094-.362-.066-.163-.272-1.176-.272-1.176l-.1-.64c.065-.074.067-.116.078-.34l.001-.021a.56.56 0 0 1 .087-.265c.043-.078.092-.167.124-.33.05-.253.331-.571.512-.776q.08-.09.123-.144c.12-.163.314-.53.314-.53.077.108.127.061.19-.01.039-.046.05-.123.06-.186a.4.4 0 0 1 .017-.086c.026-.05.042-.149.042-.149l.005-.18c.04-.154.124-.329.124-.329l.035-.102.017-.056s-.021-.01.12-.234c.142-.224.508-.476.508-.476l-.127.15c.075-.047.3-.131.3-.131l.07-.058-.032.095c.293-.329.351-.214.351-.214l.01-.122c.028-.058.075.052.075.052.117-.115.21-.217.21-.217l.01.126.051.011c.017-.093.08-.147.08-.147.03.077-.012.187-.012.187l.047-.082.01.026c.051-.044.08-.161.08-.161l.056.005s.117-.154.103-.264c-.01-.112.056-.233.056-.233a.16.16 0 0 0 .082.128v-.19l.049.029c-.01-.194.024-.402.024-.402.253-.24.97-.812.97-.812a2.4 2.4 0 0 0 .276-.265c.096-.102.201-.214.335-.327.27-.227.476-.38.476-.38l-.012-.064.061-.023c.225-.313.434-.693.525-1.001l.255-.842-.02-.066c.065-.009.064-.06.062-.114 0-.041-.002-.084.029-.107.075-.052.063-.238.063-.238.096-.182.08-.332.08-.332.042-.06.063-.222.06-.32-.002-.06.016-.15.054-.34.022-.107.05-.243.083-.422.076-.401-.043-.821-.154-1.21-.048-.17-.095-.335-.123-.49-.153-.382-.339-.684-.484-.92l-.09-.148c-.087-.142.005-.18.005-.18l.323-.072.504-.159s.12-.081.166-.154c.045-.07.085-.088.085-.088.166-.03.142-.166.142-.166.181-.187.12-.537.12-.537s.073-.121-.042-.494c-.12-.376-.274-.4-.274-.4s.007-.011-.033-.086c-.04-.07-.101-.067-.101-.067.014-.039.038-.057.065-.08q.02-.014.04-.035c.04-.044.08-.03.08-.03l.057.005c.05.005.087.008.159.006.094-.004.145-.014.192-.041.017-.008.039-.003.058 0 .04.01.074.017.047-.085zm-8.396 18.822c-.026-.092-.052-.152-.082-.22a3 3 0 0 1-.138-.377c-.106-.348-.455-1.75-.455-1.75l.059-.045c.058.185.258.46.258.46.159.394.3 1.031.391 1.468.094.44.152.672.152.672-.105-.173-.185-.208-.185-.208"
    fill="#0003"
  />
</svg>
