<?xml version="1.0" encoding="UTF-8" ?>
<svg xmlns="http://www.w3.org/2000/svg" width="100" height="100">
  <g transform="translate(0,13)" fill="white" opacity="1">
    <path
      fill-rule="evenodd"
      clip-rule="evenodd"
      d="m 65.70427,42.672592 c 0.06131,-0.0018 0.107757,-0.0031 0.149814,-0.01406 0.03879,-0.01 0.07383,-0.02819 0.113272,-0.06268 0.04757,-0.04142 0.101683,-0.106134 0.17673,-0.208015 -1.224122,1.760459 -2.659461,3.530718 -4.357792,5.409144 -6.654727,7.349144 -14.973112,9.805946 -18.242017,9.861601 -2.931519,0.0514 -6.48379,-1.112836 -8.878763,-2.409744 -2.394879,-1.294783 -6.392949,-4.984332 -6.392949,-4.984332 l -8.288011,3.516203 c 0,0 2.137401,-2.026719 4.527981,-4.781029 1.880108,-2.160497 0.173739,-4.186475 -1.738332,-6.456895 -0.523649,-0.62173 -1.062813,-1.261771 -1.547863,-1.927975 -0.228226,-0.313687 -0.473649,-0.645496 -0.732343,-0.995239 l -1.86e-4,-1.85e-4 C 18.196222,36.513761 14.846382,31.98577 13.156742,26.038467 11.278876,19.421261 12.73057,13.895536 15.778819,9.5104754 19.551186,4.0866132 25.902733,2.3395877 28.182004,1.7126843 28.387613,1.6561317 28.560044,1.6086949 28.694438,1.5684971 30.321367,1.0826929 36.004684,-0.12433072 41.850245,0.0104959 50.81985,0.22022625 61.965828,3.4111359 67.294376,9.135918 67.194842,9.0439012 67.129889,8.9796937 67.129889,8.9796937 67.004,8.9539922 66.880634,8.9286235 66.760072,8.9038004 65.163144,8.5751913 64.036779,8.3434249 63.471541,8.7314433 c -0.03,0.020718 -0.06019,0.041279 -0.09028,0.061767 l -6.54e-4,4.53e-4 c -0.578136,0.3940092 -1.110103,0.7565664 0.328975,1.5578417 1.514311,0.843156 4.872002,0.612029 4.872002,0.612029 0,0 0,0 0,-9.3e-5 0.314862,0.604355 0.62122,1.302177 0.905988,2.053252 -0.84767,0.04327 -1.36459,0.113161 -1.878333,0.27042 -0.452433,0.13766 -0.902437,0.342995 -1.574031,0.657607 -0.999354,0.46993 -1.987026,2.235012 -2.390113,3.563907 -0.144113,0.474923 -0.213553,0.894097 -0.182151,1.17857 0.04692,0.417788 -0.04346,3.266491 -0.161777,6.694218 -0.01991,0.575787 -0.04056,1.167938 -0.06159,1.76767 v 1.84e-4 4.63e-4 4.62e-4 c -0.17645,5.047844 -0.371686,10.630982 -0.276918,11.515742 0.259628,2.364813 1.927585,4.079046 2.537684,4.019137 0.0843,-0.0091 0.149907,-0.01091 0.203927,-0.01248 z M 68.579433,10.95928 c 8.41e-4,9.25e-4 0.0014,0.0018 0.0017,0.0025 z m 0.0017,0.0025 c 3.74e-4,8.32e-4 4.68e-4,0.0014 4.68e-4,0.0017 z M 55.27811,8.6250226 C 56.01578,7.8781265 56.080734,6.724611 53.008653,6.1382198 49.012826,5.3806178 43.45708,5.0317803 38.154514,5.7294553 36.183657,5.9884116 34.429157,6.690367 34.069995,7.5528364 c -0.469443,1.1363937 0.03243,2.3327141 1.678799,2.4996816 2.033661,0.20968 2.574507,0.301668 3.736292,0.618407 2.094129,0.567189 3.043949,2.15088 3.651805,5.866038 0.718417,4.380068 1.32973,18.703188 1.484031,22.319514 l 0.0066,0.153839 c 0.0843,1.932512 0.374209,5.142607 0.605706,6.182777 0.631687,2.839922 1.73721,3.00467 2.35815,1.256229 0.616547,-1.737808 0.478135,-10.229742 0.339629,-14.72824 -0.07421,-2.413165 -0.05206,-5.666067 -0.03121,-8.726392 v -1.84e-4 -9.3e-5 -1.85e-4 -1.85e-4 -9.2e-5 c 0.01804,-2.646974 0.03514,-5.149726 -0.01206,-6.840013 -0.0843,-3.120327 0.67281,-5.093423 2.410113,-6.127122 0.848605,-0.5049691 1.840109,-0.6150786 2.742359,-0.7152959 0.92169,-0.1023898 1.750201,-0.1944067 2.237868,-0.6864975 z m 5.694065,2.9760554 c -1.756743,-0.543614 -2.366841,0.834651 -2.734601,2.514584 -0.36776,1.6779 -0.865334,6.953267 -0.68795,9.352288 0.175235,2.401238 0.170936,4.800258 -1.590106,4.676189 -1.555807,-0.108168 -1.538143,-0.8659 -1.4659,-3.962188 v -3.7e-4 -5.55e-4 l 9.4e-5,-8.32e-4 v -0.0013 -8.32e-4 c 0.0092,-0.394489 0.01925,-0.826885 0.0271,-1.30079 0.01617,-1.04507 0.135328,-2.374706 0.260469,-3.771461 0.360283,-4.020895 0.77038,-8.597791 -1.082532,-8.540565 -0.817857,0.02783 -1.542536,0.72334 -1.890856,1.57944 -0.242339,0.599177 -0.969261,2.672954 -0.677202,7.530995 0.214207,3.566034 0.100281,7.999908 0.02178,11.056166 -0.0286,1.111079 -0.05243,2.040031 -0.05421,2.679055 -0.003,1.68548 -0.161964,5.680119 -0.278788,8.615357 v 8.32e-4 l -1.87e-4,0.005 c -0.04935,1.24005 -0.09112,2.290483 -0.110468,2.896779 -0.06486,2.03735 0.365704,6.343272 2.297589,2.34133 0.586453,-1.212962 0.774959,-2.989507 0.997111,-5.082329 v -9.2e-5 c 0.08514,-0.8022 0.175141,-1.650904 0.294488,-2.53215 0.167478,-1.235336 0.251778,-2.153378 0.321218,-2.909445 v 0 -4.62e-4 -1.85e-4 0 c 0.109066,-1.187167 0.181403,-1.974761 0.481405,-2.964452 0.488883,-1.617992 1.821604,-3.330006 2.243476,-0.774743 0.138319,0.829567 -0.105234,3.019647 -0.330376,5.044609 l -9.3e-5,9.2e-5 c -0.165703,1.490593 -0.321498,2.891694 -0.30776,3.594878 0.05626,2.989785 0.27047,6.497389 0.871876,7.173672 1.719921,1.934636 2.278056,-0.573569 2.524694,-1.712107 0.244488,-1.138539 0.620939,-6.835484 0.685799,-8.635327 0.04262,-1.180974 0.572342,-9.859568 0.967018,-16.325893 l 1.87e-4,-0.0019 9.3e-5,-0.0027 c 0.206731,-3.386401 0.376358,-6.165119 0.419443,-6.941063 0.009,-0.162345 0.02664,-0.340406 0.04523,-0.528175 v -1.85e-4 c 0.11187,-1.129108 0.258133,-2.605279 -1.248048,-3.071326 z M 29.589398,22.304449 c 0.778698,-6.455139 2.307495,-8.008507 2.990398,-8.702447 0.08552,-0.0869 0.157758,-0.16031 0.213647,-0.22817 2.332168,-2.835667 6.211171,-0.278186 7.453051,7.139371 1.239636,7.419777 2.280205,16.951789 2.189363,19.047015 -0.08869,2.101511 -0.811315,7.013082 -3.132642,1.579346 -0.575612,-1.350345 -1.188982,-4.657237 -1.583845,-6.786485 l -1.87e-4,-9.24e-4 c -0.09636,-0.5193 -0.179627,-0.968613 -0.246263,-1.302177 -0.07823,-0.393843 -0.129254,-0.897426 -0.184394,-1.441779 v -9.3e-5 c -0.204114,-2.014607 -0.464677,-4.587251 -2.37058,-4.216614 -1.244029,0.2376 -1.929829,2.835668 -2.751892,6.951141 -0.270656,1.351824 -0.481779,2.352609 -0.648323,3.141958 v 9.3e-5 0 0 9.2e-5 c -0.34075,1.614664 -0.494676,2.344474 -0.589163,3.385108 -0.140656,1.545231 -0.331031,3.304395 -1.568518,2.92553 -1.230944,-0.378774 -1.265524,-4.691074 -1.064401,-9.384367 0.136543,-3.147599 0.284208,-4.264782 0.644585,-6.991449 0.165235,-1.249943 0.375143,-2.838072 0.649164,-5.115149 z m 7.452958,0.353626 c -0.220656,0.573568 -4.279287,2.388388 -3.606478,-0.903064 0.02224,-0.107984 0.04794,-0.248325 0.07776,-0.410855 0.248414,-1.355614 0.780194,-4.258031 1.945063,-2.822909 1.306739,1.607267 1.765341,3.672445 1.583658,4.136828 z m -8.45119,-5.550687 c -0.218507,-2.00527 -2.879463,-4.496371 -3.72975,-4.840846 -6.085657,-2.4718711 -10.652703,3.971989 -10.793358,4.338004 -0.361218,0.930892 -0.33748,1.540793 -0.02159,3.038875 0.625238,2.949106 4.978077,14.494986 8.246982,20.16623 3.299186,5.724865 2.278056,-2.163639 1.328329,-7.043037 -0.625239,-3.212315 -1.148795,-6.826978 -1.148795,-6.826978 0,0 1.6745,-0.860352 4.201436,-2.647252 2.424319,-1.713031 2.16684,-3.980585 1.945063,-5.933713 l -9.4e-5,-8.32e-4 c -0.0095,-0.08413 -0.01897,-0.167615 -0.02822,-0.250451 z m -6.149489,-0.160033 c -0.884867,-0.706236 -2.107214,-0.811168 -2.602638,0.07701 l -0.04869,0.08607 c -0.491032,0.865991 -1.052345,1.855683 0.773464,4.641427 0.452153,0.687006 2.944416,-0.667684 2.987688,-1.924005 0.03673,-1.04433 -0.385143,-2.304812 -1.109822,-2.880507 z m 76.643236,-1.320391 c 0.02897,0.06888 0.05514,0.132206 0.08038,0.189433 1.260767,2.955486 0.959827,8.301485 -0.01776,11.070773 -0.200937,0.567097 -1.757024,4.875145 -2.846752,6.811909 -0.216825,0.385799 -0.416826,0.767808 -0.624305,1.162668 -0.869165,1.657745 -1.857958,3.541903 -4.648168,6.877734 -3.450682,4.126196 -7.117721,2.949105 -8.876614,1.63722 -1.540573,-1.146765 -1.745061,-4.956594 -1.97338,-9.21102 -0.03206,-0.596774 -0.06458,-1.20233 -0.101309,-1.810568 -0.236357,-3.97171 -0.918232,-4.273194 -1.657304,-4.60001 -0.180842,-0.08007 -0.365143,-0.161512 -0.5472,-0.29871 -0.925989,-0.699765 -5.38696,-2.557389 -5.38696,-2.557389 -0.73552,5.134101 -1.806463,9.142515 -3.604234,12.847041 0.199067,-1.008552 -0.550566,-1.412842 -1.220571,-1.774327 -0.167385,-0.09033 -0.329816,-0.177876 -0.471219,-0.271622 -0.0886,-0.05871 -0.17374,-0.112051 -0.255516,-0.163269 -0.75524,-0.472704 -1.219823,-0.763556 -1.377861,-3.472751 -0.175329,-2.99829 0.79823,-3.655342 1.462441,-3.892849 0.160002,-0.05731 0.368788,-0.09994 0.612155,-0.149494 0.773744,-0.157629 1.897211,-0.386446 2.914229,-1.389267 1.33702,-1.31401 -0.482434,-2.461147 -2.35815,-3.18236 -1.557022,-0.599732 -1.486928,-1.10239 -1.241132,-2.863403 0.05066,-0.36278 0.108786,-0.779088 0.161591,-1.260574 0.296357,-2.696529 3.327316,-1.74844 3.857414,-1.560117 0.921596,3.533306 1.471133,6.754218 1.471133,6.754218 l 5.369576,-0.03217 c 0,0 0.532248,-0.552121 1.319731,-1.919661 0.785333,-1.36754 4.199193,-7.205751 6.598464,-9.688254 2.401328,-2.484631 6.749868,-3.1224527 9.512694,-1.654325 2.581329,1.369019 3.443019,3.430223 3.848629,4.401146 z m -4.903778,-1.708685 c -2.578338,-0.98017 -3.768254,-0.678408 -4.934339,0.590671 -0.679351,0.740443 -2.193756,5.37161 -2.637217,8.541119 -0.222806,1.602922 -0.430564,10.204041 -0.430564,10.204041 0,0 -0.0714,5.433736 1.983847,2.670827 0.915148,-1.23478 3.195447,-5.652013 4.082463,-7.794204 0.242152,-0.580872 0.603557,-1.363934 1.003934,-2.231313 v 0 c 1.072999,-2.32506 2.426281,-5.255582 2.509459,-6.519578 0.01963,-0.286876 0.05981,-0.601303 0.10187,-0.9308 0.214021,-1.664217 0.477574,-3.712661 -1.679453,-4.530763 z M 84.018343,39.383728 c -1.150944,2.01812 -0.140655,2.884851 1.252627,3.546156 1.393189,0.663431 2.167681,-0.179725 2.624227,-0.862479 0.465144,-0.691166 0.666267,-0.992927 0.607855,-2.311283 -0.05841,-1.32039 -3.193203,-2.638747 -4.484709,-0.372394 z M 18.455476,54.255637 c -0.03682,-0.139047 -0.112524,-0.21615 -0.246637,-0.323117 -0.134207,-0.102713 -0.218507,-0.100587 -0.218507,-0.100587 l -0.03467,-0.0343 c 0.0228,-0.02681 0.01944,-0.0429 0.01514,-0.06379 -0.0043,-0.02089 -0.0096,-0.0465 0.0087,-0.09236 0.03458,-0.09208 0,-0.107058 0,-0.107058 0,0 -0.09523,-0.0022 -0.08009,-0.09199 0.0054,-0.03642 0.01561,-0.06361 0.02449,-0.08728 0.01262,-0.03329 0.02243,-0.05963 0.01234,-0.09467 -0.0089,-0.02644 -0.02598,-0.02736 -0.04458,-0.02829 -0.02196,-0.0012 -0.04617,-0.0025 -0.0614,-0.04659 -0.03682,-0.122035 -0.07794,-0.09633 -0.07794,-0.09633 l -0.06486,-0.02136 c -0.07794,-0.08561 -0.190376,-0.08348 -0.190376,-0.08348 l -0.110374,-0.08135 c -0.03262,-0.09486 -0.05327,-0.195258 -0.07019,-0.27717 -0.02121,-0.102898 -0.03645,-0.176767 -0.06178,-0.174363 -0.02523,0.0024 -0.02645,0.03254 -0.02804,0.07386 -0.0014,0.0331 -0.003,0.07331 -0.01738,0.112328 -0.03243,0.08561 -0.06486,0.0428 -0.06486,0.0428 -0.112525,-0.262747 -0.217105,-0.316738 -0.281218,-0.349836 -0.02467,-0.01276 -0.04336,-0.02246 -0.05411,-0.03966 -0.02084,-0.03032 -0.03776,-0.03708 -0.06084,-0.04631 -0.02262,-0.0091 -0.05112,-0.02043 -0.09495,-0.05852 -0.08869,-0.07497 -0.149253,0.0085 -0.03897,0.07914 0.08187,0.05297 0.11215,0.147831 0.1343,0.216984 0.0082,0.02589 0.01542,0.04826 0.02364,0.06342 0.02813,0.05778 -0.02159,0.09199 -0.07355,0.05557 -0.02579,-0.01932 -0.03243,-0.04789 -0.04112,-0.0858 -0.0096,-0.04151 -0.02187,-0.0943 -0.06486,-0.158185 -0.08439,-0.126196 -0.36561,-0.398003 -0.382994,-0.316646 -0.01093,0.04216 0.01019,0.07229 0.04542,0.122684 0.03458,0.04937 0.08271,0.118152 0.127665,0.236767 0.08159,0.22438 0.01682,0.229742 -0.01598,0.232515 -0.0029,2.77e-4 -0.0055,4.62e-4 -0.0078,8.32e-4 -0.02598,0.0022 -0.0714,-0.0257 -0.177478,-0.173346 -0.103832,-0.147737 -0.185983,-0.169094 -0.185983,-0.169094 -0.04252,-0.0784 -0.104113,-0.117505 -0.183085,-0.167706 l -0.02897,-0.01849 c -0.03766,-0.02395 -0.06336,-0.0538 -0.08355,-0.0771 -0.0286,-0.0331 -0.04598,-0.05316 -0.07,-0.02561 -0.04542,0.0428 -0.0087,0.134794 0.118973,0.261083 0.09832,0.09892 0.105515,0.11658 0.129347,0.175195 0.0071,0.01747 0.0157,0.03865 0.0286,0.06665 0.05402,0.12407 0.03888,0.149772 -0.04327,0.156243 -0.06888,0.0036 -0.200002,-0.143023 -0.286545,-0.239819 -0.01121,-0.01248 -0.02159,-0.02413 -0.03112,-0.03457 -0.0047,-0.0051 -0.0092,-0.01008 -0.01337,-0.01451 -0.05505,-0.0576 -0.119253,-0.110664 -0.180936,-0.161605 v 0 c -0.02318,-0.01923 -0.04598,-0.038 -0.06785,-0.05676 -0.08224,-0.06416 -0.09953,0.01072 -0.05411,0.09846 0.04112,0.08348 0.173086,0.271807 0.259629,0.385245 0.08654,0.115564 -0.0087,0.151898 -0.08224,0.147645 -0.06916,-0.0043 -0.144955,-0.06203 -0.144955,-0.06203 -0.100655,-0.05658 -0.153552,-0.08275 -0.194207,-0.102899 l -9.3e-5,-9.2e-5 c -0.03009,-0.01489 -0.05355,-0.02653 -0.08477,-0.04465 -0.02785,-0.01627 -0.06056,-0.04188 -0.09187,-0.06648 -0.0514,-0.04031 -0.09888,-0.07738 -0.113646,-0.06407 l -0.0013,0.0011 c -0.02402,0.02155 -0.06402,0.05733 0.03159,0.210698 0.09738,0.158368 -0.0064,0.15199 -0.0064,0.15199 -0.162244,-0.05778 -0.313741,0.0257 -0.279068,0.154023 0.03458,0.126288 0.127572,0.220497 0.127572,0.220497 0,0 -0.0086,0.0085 -0.02589,0.07488 -0.01738,0.0685 0.06486,0.124162 0.06486,0.124162 0.0021,0.07063 0.04757,0.205428 0.166543,0.207553 0.115515,0.0011 0.117011,0.01323 0.11916,0.03217 0.002,0.01646 0.0046,0.0381 0.08421,0.06203 0.170936,0.05344 0.441406,0.05557 0.441406,0.05557 0.01729,0.04068 -0.03028,0.07497 -0.03028,0.07497 0,0 -0.6015,0.218277 -1.434404,1.172746 -0.01589,0.01683 -0.03654,0.06314 -0.05692,0.108907 h -9.4e-5 c -0.01841,0.04151 -0.03673,0.08256 -0.05112,0.100865 -0.129814,0.158368 -0.233646,0.297415 -0.357012,0.485739 -0.0257,0.04133 -0.0615,0.08746 -0.0971,0.133223 v 9.2e-5 c -0.03636,0.04669 -0.07243,0.09319 -0.09757,0.134239 -0.05897,0.100217 -0.117291,0.19156 -0.17402,0.280405 v 9.3e-5 c -0.09103,0.142652 -0.177852,0.278741 -0.256545,0.434243 -0.0059,0.01285 -0.01234,0.02783 -0.01916,0.0441 -0.0051,0.01211 -0.01037,0.02506 -0.01589,0.03827 -0.02776,0.06703 -0.05944,0.143484 -0.08608,0.183053 -0.313647,0.481487 -0.486733,0.671937 -0.486733,0.671937 0,0 -0.207759,0.288911 -1.120663,0.667776 -0.199067,0.08348 -0.322339,0.12407 -0.577668,0.181852 -0.311498,0.0685 -0.586267,0.141265 -0.8653346,0.229002 -0.068318,0.02172 -0.1343936,0.04188 -0.2008427,0.06203 -0.2281514,0.06943 -0.4615271,0.140526 -0.8116701,0.284658 -0.1472909,0.06333 -0.3261709,0.155872 -0.5187239,0.255442 -0.1977399,0.102344 -0.4099098,0.212085 -0.6170797,0.305275 0,0 -0.012981,-0.07063 -0.071393,-0.18407 -0.01514,-0.02348 -0.038935,-0.07488 -0.049757,-0.100587 -0.00927,-0.01489 -0.019168,-0.02552 -0.029355,-0.03642 -0.00882,-0.0094 -0.017851,-0.01914 -0.026888,-0.03199 -0.00731,-0.01174 -0.012692,-0.02395 -0.018103,-0.03615 -0.00739,-0.01664 -0.014832,-0.03338 -0.027337,-0.04946 -0.01486,-0.02089 -0.034673,-0.04095 -0.055,-0.06157 l -2.81e-5,-9.3e-5 c -0.015178,-0.01534 -0.030617,-0.03106 -0.044486,-0.04752 L 7.2869,59.0228 C 7.183245,58.905664 7.0891414,58.799345 6.8854295,58.762733 c -0.023888,-0.0065 -0.044514,-0.01553 -0.063888,-0.02395 -0.012215,-0.0053 -0.023925,-0.01045 -0.035636,-0.01461 -0.011617,-0.0014 -0.03201,-0.01054 -0.049402,-0.0184 -0.00431,-0.002 -0.00843,-0.0038 -0.012187,-0.0053 -0.00367,-0.0016 -0.00699,-0.003 -0.0098,-0.0041 -0.033486,-0.0147 -0.067692,-0.04142 -0.1001597,-0.06675 h -2.8e-5 c -0.02415,-0.01886 -0.047337,-0.03689 -0.068561,-0.04882 C 6.2688497,58.420309 6.136886,58.253435 6.136886,58.253435 c 0,0 -0.199039,-0.883927 -0.9389235,-1.480978 -0.018832,-0.01423 -0.04844,-0.01785 -0.077786,-0.02145 -0.027972,-0.0034 -0.055711,-0.0066 -0.073655,-0.01923 -0.030019,-0.0233 -0.054187,-0.05825 -0.076982,-0.09116 -0.023225,-0.03347 -0.045028,-0.0649 -0.070131,-0.08007 l -0.097356,0.01285 -0.010822,-0.03208 -0.097347,-0.13914 -0.051926,0.05778 -0.063346,-0.02968 c -0.200763,-0.0943 -0.4260919,-0.200248 -0.6743837,-0.229278 l -0.3850965,0.03642 c -0.1514405,0.0063 -0.2963856,0.02136 -0.4348447,0.04918 -0.1038419,0.01923 -0.205525,0.05353 -0.3050398,0.08773 -0.3223578,0.102714 -0.603603,0.2376 -0.8437452,0.415199 -0.2920584,0.216152 -0.5170509,0.479361 -0.6793139,0.697639 -0.62306482,0.714833 -0.83724413,1.759164 -0.83724413,1.759164 -0.13196929,0.220497 -0.1774005,0.569316 -0.1774005,0.569316 -0.25095735,0.609901 -0.31369702,1.348218 -0.15360339,1.947487 0.16225673,0.59927 0.5841237,0.892433 0.5841237,0.892433 l 0.002165,-0.07063 c -0.0778829,-0.162621 -0.25312167,-0.53289 -0.25312167,-0.53289 -0.0367788,-0.158368 -0.0692286,-0.359542 -0.0843726,-0.71696 -0.0168973,-0.310081 0.0590743,-0.618684 0.0964204,-0.770305 0.005689,-0.02311 0.0104814,-0.04262 0.0139132,-0.05788 0.0281245,-0.113438 0.0778838,-0.164841 0.0778838,-0.164841 0.0540855,0.10706 0.19470905,0.308234 0.19470905,0.308234 C 0.68288176,60.494063 0.58985391,60.151623 0.58985391,60.151623 0.89057036,59.524619 1.0809532,59.394077 1.0809532,59.394077 v -0.02783 c -0.032449,-0.02145 -0.056253,-0.0428 -0.056253,-0.0428 0.071393,0.0171 0.1060102,0.0085 0.1060102,0.0085 C 1.249702,59.190781 1.36003,59.085849 1.36003,59.085849 c 0.038944,0.0771 0.07572,0.09846 0.07572,0.09846 l 0.025963,-0.07063 0.036785,0.01072 0.025953,-0.05778 c 0.032458,-0.01072 0.071393,0.01285 0.071393,0.01285 l 0.056253,-0.01923 c -0.1254777,0.05991 -0.1535994,0.156149 -0.1535994,0.156149 l 0.034608,0.07923 0.1341319,0.109094 0.019477,0.02783 c -0.1644219,0.237601 -0.235815,0.466602 -0.235815,0.466602 -0.00433,0.06842 -0.034617,0.175472 -0.034617,0.175472 -0.067066,0.145519 -0.073552,0.383119 -0.054085,0.498684 0.021636,0.11769 0.103842,0.2033 0.103842,0.2033 0,0 0.06058,-0.226875 0.095197,-0.333935 0.018953,-0.05621 0.036197,-0.09033 0.054963,-0.127398 0.017645,-0.03495 0.036636,-0.07248 0.059692,-0.133684 0.043271,-0.12407 0.1124962,-0.175473 0.1124962,-0.175473 l 0.017308,-0.0171 c -3.925e-4,0.01091 -0.00222,0.0281 -0.00452,0.04965 -0.010318,0.0968 -0.030056,0.281977 0.028327,0.386909 0.026682,0.04733 0.047954,0.09023 0.065374,0.125272 0.030589,0.06167 0.049262,0.09929 0.064431,0.09522 0.025963,-0.01285 0.073552,-0.126289 0.073552,-0.126289 0,0 0.017309,0.03208 0.034617,0.0685 0.017308,0.03846 -0.00433,0.07701 -0.00433,0.07701 -0.1795622,0.09846 -0.1817304,0.134794 -0.1817304,0.134794 l 0.058412,-0.0022 c 0.1600947,-0.0063 0.01515,0.04918 0.01515,0.04918 -0.101683,0.03004 -0.095197,0.07063 -0.095197,0.07063 l 0.069234,0.0022 -0.0065,0.03421 0.051926,0.0063 0.00865,0.01932 -0.099515,0.06203 c 0.023795,0.207554 0.1384591,0.201174 0.3223484,0.147644 0.1860576,-0.04918 0.3548066,-0.104839 0.3548066,-0.104839 l -0.00865,0.02995 c 0,0 0.4218632,-0.100587 0.5473408,-0.128414 0.1233188,-0.02995 0.2163476,0.0685 0.2163476,0.0685 -0.043271,0.03633 -0.034617,0.100588 -0.034617,0.100588 -0.080047,0.02136 -0.086533,0.11769 -0.086533,0.11769 0,0 -0.041113,0.02145 -0.010823,0.13914 0.03029,0.11769 0.1622537,0.284565 0.1622537,0.284565 0.1103373,0.0086 0.1471133,0.08135 0.1125056,0.192669 -0.034617,0.109092 0.030281,0.226875 0.2293196,0.252484 0.2011979,0.02783 0.2011979,0.109185 0.2011979,0.109185 0.073561,0.119818 0.017308,0.229002 0.017308,0.229002 -0.1103373,0.130542 0.1189916,0.258956 0.1189916,0.258956 0.1124963,0.119818 0.036776,0.246106 0.036776,0.246106 l -0.03029,-0.04068 -0.00433,0.05991 -0.043271,-0.0685 -0.00432,0.06212 -0.073561,-0.0343 c 0.067066,0.111311 0.1406273,0.158368 0.1406273,0.158368 v 0.05778 l 0.021626,0.02783 -0.00649,0.04715 c 0.03029,0.04918 -0.00649,0.07488 -0.00649,0.07488 0.099515,0.06203 0.025953,0.171219 0.025953,0.171219 0.1471133,0.09199 0.2271607,0.19045 0.2271607,0.19045 l -0.025963,0.05353 0.125487,0.01063 0.09086,0.06212 0.062739,-0.04502 0.049758,0.0514 0.021636,0.05778 0.025963,0.02357 0.00216,0.05131 c 0.038944,0.04068 0.00865,0.07488 0.00865,0.07488 0.1124963,0.03855 0.06058,0.160588 0.06058,0.160588 0.025963,0.04706 0.054085,0.169001 0.054085,0.169001 l 0.1471134,0.0942 0.097356,0.04493 0.04543,0.0063 -0.032449,0.143392 0.054085,-0.05344 0.110328,0.134794 c 0.1103374,0.211898 0.2985539,0.413072 0.398078,0.47298 0.1016737,0.06416 0.030281,0.128415 0.030281,0.128415 0.1449545,0.08773 0.2250019,0.188324 0.2250019,0.188324 l -0.025963,0.05344 0.1254777,0.0086 0.093029,0.06425 0.062739,-0.04502 0.062739,0.07923 0.064907,-0.0064 -0.017309,0.05353 0.1362909,0.145518 0.082216,0.0064 -0.036776,0.06416 0.097347,0.02783 -0.01514,0.06203 0.1254776,-0.03421 0.04543,0.06203 0.1103373,0.08135 0.1016831,0.0428 0.04543,0.01072 0.09086,0.106966 0.054085,-0.05353 0.1081784,0.137013 0.062739,0.05991 -0.062739,0.04706 c 0.036776,0.0257 0.2552824,0.143392 0.2552824,0.143392 l 0.025963,0.08996 0.056243,0.04272 v 0.119909 c 0,0 0.028122,0 0.1363002,-0.01932 0.1081691,-0.01923 0.1990296,0.06425 0.1990296,0.06425 -0.054085,0.404475 0.04544,0.36167 0.04544,0.36167 l 0.1016738,-0.04068 c 0.1449544,0 0.1838986,-0.08773 0.1838986,-0.08773 0.00806,0.03874 0.052888,0.06712 0.094702,0.09365 0.036739,0.0233 0.071141,0.04512 0.076206,0.07109 0.00865,0.0514 -0.088702,0.113438 -0.088702,0.113438 l 0.088702,0.03855 0.047589,-0.02783 v 0.05353 l 0.09087,-0.03642 c 0.04543,0.235473 0.1081691,0.179818 0.1081691,0.179818 0,0 0.1081691,-0.04493 0.1363002,-0.08773 0.028122,-0.04715 0.1189823,0.09846 0.1189823,0.09846 l 0.017308,0.09837 c -0.082206,0.216152 -0.054085,0.53289 -0.054085,0.53289 0.1254776,0.338187 0.2769181,0.475108 0.2769181,0.475108 0,0 0.054085,0.505061 0.1557676,0.659178 0.097356,0.149771 0.4478261,1.222022 0.5062378,1.403873 0.060561,0.181945 0.1341132,0.417326 0.1341132,0.417326 0,0 -0.036729,0.07063 -0.0086,0.07276 0.030281,0 0.021589,0.04927 0.021589,0.04927 -0.02514,0.04419 -0.017851,0.05363 -0.00888,0.06509 0.00486,0.0063 0.01028,0.01331 0.011028,0.02691 0.00215,0.03642 0.00869,0.231129 -0.06701,0.239726 -0.073552,0.0085 -0.077945,0.102714 -0.077945,0.102714 -0.0943,0.04669 -0.094113,0.06961 -0.094019,0.08912 9.35e-5,0.0046 9.35e-5,0.0091 -0.00112,0.01359 -0.00869,0.01923 -0.073552,0.06425 -0.073552,0.06425 l -0.00215,0.02995 c 0,0 -0.049814,0.04706 -0.075795,0.07914 -0.028131,0.03208 -0.1341132,0.11769 -0.1341132,0.11769 l -0.056225,0.0343 -0.058412,0.04706 -0.04544,0.0257 -0.043262,0.01923 -0.047599,0.01498 -0.032449,0.02783 -0.023804,0.01285 c -0.1622536,0.0257 -0.2466281,0.126289 -0.3007127,0.248233 -0.054085,0.126288 0,0.252576 0.067066,0.134886 C 8.8973844,72.656 8.9990671,72.656 8.9990671,72.656 c 0,0 -0.010813,0.113438 0.1600948,0.128414 0.1665901,0.01063 0.2465908,-0.05353 0.2725723,-0.07488 0.028131,-0.01932 0.060561,-0.0942 0.060561,-0.0942 0.01514,-0.0257 0.077945,-0.03855 0.077945,-0.03855 0.028879,-0.02515 0.051122,-0.04678 0.071776,-0.06693 l 9.34e-5,-9.3e-5 c 0.030187,-0.02949 0.05701,-0.05565 0.096823,-0.08488 0.062804,-0.04927 0.077945,-0.03855 0.077945,-0.03855 0,0 0.01514,0.09633 -0.017383,0.173346 -0.03458,0.07276 -0.1773846,0.196922 -0.1773846,0.196922 -0.147104,0.04918 -0.2573853,0.111219 -0.2855444,0.128414 -0.028122,0.01285 -0.1146645,0.106967 -0.1146645,0.106967 l -0.00216,0.02783 c -0.101683,0.06203 -0.2834135,0.2376 -0.3050492,0.37452 -0.023795,0.139139 0.088702,0.04068 0.1492816,-0.02136 0.062739,-0.06638 0.1168234,-0.107059 0.1168234,-0.107059 h 0.038944 c 0.032449,0.06425 0.2336748,0.0942 0.3266662,0 0.085328,-0.09014 0.15159,-0.09605 0.2064503,-0.100957 l 0.018598,-0.0018 c 0.00617,-9.24e-4 0.012617,-0.0016 0.019346,-0.0023 0.055608,-0.006 0.1260758,-0.01359 0.2207496,-0.164656 0.108132,-0.164748 0.235797,-0.186197 0.328881,-0.198955 0.09084,-0.01285 0.196824,0.05991 0.196824,0.05991 l -0.02598,0.0171 c -0.175235,0.03633 -0.281217,0.194703 -0.311498,0.318865 -0.02813,0.115564 0.03458,0.154116 0.06925,0.07923 0.03243,-0.0771 0.138412,-0.128415 0.160095,-0.130542 0.01944,-0.0044 0.02589,0.02561 0.02589,0.02561 0.02383,0.104933 0.164487,0.130542 0.28346,0.102714 0.111777,-0.02903 0.147104,-0.08801 0.16888,-0.124347 l 0.0064,-0.01045 c 0.01944,-0.03421 0.04112,-0.04068 0.04112,-0.04068 0,0 -0.0022,0.09421 -0.01084,0.132668 -0.0087,0.03855 -0.110375,0.134886 -0.110375,0.134886 -0.09729,0.0428 -0.101683,0.07276 -0.101683,0.07276 -0.1643,0.02006 -0.197852,0.04955 -0.216264,0.06573 -0.0032,0.0028 -0.0059,0.0051 -0.0087,0.007 -0.01944,0.01285 -0.04972,0.03855 -0.04972,0.03855 -0.149347,0.04493 -0.266171,0.177599 -0.32019,0.248232 -0.05411,0.07063 -0.129814,0.246106 -0.05841,0.196828 0.09514,-0.06841 0.237945,-0.164747 0.237945,-0.164747 0.03196,-0.02228 0.03869,-0.0092 0.04916,0.01137 0.0087,0.01701 0.02,0.0391 0.05037,0.05067 0.103833,0.03855 0.283367,-0.0171 0.283367,-0.0171 0.03467,-0.05778 0.08009,-0.06416 0.08009,-0.06416 0.207665,0 0.281217,-0.09633 0.281217,-0.09633 h 0.121123 l 0.101683,-0.06638 c 0.199067,-0.05131 0.142805,-0.126196 0.142805,-0.126196 0.06495,-0.0044 0.588509,-0.0064 0.664211,0.0043 0.0757,0.01072 0.283366,0.07063 0.283366,0.07063 l 0.324489,0.01285 c 0,0 0.2986,0.05778 0.374302,0.02136 0.151497,-0.0685 0.250937,-0.03421 0.341872,0.0086 0.09084,0.04706 0.348227,0.0428 0.376358,-0.01498 0.02813,-0.05991 0.0758,-0.0942 0.0758,-0.0942 0.0615,0.009 0.112151,0.04401 0.161029,0.07775 0.05598,0.03865 0.109534,0.07563 0.174301,0.0699 0.123272,-0.01063 -0.01299,-0.147645 -0.170936,-0.27606 -0.160095,-0.126196 -0.374302,-0.145518 -0.374302,-0.145518 l -0.0064,-0.01498 c 0.02897,-0.0087 0.03804,-0.0057 0.05224,-9.89e-4 0.02084,0.0069 0.05299,0.01757 0.174861,9.89e-4 0.207759,-0.02783 0.164487,-0.106966 0.164487,-0.106966 0.07355,-0.06638 0.198974,-0.05778 0.354769,-0.01498 0.157946,0.04918 0.131964,-0.02357 -0.03897,-0.166968 -0.170842,-0.141266 -0.445611,-0.06416 -0.445611,-0.06416 l -0.04542,-0.03217 h -0.119066 l -0.06701,-0.02774 c -0.03047,0.0042 -0.0715,0.01238 -0.11888,0.02182 v 0 c -0.167665,0.03355 -0.414956,0.08293 -0.558322,0.02949 -0.181684,-0.06416 -0.281217,-0.02357 -0.281217,-0.02357 l -0.131964,-0.07701 c 0.07355,0.01072 0.112524,-0.06629 0.112524,-0.06629 0.136263,0.07276 0.257386,-0.0064 0.257386,-0.0064 0,0 0,0.03642 0.175235,0.03421 0.179627,-0.0063 0.205609,-0.164748 0.205609,-0.164748 0.05402,-0.03642 0.181684,-0.01285 0.181684,-0.01285 0.250936,0.117691 0.157945,-0.02357 0.157945,-0.02357 -0.175235,-0.267462 -0.478135,-0.164749 -0.478135,-0.164749 -0.131964,-0.07276 -0.147104,-0.01923 -0.147104,-0.01923 -0.227198,-0.01932 -0.35262,0.03208 -0.35262,0.03208 -0.04103,0 -0.08234,-9.89e-4 -0.124113,-0.0021 -0.105982,-0.0027 -0.214768,-0.0053 -0.32804,0.0084 -0.142805,0.01932 -0.415424,-0.03208 -0.415424,-0.03208 -0.08374,-0.14635 -0.168412,-0.504877 -0.233646,-0.781029 v -9.3e-5 c -0.03589,-0.151713 -0.06579,-0.278556 -0.08654,-0.331716 -0.06056,-0.149771 -0.250937,-1.078629 -0.250937,-1.078629 l -0.09299,-0.586419 c 0.06075,-0.06842 0.06262,-0.106689 0.07252,-0.311839 l 0.001,-0.01987 c 0.0064,-0.109184 0.04056,-0.170758 0.08037,-0.2425 0.03972,-0.07165 0.08514,-0.153469 0.1143,-0.303148 0.04542,-0.231498 0.305704,-0.523829 0.472995,-0.711782 0.04766,-0.05363 0.08785,-0.09865 0.113272,-0.131467 0.110374,-0.149771 0.289909,-0.485831 0.289909,-0.485831 0.0714,0.09846 0.116823,0.05565 0.175235,-0.01063 0.03607,-0.04114 0.04635,-0.112144 0.05477,-0.170203 0.0048,-0.03263 0.0089,-0.06111 0.01664,-0.07812 0.02383,-0.04706 0.03897,-0.13692 0.03897,-0.13692 l 0.0043,-0.164841 c 0.03682,-0.141174 0.114674,-0.301761 0.114674,-0.301761 l 0.03243,-0.09411 0.01514,-0.0514 c 0,0 -0.01944,-0.0085 0.110375,-0.213933 0.131963,-0.20552 0.469443,-0.436648 0.469443,-0.436648 l -0.116824,0.137014 c 0.06925,-0.0428 0.276918,-0.11991 0.276918,-0.11991 l 0.06486,-0.05344 -0.03028,0.08773 c 0.270469,-0.301761 0.324582,-0.196921 0.324582,-0.196921 l 0.0086,-0.111312 c 0.02598,-0.05344 0.06925,0.04715 0.06925,0.04715 0.108132,-0.104932 0.194675,-0.199047 0.194675,-0.199047 l 0.0087,0.115564 0.04757,0.01072 c 0.01514,-0.08561 0.07355,-0.134886 0.07355,-0.134886 0.02813,0.07063 -0.01084,0.17122 -0.01084,0.17122 l 0.04327,-0.07488 0.0087,0.02357 c 0.04757,-0.04068 0.07355,-0.147737 0.07355,-0.147737 l 0.05196,0.0044 c 0,0 0.108131,-0.141265 0.09514,-0.241852 -0.0086,-0.102714 0.05196,-0.214025 0.05196,-0.214025 0.01084,0.08773 0.0757,0.11769 0.0757,0.11769 v -0.173346 l 0.04542,0.0257 c -0.0087,-0.177599 0.02168,-0.368141 0.02168,-0.368141 0.233646,-0.220404 0.895614,-0.744696 0.895614,-0.744696 0.08738,-0.0662 0.166731,-0.149956 0.254862,-0.243054 h 9.4e-5 c 0.0886,-0.09356 0.186076,-0.196552 0.309722,-0.300559 0.248787,-0.207554 0.439162,-0.34882 0.439162,-0.34882 l -0.01084,-0.05778 0.05626,-0.02145 c 0.207665,-0.286693 0.40019,-0.635604 0.484583,-0.918043 0.08654,-0.284657 0.235797,-0.772615 0.235797,-0.772615 l -0.01944,-0.05991 c 0.06075,-0.0084 0.05944,-0.05593 0.05804,-0.104747 -0.001,-0.03809 -0.0021,-0.07701 0.02636,-0.09856 0.06925,-0.04706 0.05841,-0.218278 0.05841,-0.218278 0.08869,-0.166968 0.07355,-0.303888 0.07355,-0.303888 0.03897,-0.05565 0.05841,-0.203393 0.05626,-0.293256 -0.0028,-0.05501 0.01411,-0.138307 0.04944,-0.31304 l 9.3e-5,-9.3e-5 c 0.01963,-0.09707 0.04505,-0.222345 0.07589,-0.386631 0.07075,-0.367587 -0.03953,-0.752739 -0.14159,-1.109416 -0.04477,-0.156335 -0.08795,-0.307123 -0.113646,-0.448574 -0.141309,-0.351315 -0.312993,-0.628299 -0.446545,-0.843988 -0.03,-0.04844 -0.05813,-0.09384 -0.08346,-0.136181 -0.08009,-0.130542 0.0043,-0.164841 0.0043,-0.164841 l 0.298507,-0.06629 0.465144,-0.14561 c 0,0 0.110375,-0.07488 0.153646,-0.141174 0.04112,-0.06425 0.07785,-0.08135 0.07785,-0.08135 0.153646,-0.02783 0.131964,-0.15199 0.131964,-0.15199 0.166637,-0.171127 0.110375,-0.492212 0.110375,-0.492212 0,0 0.06701,-0.111218 -0.03897,-0.453658 -0.110281,-0.344566 -0.253086,-0.366015 -0.253086,-0.366015 0,0 0.0064,-0.01063 -0.03028,-0.07914 -0.03682,-0.06416 -0.09309,-0.06203 -0.09309,-0.06203 0.01327,-0.03513 0.03467,-0.05223 0.06,-0.07248 0.01168,-0.0094 0.0243,-0.01951 0.03738,-0.03245 0.03673,-0.04059 0.07355,-0.02783 0.07355,-0.02783 0.02009,0.0017 0.0371,0.0033 0.05262,0.0047 h 9.3e-5 c 0.04626,0.0045 0.07991,0.0077 0.146357,0.006 0.08654,-0.0043 0.134113,-0.01285 0.177384,-0.03846 0.0157,-0.0071 0.03561,-0.0028 0.05402,0.0013 0.03729,0.0081 0.06795,0.01479 0.04337,-0.0784 z m -7.751558,17.262148 c -0.02421,-0.08413 -0.04841,-0.139232 -0.07617,-0.202653 -0.03449,-0.07858 -0.07458,-0.170018 -0.127197,-0.345213 -0.09738,-0.318865 -0.419723,-1.605141 -0.419723,-1.605141 l 0.05402,-0.04059 c 0.05411,0.169001 0.23804,0.421578 0.23804,0.421578 0.147104,0.361669 0.276918,0.94587 0.361311,1.346092 0.08654,0.404474 0.140562,0.616373 0.140562,0.616373 -0.09729,-0.158369 -0.170843,-0.19045 -0.170843,-0.19045 z"
    />
  </g>
</svg>
