<?xml version="1.0" encoding="UTF-8" ?>
<svg xmlns="http://www.w3.org/2000/svg" width="100" height="100">
  <g transform="translate(30,0)" fill="black" opacity="0.2">
    <path
      d="M 52.702091,0.03900019 38.545478,2.3330422 A 10.893444,10.968312 0 0 1 17.033358,5.7679846 L 2.8767431,8.022854 A 3.3738552,3.3970429 0 0 0 0.03909828,11.898487 L 13.458946,97.137941 a 3.3614055,3.3845077 0 0 0 3.846747,2.820423 l 14.156613,-2.257319 a 10.90685,10.98181 0 0 1 21.551026,-3.398218 l 14.154182,-2.254869 a 3.3489559,3.3719725 0 0 0 2.789013,-3.873185 L 56.548838,2.8961476 A 3.3738552,3.3970429 0 0 0 52.702091,0.03900019 Z M 40.062779,27.131709 c 0.273149,-0.0034 0.52765,0.02086 0.761081,0.071 1.7056,0.376056 4.022601,2.506946 5.441858,3.973565 0.737194,0.850669 0.816502,2.092435 0.196958,3.033424 l -5.091712,7.521128 c -0.451334,0.597745 -1.078146,1.0365 -1.792069,1.253521 -2.103989,0.501407 -5.167384,-4.011258 -7.333621,6.267607 -2.166238,10.278864 2.454819,7.433383 4.16042,8.77465 0.563873,0.472582 0.97128,1.107873 1.169586,1.819075 l 1.631585,8.923994 h -0.05107 c 0.180546,1.113901 -0.401185,2.212742 -1.420037,2.683319 -1.879896,0.764648 -4.829591,1.778922 -6.572541,1.402867 C 27.428326,72.053605 21.490523,62.740318 24.70253,47.560189 27.713786,33.328819 35.965515,27.183168 40.062773,27.131708 z"
    />
  </g>
</svg>
