<?xml version="1.0" encoding="UTF-8" ?>
<svg xmlns="http://www.w3.org/2000/svg" width="100" height="100">
  <g transform="translate(0,4)" fill="white">
    <path
      d="M 91.176471,92 H 8.8235294 A 8.8235294,8.9032258 0 0 1 0,83.096774 V 8.9032258 A 8.8235294,8.9032258 0 0 1 8.8235294,0 H 91.176471 A 8.8235294,8.9032258 0 0 1 100,8.9032258 V 83.096774 A 8.8235294,8.9032258 0 0 1 91.176471,92 Z M 11.764706,72.709678 a 4.4117647,4.4516129 0 0 0 4.411765,4.451612 h 16.17647 V 71.225806 H 19.117647 A 1.4705882,1.4838709 0 0 1 17.647059,69.741935 V 60.83871 a 1.4705882,1.4838709 0 0 1 1.470588,-1.483872 h 13.235294 v -5.935484 h -16.17647 a 4.4117647,4.4516129 0 0 0 -4.411765,4.451613 z M 35.294118,19.290322 A 4.4117647,4.4516129 0 0 0 30.882353,14.838709 H 16.176471 a 4.4117647,4.4516129 0 0 0 -4.411765,4.451613 v 14.83871 a 4.4117647,4.4516129 0 0 0 4.411765,4.451613 H 26.470588 V 32.645161 H 19.117647 A 1.4705882,1.4838709 0 0 1 17.647059,31.16129 v -8.903225 a 1.4705882,1.4838709 0 0 1 1.470588,-1.483872 h 8.823529 a 1.4705882,1.4838709 0 0 1 1.470589,1.483872 v 17.806451 a 1.4705882,1.4838709 0 0 1 -1.470589,1.483871 h -16.17647 v 5.935484 h 19.117647 a 4.4117647,4.4516129 0 0 0 4.411765,-4.451613 z m 0,38.580645 v 14.838711 a 4.4117647,4.4516129 0 0 0 4.411764,4.451612 h 14.705883 a 4.4117647,4.4516129 0 0 0 4.411764,-4.451612 V 57.870967 A 4.4117647,4.4516129 0 0 0 54.411765,53.419354 H 39.705882 a 4.4117647,4.4516129 0 0 0 -4.411764,4.451613 z M 61.764706,19.290322 A 4.4117647,4.4516129 0 0 0 57.352941,14.838709 H 42.647059 a 4.4117647,4.4516129 0 0 0 -4.411765,4.451613 v 14.83871 a 4.4117647,4.4516129 0 0 0 4.411765,4.451613 h 14.705882 a 4.4117647,4.4516129 0 0 0 4.411765,-4.451613 z m 26.470588,0 A 4.4117647,4.4516129 0 0 0 83.823529,14.838709 H 69.117647 a 4.4117647,4.4516129 0 0 0 -4.411765,4.451613 v 14.83871 a 4.4117647,4.4516129 0 0 0 4.411765,4.451613 H 79.411765 V 32.645161 H 72.058824 A 1.4705882,1.4838709 0 0 1 70.588235,31.16129 v -8.903225 a 1.4705882,1.4838709 0 0 1 1.470589,-1.483872 h 8.823529 a 1.4705882,1.4838709 0 0 1 1.470588,1.483872 v 17.806451 a 1.4705882,1.4838709 0 0 1 -1.470588,1.483871 H 64.705882 v 5.935484 h 19.117647 a 4.4117647,4.4516129 0 0 0 4.411765,-4.451613 z m 0,34.129032 H 66.176471 a 4.4117647,4.4516129 0 0 0 -4.411765,4.451613 V 77.16129 h 5.882353 V 60.83871 a 1.4705882,1.4838709 0 0 1 1.470588,-1.483872 h 2.941177 V 77.16129 h 5.882352 V 59.354838 h 4.411765 V 77.16129 h 5.882353 z M 54.411765,32.645161 h -8.82353 A 1.4705882,1.4838709 0 0 1 44.117647,31.16129 v -8.903225 a 1.4705882,1.4838709 0 0 1 1.470588,-1.483872 h 8.82353 a 1.4705882,1.4838709 0 0 1 1.470588,1.483872 v 8.903225 a 1.4705882,1.4838709 0 0 1 -1.470588,1.483871 z M 42.647059,59.354838 h 8.823529 a 1.4705882,1.4838709 0 0 1 1.470588,1.483872 v 8.903225 a 1.4705882,1.4838709 0 0 1 -1.470588,1.483871 H 42.647059 A 1.4705882,1.4838709 0 0 1 41.176471,69.741935 V 60.83871 a 1.4705882,1.4838709 0 0 1 1.470588,-1.483872 z"
    />
  </g>
</svg>
